; NON-PLATED HOLES START AT T1
; THROUGH (PLATED) HOLES START AT T100
M48
INCH
T1C0.125000
T2C0.035433
T100C0.125984
T101C0.118000
T102C0.015748
T103C0.041000
T104C0.035000
T105C0.125000
T106C0.040000
%
T1
X020064Y007332
X001704Y007332
T2
X030303Y009866
X030303Y008134
T100
X027484Y003772
T101
X028735Y005253
X030366Y003782
T102
X014160Y004799
X018640Y008639
X015760Y003039
T103
X022484Y008772
X022484Y006772
X026484Y007772
T104
X013584Y007892
X011964Y006772
X016284Y006772
X007104Y007892
X006484Y000772
X012484Y000772
X010884Y006772
X024484Y003772
X015204Y006772
X013044Y006772
X004944Y007892
X017484Y003772
X004484Y000772
X014124Y006772
X004404Y006772
X020484Y003772
X014484Y000772
X008484Y000772
X018484Y000772
X017364Y006772
X011484Y000772
X015484Y000772
X012504Y007892
X009264Y007892
X008184Y007892
X016484Y003772
X006564Y006772
X016824Y007892
X007644Y006772
X006024Y007892
X005484Y000772
X009484Y000772
X008724Y006772
X016484Y000772
X017484Y000772
X009804Y006772
X003484Y000772
X011424Y007892
X018484Y003772
X007484Y000772
X010344Y007892
X014664Y007892
X013484Y000772
X015744Y007892
X005484Y006772
X010484Y000772
T105
X020064Y007332
X001704Y007332
T106
X001484Y004772
X001484Y003394
T00
M30
