G04 MADE WITH FRITZING*
G04 WWW.FRITZING.ORG*
G04 DOUBLE SIDED*
G04 HOLES PLATED*
G04 CONTOUR ON CENTER OF CONTOUR VECTOR*
%ASAXBY*%
%FSLAX23Y23*%
%MOIN*%
%OFA0B0*%
%SFA1.0B1.0*%
%ADD10C,0.010000*%
%ADD11C,0.008000*%
%ADD12C,0.020000*%
%ADD13C,0.005000*%
%ADD14C,0.012000*%
%ADD15R,0.001000X0.001000*%
%LNSILK1*%
G90*
G70*
G54D10*
X1678Y441D02*
X1818Y441D01*
D02*
X2158Y410D02*
X2358Y410D01*
D02*
X2358Y410D02*
X2358Y344D01*
D02*
X2358Y344D02*
X2158Y344D01*
D02*
X2158Y344D02*
X2158Y410D01*
G54D11*
D02*
X2733Y548D02*
X2733Y472D01*
D02*
X3167Y548D02*
X2968Y548D01*
D02*
X2733Y548D02*
X2783Y548D01*
D02*
X3167Y206D02*
X2733Y206D01*
D02*
X2733Y206D02*
X2733Y283D01*
D02*
X3167Y206D02*
X3167Y548D01*
D02*
X3082Y750D02*
X2999Y750D01*
D02*
X2900Y778D02*
X2900Y813D01*
D02*
X2900Y987D02*
X2900Y1022D01*
D02*
X2999Y1050D02*
X3082Y1050D01*
G54D10*
D02*
X2126Y1098D02*
X2126Y1068D01*
D02*
X2126Y1068D02*
X50Y1068D01*
D02*
X50Y1068D02*
X50Y1098D01*
D02*
X50Y1098D02*
X2126Y1098D01*
D02*
X2066Y1098D02*
X2066Y1068D01*
D02*
X1946Y1098D02*
X1946Y1068D01*
D02*
X110Y1098D02*
X110Y1068D01*
D02*
X230Y1098D02*
X230Y1068D01*
G54D12*
D02*
X1896Y1068D02*
X1896Y963D01*
D02*
X1896Y963D02*
X280Y963D01*
D02*
X280Y963D02*
X280Y1068D01*
G54D10*
D02*
X280Y1068D02*
X1896Y1068D01*
G54D12*
D02*
X1736Y717D02*
X1736Y963D01*
D02*
X1628Y717D02*
X1628Y963D01*
D02*
X1520Y717D02*
X1520Y963D01*
D02*
X1412Y717D02*
X1412Y963D01*
D02*
X1304Y717D02*
X1304Y963D01*
D02*
X1196Y717D02*
X1196Y963D01*
D02*
X1088Y717D02*
X1088Y963D01*
D02*
X980Y717D02*
X980Y963D01*
D02*
X872Y717D02*
X872Y963D01*
D02*
X764Y717D02*
X764Y963D01*
D02*
X656Y717D02*
X656Y963D01*
D02*
X548Y717D02*
X548Y963D01*
D02*
X440Y717D02*
X440Y963D01*
D02*
X1682Y829D02*
X1682Y963D01*
D02*
X1574Y829D02*
X1574Y963D01*
D02*
X1466Y829D02*
X1466Y963D01*
D02*
X1358Y829D02*
X1358Y963D01*
D02*
X1250Y829D02*
X1250Y963D01*
D02*
X1142Y829D02*
X1142Y963D01*
D02*
X1034Y829D02*
X1034Y963D01*
D02*
X926Y829D02*
X926Y963D01*
D02*
X818Y829D02*
X818Y963D01*
D02*
X710Y829D02*
X710Y963D01*
D02*
X602Y829D02*
X602Y963D01*
D02*
X494Y829D02*
X494Y963D01*
G54D13*
D02*
X2498Y827D02*
X2398Y727D01*
G54D14*
D02*
X2548Y602D02*
X2598Y652D01*
D02*
X2473Y577D02*
X2548Y602D01*
D02*
X2423Y577D02*
X2473Y577D01*
D02*
X2348Y602D02*
X2423Y577D01*
D02*
X2323Y627D02*
X2348Y602D01*
D02*
X2348Y952D02*
X2423Y977D01*
D02*
X2323Y927D02*
X2348Y952D01*
D02*
X2423Y977D02*
X2473Y977D01*
D02*
X2473Y977D02*
X2548Y952D01*
D02*
X2548Y952D02*
X2598Y902D01*
G54D10*
D02*
X236Y266D02*
X236Y551D01*
D02*
X236Y551D02*
X20Y551D01*
D02*
X20Y551D02*
X20Y266D01*
D02*
X20Y266D02*
X236Y266D01*
G54D13*
D02*
X60Y551D02*
X60Y266D01*
G54D15*
X0Y1112D02*
X2877Y1112D01*
X2986Y1112D02*
X3093Y1112D01*
X3203Y1112D02*
X3204Y1112D01*
X0Y1111D02*
X2877Y1111D01*
X2986Y1111D02*
X3093Y1111D01*
X3203Y1111D02*
X3204Y1111D01*
X0Y1110D02*
X2877Y1110D01*
X2986Y1110D02*
X3093Y1110D01*
X3203Y1110D02*
X3204Y1110D01*
X0Y1109D02*
X2877Y1109D01*
X2986Y1109D02*
X3093Y1109D01*
X3203Y1109D02*
X3204Y1109D01*
X0Y1108D02*
X2877Y1108D01*
X2986Y1108D02*
X3093Y1108D01*
X3203Y1108D02*
X3204Y1108D01*
X0Y1107D02*
X2877Y1107D01*
X2986Y1107D02*
X3093Y1107D01*
X3203Y1107D02*
X3204Y1107D01*
X0Y1106D02*
X2877Y1106D01*
X2986Y1106D02*
X3093Y1106D01*
X3203Y1106D02*
X3204Y1106D01*
X0Y1105D02*
X2877Y1105D01*
X2986Y1105D02*
X3093Y1105D01*
X3203Y1105D02*
X3204Y1105D01*
X0Y1104D02*
X7Y1104D01*
X3203Y1104D02*
X3204Y1104D01*
X0Y1103D02*
X7Y1103D01*
X3203Y1103D02*
X3204Y1103D01*
X0Y1102D02*
X7Y1102D01*
X3203Y1102D02*
X3204Y1102D01*
X0Y1101D02*
X7Y1101D01*
X3203Y1101D02*
X3204Y1101D01*
X0Y1100D02*
X7Y1100D01*
X3203Y1100D02*
X3204Y1100D01*
X0Y1099D02*
X7Y1099D01*
X3203Y1099D02*
X3204Y1099D01*
X0Y1098D02*
X7Y1098D01*
X3203Y1098D02*
X3204Y1098D01*
X0Y1097D02*
X7Y1097D01*
X3203Y1097D02*
X3204Y1097D01*
X0Y1096D02*
X7Y1096D01*
X3203Y1096D02*
X3204Y1096D01*
X0Y1095D02*
X7Y1095D01*
X3203Y1095D02*
X3204Y1095D01*
X0Y1094D02*
X7Y1094D01*
X3203Y1094D02*
X3204Y1094D01*
X0Y1093D02*
X7Y1093D01*
X3203Y1093D02*
X3204Y1093D01*
X0Y1092D02*
X7Y1092D01*
X3203Y1092D02*
X3204Y1092D01*
X0Y1091D02*
X7Y1091D01*
X3203Y1091D02*
X3204Y1091D01*
X0Y1090D02*
X7Y1090D01*
X3203Y1090D02*
X3204Y1090D01*
X0Y1089D02*
X7Y1089D01*
X3203Y1089D02*
X3204Y1089D01*
X0Y1088D02*
X7Y1088D01*
X3203Y1088D02*
X3204Y1088D01*
X0Y1087D02*
X7Y1087D01*
X3203Y1087D02*
X3204Y1087D01*
X0Y1086D02*
X7Y1086D01*
X3203Y1086D02*
X3204Y1086D01*
X0Y1085D02*
X7Y1085D01*
X3203Y1085D02*
X3204Y1085D01*
X0Y1084D02*
X7Y1084D01*
X3203Y1084D02*
X3204Y1084D01*
X0Y1083D02*
X7Y1083D01*
X3203Y1083D02*
X3204Y1083D01*
X0Y1082D02*
X7Y1082D01*
X3203Y1082D02*
X3204Y1082D01*
X0Y1081D02*
X7Y1081D01*
X3203Y1081D02*
X3204Y1081D01*
X0Y1080D02*
X7Y1080D01*
X3203Y1080D02*
X3204Y1080D01*
X0Y1079D02*
X7Y1079D01*
X3203Y1079D02*
X3204Y1079D01*
X0Y1078D02*
X7Y1078D01*
X3203Y1078D02*
X3204Y1078D01*
X0Y1077D02*
X7Y1077D01*
X3203Y1077D02*
X3204Y1077D01*
X0Y1076D02*
X7Y1076D01*
X3203Y1076D02*
X3204Y1076D01*
X0Y1075D02*
X7Y1075D01*
X3203Y1075D02*
X3204Y1075D01*
X0Y1074D02*
X7Y1074D01*
X3203Y1074D02*
X3204Y1074D01*
X0Y1073D02*
X7Y1073D01*
X3203Y1073D02*
X3204Y1073D01*
X0Y1072D02*
X7Y1072D01*
X3203Y1072D02*
X3204Y1072D01*
X0Y1071D02*
X7Y1071D01*
X3203Y1071D02*
X3204Y1071D01*
X0Y1070D02*
X7Y1070D01*
X3203Y1070D02*
X3204Y1070D01*
X0Y1069D02*
X7Y1069D01*
X2705Y1069D02*
X2732Y1069D01*
X2757Y1069D02*
X2775Y1069D01*
X3203Y1069D02*
X3204Y1069D01*
X0Y1068D02*
X7Y1068D01*
X2705Y1068D02*
X2734Y1068D01*
X2756Y1068D02*
X2775Y1068D01*
X3203Y1068D02*
X3204Y1068D01*
X0Y1067D02*
X7Y1067D01*
X2705Y1067D02*
X2735Y1067D01*
X2755Y1067D02*
X2775Y1067D01*
X3203Y1067D02*
X3204Y1067D01*
X0Y1066D02*
X7Y1066D01*
X2705Y1066D02*
X2736Y1066D01*
X2755Y1066D02*
X2775Y1066D01*
X3203Y1066D02*
X3204Y1066D01*
X0Y1065D02*
X7Y1065D01*
X2705Y1065D02*
X2737Y1065D01*
X2755Y1065D02*
X2775Y1065D01*
X3203Y1065D02*
X3204Y1065D01*
X0Y1064D02*
X7Y1064D01*
X2705Y1064D02*
X2738Y1064D01*
X2756Y1064D02*
X2775Y1064D01*
X3203Y1064D02*
X3204Y1064D01*
X0Y1063D02*
X7Y1063D01*
X2705Y1063D02*
X2738Y1063D01*
X2757Y1063D02*
X2775Y1063D01*
X3203Y1063D02*
X3204Y1063D01*
X0Y1062D02*
X7Y1062D01*
X2705Y1062D02*
X2711Y1062D01*
X2731Y1062D02*
X2738Y1062D01*
X2769Y1062D02*
X2775Y1062D01*
X3203Y1062D02*
X3204Y1062D01*
X0Y1061D02*
X7Y1061D01*
X2705Y1061D02*
X2711Y1061D01*
X2732Y1061D02*
X2739Y1061D01*
X2769Y1061D02*
X2775Y1061D01*
X3203Y1061D02*
X3204Y1061D01*
X0Y1060D02*
X7Y1060D01*
X2705Y1060D02*
X2711Y1060D01*
X2733Y1060D02*
X2739Y1060D01*
X2769Y1060D02*
X2775Y1060D01*
X3203Y1060D02*
X3204Y1060D01*
X0Y1059D02*
X7Y1059D01*
X2705Y1059D02*
X2711Y1059D01*
X2733Y1059D02*
X2739Y1059D01*
X2769Y1059D02*
X2775Y1059D01*
X3203Y1059D02*
X3204Y1059D01*
X0Y1058D02*
X7Y1058D01*
X2705Y1058D02*
X2711Y1058D01*
X2733Y1058D02*
X2739Y1058D01*
X2769Y1058D02*
X2775Y1058D01*
X3203Y1058D02*
X3204Y1058D01*
X0Y1057D02*
X7Y1057D01*
X2705Y1057D02*
X2711Y1057D01*
X2733Y1057D02*
X2739Y1057D01*
X2769Y1057D02*
X2775Y1057D01*
X3203Y1057D02*
X3204Y1057D01*
X0Y1056D02*
X7Y1056D01*
X2705Y1056D02*
X2711Y1056D01*
X2733Y1056D02*
X2739Y1056D01*
X2769Y1056D02*
X2775Y1056D01*
X3203Y1056D02*
X3204Y1056D01*
X0Y1055D02*
X7Y1055D01*
X2705Y1055D02*
X2711Y1055D01*
X2733Y1055D02*
X2739Y1055D01*
X2769Y1055D02*
X2775Y1055D01*
X3203Y1055D02*
X3204Y1055D01*
X0Y1054D02*
X7Y1054D01*
X2705Y1054D02*
X2711Y1054D01*
X2732Y1054D02*
X2739Y1054D01*
X2769Y1054D02*
X2775Y1054D01*
X3203Y1054D02*
X3204Y1054D01*
X0Y1053D02*
X7Y1053D01*
X2705Y1053D02*
X2711Y1053D01*
X2732Y1053D02*
X2739Y1053D01*
X2769Y1053D02*
X2775Y1053D01*
X3203Y1053D02*
X3204Y1053D01*
X0Y1052D02*
X7Y1052D01*
X2705Y1052D02*
X2712Y1052D01*
X2730Y1052D02*
X2738Y1052D01*
X2769Y1052D02*
X2775Y1052D01*
X3203Y1052D02*
X3204Y1052D01*
X0Y1051D02*
X7Y1051D01*
X2705Y1051D02*
X2738Y1051D01*
X2769Y1051D02*
X2775Y1051D01*
X3203Y1051D02*
X3204Y1051D01*
X0Y1050D02*
X7Y1050D01*
X2705Y1050D02*
X2737Y1050D01*
X2769Y1050D02*
X2775Y1050D01*
X3203Y1050D02*
X3204Y1050D01*
X0Y1049D02*
X7Y1049D01*
X2705Y1049D02*
X2736Y1049D01*
X2769Y1049D02*
X2775Y1049D01*
X3203Y1049D02*
X3204Y1049D01*
X0Y1048D02*
X7Y1048D01*
X2705Y1048D02*
X2736Y1048D01*
X2769Y1048D02*
X2775Y1048D01*
X3203Y1048D02*
X3204Y1048D01*
X0Y1047D02*
X7Y1047D01*
X2705Y1047D02*
X2734Y1047D01*
X2769Y1047D02*
X2775Y1047D01*
X3203Y1047D02*
X3204Y1047D01*
X0Y1046D02*
X7Y1046D01*
X2705Y1046D02*
X2733Y1046D01*
X2769Y1046D02*
X2775Y1046D01*
X3203Y1046D02*
X3204Y1046D01*
X0Y1045D02*
X7Y1045D01*
X2705Y1045D02*
X2729Y1045D01*
X2769Y1045D02*
X2775Y1045D01*
X3203Y1045D02*
X3204Y1045D01*
X0Y1044D02*
X7Y1044D01*
X2705Y1044D02*
X2711Y1044D01*
X2718Y1044D02*
X2725Y1044D01*
X2769Y1044D02*
X2775Y1044D01*
X3203Y1044D02*
X3204Y1044D01*
X0Y1043D02*
X7Y1043D01*
X2705Y1043D02*
X2711Y1043D01*
X2718Y1043D02*
X2725Y1043D01*
X2769Y1043D02*
X2775Y1043D01*
X3203Y1043D02*
X3204Y1043D01*
X0Y1042D02*
X7Y1042D01*
X2705Y1042D02*
X2711Y1042D01*
X2719Y1042D02*
X2726Y1042D01*
X2769Y1042D02*
X2775Y1042D01*
X3203Y1042D02*
X3204Y1042D01*
X0Y1041D02*
X7Y1041D01*
X2705Y1041D02*
X2711Y1041D01*
X2719Y1041D02*
X2727Y1041D01*
X2769Y1041D02*
X2775Y1041D01*
X3203Y1041D02*
X3204Y1041D01*
X0Y1040D02*
X7Y1040D01*
X2705Y1040D02*
X2711Y1040D01*
X2720Y1040D02*
X2727Y1040D01*
X2769Y1040D02*
X2775Y1040D01*
X2785Y1040D02*
X2786Y1040D01*
X3203Y1040D02*
X3204Y1040D01*
X0Y1039D02*
X7Y1039D01*
X2705Y1039D02*
X2711Y1039D01*
X2721Y1039D02*
X2728Y1039D01*
X2769Y1039D02*
X2775Y1039D01*
X2784Y1039D02*
X2788Y1039D01*
X3203Y1039D02*
X3204Y1039D01*
X0Y1038D02*
X7Y1038D01*
X2705Y1038D02*
X2711Y1038D01*
X2721Y1038D02*
X2728Y1038D01*
X2769Y1038D02*
X2775Y1038D01*
X2783Y1038D02*
X2789Y1038D01*
X3203Y1038D02*
X3204Y1038D01*
X0Y1037D02*
X7Y1037D01*
X2705Y1037D02*
X2711Y1037D01*
X2722Y1037D02*
X2729Y1037D01*
X2769Y1037D02*
X2775Y1037D01*
X2783Y1037D02*
X2789Y1037D01*
X3203Y1037D02*
X3204Y1037D01*
X0Y1036D02*
X7Y1036D01*
X2705Y1036D02*
X2711Y1036D01*
X2722Y1036D02*
X2729Y1036D01*
X2769Y1036D02*
X2775Y1036D01*
X2783Y1036D02*
X2789Y1036D01*
X3203Y1036D02*
X3204Y1036D01*
X0Y1035D02*
X7Y1035D01*
X2705Y1035D02*
X2711Y1035D01*
X2723Y1035D02*
X2730Y1035D01*
X2769Y1035D02*
X2775Y1035D01*
X2783Y1035D02*
X2789Y1035D01*
X3203Y1035D02*
X3204Y1035D01*
X0Y1034D02*
X7Y1034D01*
X2705Y1034D02*
X2711Y1034D01*
X2723Y1034D02*
X2731Y1034D01*
X2769Y1034D02*
X2775Y1034D01*
X2783Y1034D02*
X2789Y1034D01*
X3203Y1034D02*
X3204Y1034D01*
X0Y1033D02*
X7Y1033D01*
X2705Y1033D02*
X2711Y1033D01*
X2724Y1033D02*
X2731Y1033D01*
X2769Y1033D02*
X2775Y1033D01*
X2783Y1033D02*
X2789Y1033D01*
X3197Y1033D02*
X3204Y1033D01*
X0Y1032D02*
X7Y1032D01*
X2705Y1032D02*
X2711Y1032D01*
X2725Y1032D02*
X2732Y1032D01*
X2769Y1032D02*
X2775Y1032D01*
X2783Y1032D02*
X2789Y1032D01*
X3197Y1032D02*
X3204Y1032D01*
X0Y1031D02*
X7Y1031D01*
X2705Y1031D02*
X2711Y1031D01*
X2725Y1031D02*
X2732Y1031D01*
X2769Y1031D02*
X2775Y1031D01*
X2783Y1031D02*
X2789Y1031D01*
X3197Y1031D02*
X3204Y1031D01*
X0Y1030D02*
X7Y1030D01*
X2705Y1030D02*
X2711Y1030D01*
X2726Y1030D02*
X2733Y1030D01*
X2769Y1030D02*
X2775Y1030D01*
X2783Y1030D02*
X2789Y1030D01*
X3197Y1030D02*
X3204Y1030D01*
X0Y1029D02*
X7Y1029D01*
X2705Y1029D02*
X2711Y1029D01*
X2726Y1029D02*
X2734Y1029D01*
X2769Y1029D02*
X2775Y1029D01*
X2783Y1029D02*
X2789Y1029D01*
X3197Y1029D02*
X3204Y1029D01*
X0Y1028D02*
X7Y1028D01*
X2705Y1028D02*
X2711Y1028D01*
X2727Y1028D02*
X2734Y1028D01*
X2769Y1028D02*
X2775Y1028D01*
X2783Y1028D02*
X2789Y1028D01*
X3197Y1028D02*
X3204Y1028D01*
X0Y1027D02*
X7Y1027D01*
X2705Y1027D02*
X2711Y1027D01*
X2728Y1027D02*
X2735Y1027D01*
X2769Y1027D02*
X2775Y1027D01*
X2783Y1027D02*
X2789Y1027D01*
X3197Y1027D02*
X3204Y1027D01*
X0Y1026D02*
X7Y1026D01*
X2705Y1026D02*
X2711Y1026D01*
X2728Y1026D02*
X2735Y1026D01*
X2769Y1026D02*
X2775Y1026D01*
X2783Y1026D02*
X2789Y1026D01*
X3197Y1026D02*
X3204Y1026D01*
X0Y1025D02*
X7Y1025D01*
X2705Y1025D02*
X2711Y1025D01*
X2729Y1025D02*
X2736Y1025D01*
X2769Y1025D02*
X2775Y1025D01*
X2783Y1025D02*
X2789Y1025D01*
X3197Y1025D02*
X3204Y1025D01*
X0Y1024D02*
X7Y1024D01*
X2705Y1024D02*
X2711Y1024D01*
X2729Y1024D02*
X2736Y1024D01*
X2769Y1024D02*
X2775Y1024D01*
X2783Y1024D02*
X2789Y1024D01*
X3197Y1024D02*
X3204Y1024D01*
X0Y1023D02*
X7Y1023D01*
X2705Y1023D02*
X2711Y1023D01*
X2730Y1023D02*
X2737Y1023D01*
X2769Y1023D02*
X2775Y1023D01*
X2783Y1023D02*
X2789Y1023D01*
X3197Y1023D02*
X3204Y1023D01*
X0Y1022D02*
X7Y1022D01*
X2705Y1022D02*
X2711Y1022D01*
X2730Y1022D02*
X2738Y1022D01*
X2757Y1022D02*
X2789Y1022D01*
X3197Y1022D02*
X3204Y1022D01*
X0Y1021D02*
X7Y1021D01*
X2705Y1021D02*
X2711Y1021D01*
X2731Y1021D02*
X2738Y1021D01*
X2756Y1021D02*
X2789Y1021D01*
X3197Y1021D02*
X3204Y1021D01*
X0Y1020D02*
X7Y1020D01*
X2705Y1020D02*
X2711Y1020D01*
X2732Y1020D02*
X2739Y1020D01*
X2755Y1020D02*
X2789Y1020D01*
X3197Y1020D02*
X3204Y1020D01*
X0Y1019D02*
X7Y1019D01*
X2705Y1019D02*
X2711Y1019D01*
X2732Y1019D02*
X2739Y1019D01*
X2755Y1019D02*
X2789Y1019D01*
X3197Y1019D02*
X3204Y1019D01*
X0Y1018D02*
X7Y1018D01*
X2705Y1018D02*
X2711Y1018D01*
X2733Y1018D02*
X2739Y1018D01*
X2755Y1018D02*
X2789Y1018D01*
X3197Y1018D02*
X3204Y1018D01*
X0Y1017D02*
X7Y1017D01*
X2706Y1017D02*
X2711Y1017D01*
X2733Y1017D02*
X2738Y1017D01*
X2756Y1017D02*
X2788Y1017D01*
X3197Y1017D02*
X3204Y1017D01*
X0Y1016D02*
X7Y1016D01*
X2707Y1016D02*
X2709Y1016D01*
X2735Y1016D02*
X2737Y1016D01*
X2757Y1016D02*
X2787Y1016D01*
X3197Y1016D02*
X3204Y1016D01*
X0Y1015D02*
X7Y1015D01*
X3197Y1015D02*
X3204Y1015D01*
X0Y1014D02*
X7Y1014D01*
X3197Y1014D02*
X3204Y1014D01*
X0Y1013D02*
X7Y1013D01*
X3197Y1013D02*
X3204Y1013D01*
X0Y1012D02*
X7Y1012D01*
X3197Y1012D02*
X3204Y1012D01*
X0Y1011D02*
X7Y1011D01*
X3197Y1011D02*
X3204Y1011D01*
X0Y1010D02*
X7Y1010D01*
X3197Y1010D02*
X3204Y1010D01*
X0Y1009D02*
X7Y1009D01*
X3197Y1009D02*
X3204Y1009D01*
X0Y1008D02*
X7Y1008D01*
X3197Y1008D02*
X3204Y1008D01*
X0Y1007D02*
X7Y1007D01*
X3197Y1007D02*
X3204Y1007D01*
X0Y1006D02*
X7Y1006D01*
X3197Y1006D02*
X3204Y1006D01*
X0Y1005D02*
X7Y1005D01*
X3197Y1005D02*
X3204Y1005D01*
X0Y1004D02*
X7Y1004D01*
X3197Y1004D02*
X3204Y1004D01*
X0Y1003D02*
X7Y1003D01*
X3197Y1003D02*
X3204Y1003D01*
X0Y1002D02*
X7Y1002D01*
X3197Y1002D02*
X3204Y1002D01*
X0Y1001D02*
X7Y1001D01*
X3197Y1001D02*
X3204Y1001D01*
X0Y1000D02*
X7Y1000D01*
X3197Y1000D02*
X3204Y1000D01*
X0Y999D02*
X7Y999D01*
X3197Y999D02*
X3204Y999D01*
X0Y998D02*
X7Y998D01*
X3197Y998D02*
X3204Y998D01*
X0Y997D02*
X7Y997D01*
X3197Y997D02*
X3204Y997D01*
X0Y996D02*
X7Y996D01*
X3197Y996D02*
X3204Y996D01*
X0Y995D02*
X7Y995D01*
X3197Y995D02*
X3204Y995D01*
X0Y994D02*
X7Y994D01*
X3197Y994D02*
X3204Y994D01*
X0Y993D02*
X7Y993D01*
X3197Y993D02*
X3204Y993D01*
X0Y992D02*
X7Y992D01*
X3197Y992D02*
X3204Y992D01*
X0Y991D02*
X7Y991D01*
X3197Y991D02*
X3204Y991D01*
X0Y990D02*
X7Y990D01*
X3197Y990D02*
X3204Y990D01*
X0Y989D02*
X7Y989D01*
X3197Y989D02*
X3204Y989D01*
X0Y988D02*
X7Y988D01*
X3197Y988D02*
X3204Y988D01*
X0Y987D02*
X7Y987D01*
X3197Y987D02*
X3204Y987D01*
X0Y986D02*
X7Y986D01*
X3197Y986D02*
X3204Y986D01*
X0Y985D02*
X7Y985D01*
X3197Y985D02*
X3204Y985D01*
X0Y984D02*
X7Y984D01*
X3197Y984D02*
X3204Y984D01*
X0Y983D02*
X7Y983D01*
X3197Y983D02*
X3204Y983D01*
X0Y982D02*
X7Y982D01*
X3197Y982D02*
X3204Y982D01*
X0Y981D02*
X7Y981D01*
X3197Y981D02*
X3204Y981D01*
X0Y980D02*
X7Y980D01*
X3197Y980D02*
X3204Y980D01*
X0Y979D02*
X7Y979D01*
X3197Y979D02*
X3204Y979D01*
X0Y978D02*
X7Y978D01*
X3197Y978D02*
X3204Y978D01*
X0Y977D02*
X7Y977D01*
X3197Y977D02*
X3204Y977D01*
X0Y976D02*
X7Y976D01*
X3197Y976D02*
X3204Y976D01*
X0Y975D02*
X7Y975D01*
X3197Y975D02*
X3204Y975D01*
X0Y974D02*
X7Y974D01*
X3197Y974D02*
X3204Y974D01*
X0Y973D02*
X7Y973D01*
X3197Y973D02*
X3204Y973D01*
X0Y972D02*
X7Y972D01*
X3197Y972D02*
X3204Y972D01*
X0Y971D02*
X7Y971D01*
X3197Y971D02*
X3204Y971D01*
X0Y970D02*
X7Y970D01*
X3197Y970D02*
X3204Y970D01*
X0Y969D02*
X7Y969D01*
X3197Y969D02*
X3204Y969D01*
X0Y968D02*
X7Y968D01*
X3197Y968D02*
X3204Y968D01*
X0Y967D02*
X7Y967D01*
X3197Y967D02*
X3204Y967D01*
X0Y966D02*
X7Y966D01*
X3197Y966D02*
X3204Y966D01*
X0Y965D02*
X7Y965D01*
X3197Y965D02*
X3204Y965D01*
X0Y964D02*
X7Y964D01*
X3197Y964D02*
X3204Y964D01*
X0Y963D02*
X7Y963D01*
X3197Y963D02*
X3204Y963D01*
X0Y962D02*
X7Y962D01*
X3197Y962D02*
X3204Y962D01*
X0Y961D02*
X7Y961D01*
X3197Y961D02*
X3204Y961D01*
X0Y960D02*
X7Y960D01*
X3197Y960D02*
X3204Y960D01*
X0Y959D02*
X7Y959D01*
X3197Y959D02*
X3204Y959D01*
X0Y958D02*
X7Y958D01*
X3197Y958D02*
X3204Y958D01*
X0Y957D02*
X7Y957D01*
X3197Y957D02*
X3204Y957D01*
X0Y956D02*
X7Y956D01*
X3197Y956D02*
X3204Y956D01*
X0Y955D02*
X7Y955D01*
X3197Y955D02*
X3204Y955D01*
X0Y954D02*
X7Y954D01*
X3197Y954D02*
X3204Y954D01*
X0Y953D02*
X7Y953D01*
X3197Y953D02*
X3204Y953D01*
X0Y952D02*
X7Y952D01*
X3197Y952D02*
X3204Y952D01*
X0Y951D02*
X7Y951D01*
X3197Y951D02*
X3204Y951D01*
X0Y950D02*
X7Y950D01*
X3197Y950D02*
X3204Y950D01*
X0Y949D02*
X7Y949D01*
X3197Y949D02*
X3204Y949D01*
X0Y948D02*
X7Y948D01*
X3197Y948D02*
X3204Y948D01*
X0Y947D02*
X7Y947D01*
X3197Y947D02*
X3204Y947D01*
X0Y946D02*
X7Y946D01*
X3197Y946D02*
X3204Y946D01*
X0Y945D02*
X7Y945D01*
X3197Y945D02*
X3204Y945D01*
X0Y944D02*
X7Y944D01*
X3197Y944D02*
X3204Y944D01*
X0Y943D02*
X7Y943D01*
X3197Y943D02*
X3204Y943D01*
X0Y942D02*
X7Y942D01*
X3197Y942D02*
X3204Y942D01*
X0Y941D02*
X7Y941D01*
X3197Y941D02*
X3204Y941D01*
X0Y940D02*
X7Y940D01*
X3197Y940D02*
X3204Y940D01*
X0Y939D02*
X7Y939D01*
X3197Y939D02*
X3204Y939D01*
X0Y938D02*
X7Y938D01*
X3197Y938D02*
X3204Y938D01*
X0Y937D02*
X7Y937D01*
X3197Y937D02*
X3204Y937D01*
X0Y936D02*
X7Y936D01*
X3197Y936D02*
X3204Y936D01*
X0Y935D02*
X7Y935D01*
X3197Y935D02*
X3204Y935D01*
X0Y934D02*
X7Y934D01*
X3197Y934D02*
X3204Y934D01*
X0Y933D02*
X7Y933D01*
X2248Y933D02*
X2322Y933D01*
X3197Y933D02*
X3204Y933D01*
X0Y932D02*
X7Y932D01*
X2303Y932D02*
X2322Y932D01*
X3197Y932D02*
X3204Y932D01*
X0Y931D02*
X7Y931D01*
X2303Y931D02*
X2322Y931D01*
X3197Y931D02*
X3204Y931D01*
X0Y930D02*
X7Y930D01*
X2303Y930D02*
X2322Y930D01*
X3197Y930D02*
X3204Y930D01*
X0Y929D02*
X7Y929D01*
X2303Y929D02*
X2322Y929D01*
X3197Y929D02*
X3204Y929D01*
X0Y928D02*
X7Y928D01*
X2303Y928D02*
X2322Y928D01*
X3197Y928D02*
X3204Y928D01*
X0Y927D02*
X7Y927D01*
X2303Y927D02*
X2322Y927D01*
X3197Y927D02*
X3204Y927D01*
X0Y926D02*
X7Y926D01*
X2303Y926D02*
X2322Y926D01*
X3197Y926D02*
X3204Y926D01*
X0Y925D02*
X7Y925D01*
X2303Y925D02*
X2322Y925D01*
X3197Y925D02*
X3204Y925D01*
X0Y924D02*
X7Y924D01*
X2303Y924D02*
X2322Y924D01*
X3197Y924D02*
X3204Y924D01*
X0Y923D02*
X7Y923D01*
X2303Y923D02*
X2322Y923D01*
X3197Y923D02*
X3204Y923D01*
X0Y922D02*
X7Y922D01*
X2303Y922D02*
X2322Y922D01*
X3197Y922D02*
X3204Y922D01*
X0Y921D02*
X7Y921D01*
X3197Y921D02*
X3204Y921D01*
X0Y920D02*
X7Y920D01*
X3197Y920D02*
X3204Y920D01*
X0Y919D02*
X7Y919D01*
X3197Y919D02*
X3204Y919D01*
X0Y918D02*
X7Y918D01*
X3197Y918D02*
X3204Y918D01*
X0Y917D02*
X7Y917D01*
X3197Y917D02*
X3204Y917D01*
X0Y916D02*
X7Y916D01*
X3197Y916D02*
X3204Y916D01*
X0Y915D02*
X7Y915D01*
X3197Y915D02*
X3204Y915D01*
X0Y914D02*
X7Y914D01*
X3197Y914D02*
X3204Y914D01*
X0Y913D02*
X7Y913D01*
X3197Y913D02*
X3204Y913D01*
X0Y912D02*
X7Y912D01*
X3197Y912D02*
X3204Y912D01*
X0Y911D02*
X7Y911D01*
X3197Y911D02*
X3204Y911D01*
X0Y910D02*
X7Y910D01*
X3197Y910D02*
X3204Y910D01*
X0Y909D02*
X7Y909D01*
X3197Y909D02*
X3204Y909D01*
X0Y908D02*
X7Y908D01*
X3197Y908D02*
X3204Y908D01*
X0Y907D02*
X7Y907D01*
X3197Y907D02*
X3204Y907D01*
X0Y906D02*
X7Y906D01*
X3197Y906D02*
X3204Y906D01*
X0Y905D02*
X7Y905D01*
X2602Y905D02*
X2603Y905D01*
X3197Y905D02*
X3204Y905D01*
X0Y904D02*
X7Y904D01*
X2600Y904D02*
X2604Y904D01*
X3197Y904D02*
X3204Y904D01*
X0Y903D02*
X7Y903D01*
X2599Y903D02*
X2605Y903D01*
X3197Y903D02*
X3204Y903D01*
X0Y902D02*
X7Y902D01*
X2597Y902D02*
X2605Y902D01*
X3197Y902D02*
X3204Y902D01*
X0Y901D02*
X7Y901D01*
X2596Y901D02*
X2606Y901D01*
X3197Y901D02*
X3204Y901D01*
X0Y900D02*
X7Y900D01*
X2594Y900D02*
X2607Y900D01*
X3197Y900D02*
X3204Y900D01*
X0Y899D02*
X7Y899D01*
X2594Y899D02*
X2607Y899D01*
X3197Y899D02*
X3204Y899D01*
X0Y898D02*
X7Y898D01*
X2594Y898D02*
X2608Y898D01*
X3197Y898D02*
X3204Y898D01*
X0Y897D02*
X7Y897D01*
X2595Y897D02*
X2609Y897D01*
X3197Y897D02*
X3204Y897D01*
X0Y896D02*
X7Y896D01*
X2596Y896D02*
X2609Y896D01*
X3197Y896D02*
X3204Y896D01*
X0Y895D02*
X7Y895D01*
X2596Y895D02*
X2610Y895D01*
X3197Y895D02*
X3204Y895D01*
X0Y894D02*
X7Y894D01*
X2597Y894D02*
X2611Y894D01*
X3197Y894D02*
X3204Y894D01*
X0Y893D02*
X7Y893D01*
X2598Y893D02*
X2611Y893D01*
X3197Y893D02*
X3204Y893D01*
X0Y892D02*
X7Y892D01*
X2598Y892D02*
X2612Y892D01*
X3197Y892D02*
X3204Y892D01*
X0Y891D02*
X7Y891D01*
X2599Y891D02*
X2613Y891D01*
X3197Y891D02*
X3204Y891D01*
X0Y890D02*
X7Y890D01*
X2600Y890D02*
X2613Y890D01*
X3197Y890D02*
X3204Y890D01*
X0Y889D02*
X7Y889D01*
X2600Y889D02*
X2614Y889D01*
X3197Y889D02*
X3204Y889D01*
X0Y888D02*
X7Y888D01*
X2601Y888D02*
X2615Y888D01*
X3197Y888D02*
X3204Y888D01*
X0Y887D02*
X7Y887D01*
X2602Y887D02*
X2615Y887D01*
X3197Y887D02*
X3204Y887D01*
X0Y886D02*
X7Y886D01*
X2602Y886D02*
X2616Y886D01*
X3197Y886D02*
X3204Y886D01*
X0Y885D02*
X7Y885D01*
X2603Y885D02*
X2617Y885D01*
X3197Y885D02*
X3204Y885D01*
X0Y884D02*
X7Y884D01*
X2604Y884D02*
X2617Y884D01*
X3197Y884D02*
X3204Y884D01*
X0Y883D02*
X7Y883D01*
X2604Y883D02*
X2618Y883D01*
X3197Y883D02*
X3204Y883D01*
X0Y882D02*
X7Y882D01*
X2605Y882D02*
X2619Y882D01*
X3197Y882D02*
X3204Y882D01*
X0Y881D02*
X7Y881D01*
X2606Y881D02*
X2619Y881D01*
X3197Y881D02*
X3204Y881D01*
X0Y880D02*
X7Y880D01*
X2606Y880D02*
X2620Y880D01*
X3197Y880D02*
X3204Y880D01*
X0Y879D02*
X7Y879D01*
X2607Y879D02*
X2621Y879D01*
X3197Y879D02*
X3204Y879D01*
X0Y878D02*
X7Y878D01*
X2608Y878D02*
X2621Y878D01*
X3197Y878D02*
X3204Y878D01*
X0Y877D02*
X7Y877D01*
X2608Y877D02*
X2622Y877D01*
X3197Y877D02*
X3204Y877D01*
X0Y876D02*
X7Y876D01*
X2609Y876D02*
X2623Y876D01*
X3197Y876D02*
X3204Y876D01*
X0Y875D02*
X7Y875D01*
X2610Y875D02*
X2623Y875D01*
X3197Y875D02*
X3204Y875D01*
X0Y874D02*
X7Y874D01*
X2610Y874D02*
X2624Y874D01*
X3197Y874D02*
X3204Y874D01*
X0Y873D02*
X7Y873D01*
X2611Y873D02*
X2625Y873D01*
X3197Y873D02*
X3204Y873D01*
X0Y872D02*
X7Y872D01*
X2612Y872D02*
X2625Y872D01*
X3197Y872D02*
X3204Y872D01*
X0Y871D02*
X7Y871D01*
X2612Y871D02*
X2626Y871D01*
X3197Y871D02*
X3204Y871D01*
X0Y870D02*
X7Y870D01*
X2613Y870D02*
X2627Y870D01*
X3197Y870D02*
X3204Y870D01*
X0Y869D02*
X7Y869D01*
X2614Y869D02*
X2627Y869D01*
X3197Y869D02*
X3204Y869D01*
X0Y868D02*
X7Y868D01*
X2614Y868D02*
X2628Y868D01*
X3197Y868D02*
X3204Y868D01*
X0Y867D02*
X7Y867D01*
X2615Y867D02*
X2629Y867D01*
X3197Y867D02*
X3204Y867D01*
X0Y866D02*
X7Y866D01*
X2616Y866D02*
X2629Y866D01*
X3197Y866D02*
X3204Y866D01*
X0Y865D02*
X7Y865D01*
X2616Y865D02*
X2630Y865D01*
X3197Y865D02*
X3204Y865D01*
X0Y864D02*
X7Y864D01*
X2617Y864D02*
X2631Y864D01*
X3197Y864D02*
X3204Y864D01*
X0Y863D02*
X7Y863D01*
X2618Y863D02*
X2631Y863D01*
X3197Y863D02*
X3204Y863D01*
X0Y862D02*
X7Y862D01*
X2618Y862D02*
X2632Y862D01*
X3197Y862D02*
X3204Y862D01*
X0Y861D02*
X7Y861D01*
X2619Y861D02*
X2633Y861D01*
X3197Y861D02*
X3204Y861D01*
X0Y860D02*
X7Y860D01*
X2620Y860D02*
X2633Y860D01*
X3197Y860D02*
X3204Y860D01*
X0Y859D02*
X7Y859D01*
X2620Y859D02*
X2634Y859D01*
X3197Y859D02*
X3204Y859D01*
X0Y858D02*
X7Y858D01*
X2621Y858D02*
X2635Y858D01*
X3197Y858D02*
X3204Y858D01*
X0Y857D02*
X7Y857D01*
X2622Y857D02*
X2635Y857D01*
X3197Y857D02*
X3204Y857D01*
X0Y856D02*
X7Y856D01*
X2622Y856D02*
X2636Y856D01*
X3197Y856D02*
X3204Y856D01*
X0Y855D02*
X7Y855D01*
X2623Y855D02*
X2637Y855D01*
X3197Y855D02*
X3204Y855D01*
X0Y854D02*
X7Y854D01*
X2624Y854D02*
X2637Y854D01*
X3197Y854D02*
X3204Y854D01*
X0Y853D02*
X7Y853D01*
X2624Y853D02*
X2638Y853D01*
X3197Y853D02*
X3204Y853D01*
X0Y852D02*
X7Y852D01*
X2625Y852D02*
X2639Y852D01*
X3197Y852D02*
X3204Y852D01*
X0Y851D02*
X7Y851D01*
X2626Y851D02*
X2639Y851D01*
X3197Y851D02*
X3204Y851D01*
X0Y850D02*
X7Y850D01*
X2626Y850D02*
X2640Y850D01*
X3197Y850D02*
X3204Y850D01*
X0Y849D02*
X7Y849D01*
X2627Y849D02*
X2641Y849D01*
X3197Y849D02*
X3204Y849D01*
X0Y848D02*
X7Y848D01*
X2628Y848D02*
X2641Y848D01*
X3197Y848D02*
X3204Y848D01*
X0Y847D02*
X7Y847D01*
X2628Y847D02*
X2642Y847D01*
X3197Y847D02*
X3204Y847D01*
X0Y846D02*
X7Y846D01*
X2629Y846D02*
X2643Y846D01*
X3197Y846D02*
X3204Y846D01*
X0Y845D02*
X7Y845D01*
X2630Y845D02*
X2643Y845D01*
X3197Y845D02*
X3204Y845D01*
X0Y844D02*
X7Y844D01*
X2630Y844D02*
X2644Y844D01*
X3197Y844D02*
X3204Y844D01*
X0Y843D02*
X7Y843D01*
X2631Y843D02*
X2645Y843D01*
X3197Y843D02*
X3204Y843D01*
X0Y842D02*
X7Y842D01*
X2632Y842D02*
X2645Y842D01*
X3197Y842D02*
X3204Y842D01*
X0Y841D02*
X7Y841D01*
X2632Y841D02*
X2646Y841D01*
X3197Y841D02*
X3204Y841D01*
X0Y840D02*
X7Y840D01*
X2633Y840D02*
X2647Y840D01*
X3197Y840D02*
X3204Y840D01*
X0Y839D02*
X7Y839D01*
X2634Y839D02*
X2647Y839D01*
X3197Y839D02*
X3204Y839D01*
X0Y838D02*
X7Y838D01*
X2634Y838D02*
X2648Y838D01*
X3197Y838D02*
X3204Y838D01*
X0Y837D02*
X7Y837D01*
X2635Y837D02*
X2649Y837D01*
X3197Y837D02*
X3204Y837D01*
X0Y836D02*
X7Y836D01*
X2636Y836D02*
X2649Y836D01*
X3197Y836D02*
X3204Y836D01*
X0Y835D02*
X7Y835D01*
X2636Y835D02*
X2650Y835D01*
X3197Y835D02*
X3204Y835D01*
X0Y834D02*
X7Y834D01*
X2637Y834D02*
X2651Y834D01*
X3197Y834D02*
X3204Y834D01*
X0Y833D02*
X7Y833D01*
X2638Y833D02*
X2651Y833D01*
X3197Y833D02*
X3204Y833D01*
X0Y832D02*
X7Y832D01*
X2638Y832D02*
X2641Y832D01*
X3197Y832D02*
X3204Y832D01*
X0Y831D02*
X7Y831D01*
X3197Y831D02*
X3204Y831D01*
X0Y830D02*
X7Y830D01*
X3197Y830D02*
X3204Y830D01*
X0Y829D02*
X7Y829D01*
X3197Y829D02*
X3204Y829D01*
X0Y828D02*
X7Y828D01*
X3197Y828D02*
X3204Y828D01*
X0Y827D02*
X7Y827D01*
X3197Y827D02*
X3204Y827D01*
X0Y826D02*
X7Y826D01*
X3197Y826D02*
X3204Y826D01*
X0Y825D02*
X7Y825D01*
X3197Y825D02*
X3204Y825D01*
X0Y824D02*
X7Y824D01*
X3197Y824D02*
X3204Y824D01*
X0Y823D02*
X7Y823D01*
X2242Y823D02*
X2253Y823D01*
X3197Y823D02*
X3204Y823D01*
X0Y822D02*
X7Y822D01*
X2242Y822D02*
X2253Y822D01*
X3197Y822D02*
X3204Y822D01*
X0Y821D02*
X7Y821D01*
X2242Y821D02*
X2253Y821D01*
X3197Y821D02*
X3204Y821D01*
X0Y820D02*
X7Y820D01*
X2242Y820D02*
X2253Y820D01*
X3197Y820D02*
X3204Y820D01*
X0Y819D02*
X7Y819D01*
X2242Y819D02*
X2253Y819D01*
X3197Y819D02*
X3204Y819D01*
X0Y818D02*
X7Y818D01*
X2242Y818D02*
X2253Y818D01*
X3197Y818D02*
X3204Y818D01*
X0Y817D02*
X7Y817D01*
X2242Y817D02*
X2253Y817D01*
X3197Y817D02*
X3204Y817D01*
X0Y816D02*
X7Y816D01*
X2242Y816D02*
X2253Y816D01*
X3197Y816D02*
X3204Y816D01*
X0Y815D02*
X7Y815D01*
X2242Y815D02*
X2253Y815D01*
X3197Y815D02*
X3204Y815D01*
X0Y814D02*
X7Y814D01*
X2242Y814D02*
X2253Y814D01*
X3197Y814D02*
X3204Y814D01*
X0Y813D02*
X7Y813D01*
X2242Y813D02*
X2253Y813D01*
X3197Y813D02*
X3204Y813D01*
X0Y812D02*
X7Y812D01*
X2242Y812D02*
X2253Y812D01*
X3197Y812D02*
X3204Y812D01*
X0Y811D02*
X7Y811D01*
X2242Y811D02*
X2253Y811D01*
X3197Y811D02*
X3204Y811D01*
X0Y810D02*
X7Y810D01*
X2242Y810D02*
X2253Y810D01*
X3197Y810D02*
X3204Y810D01*
X0Y809D02*
X7Y809D01*
X2242Y809D02*
X2253Y809D01*
X3197Y809D02*
X3204Y809D01*
X0Y808D02*
X7Y808D01*
X2242Y808D02*
X2253Y808D01*
X3197Y808D02*
X3204Y808D01*
X0Y807D02*
X7Y807D01*
X2242Y807D02*
X2253Y807D01*
X3197Y807D02*
X3204Y807D01*
X0Y806D02*
X7Y806D01*
X2242Y806D02*
X2253Y806D01*
X3197Y806D02*
X3204Y806D01*
X0Y805D02*
X7Y805D01*
X2242Y805D02*
X2253Y805D01*
X3197Y805D02*
X3204Y805D01*
X0Y804D02*
X7Y804D01*
X2242Y804D02*
X2253Y804D01*
X3197Y804D02*
X3204Y804D01*
X0Y803D02*
X7Y803D01*
X2242Y803D02*
X2253Y803D01*
X3197Y803D02*
X3204Y803D01*
X0Y802D02*
X7Y802D01*
X2242Y802D02*
X2253Y802D01*
X3197Y802D02*
X3204Y802D01*
X0Y801D02*
X7Y801D01*
X2242Y801D02*
X2253Y801D01*
X3197Y801D02*
X3204Y801D01*
X0Y800D02*
X7Y800D01*
X2242Y800D02*
X2253Y800D01*
X3197Y800D02*
X3204Y800D01*
X0Y799D02*
X7Y799D01*
X2242Y799D02*
X2253Y799D01*
X3197Y799D02*
X3204Y799D01*
X0Y798D02*
X7Y798D01*
X2242Y798D02*
X2253Y798D01*
X3197Y798D02*
X3204Y798D01*
X0Y797D02*
X7Y797D01*
X2242Y797D02*
X2253Y797D01*
X3197Y797D02*
X3204Y797D01*
X0Y796D02*
X7Y796D01*
X2242Y796D02*
X2253Y796D01*
X3197Y796D02*
X3204Y796D01*
X0Y795D02*
X7Y795D01*
X2242Y795D02*
X2253Y795D01*
X3197Y795D02*
X3204Y795D01*
X0Y794D02*
X7Y794D01*
X2242Y794D02*
X2253Y794D01*
X3197Y794D02*
X3204Y794D01*
X0Y793D02*
X7Y793D01*
X2242Y793D02*
X2253Y793D01*
X3197Y793D02*
X3204Y793D01*
X0Y792D02*
X7Y792D01*
X2242Y792D02*
X2253Y792D01*
X3197Y792D02*
X3204Y792D01*
X0Y791D02*
X7Y791D01*
X2242Y791D02*
X2253Y791D01*
X3197Y791D02*
X3204Y791D01*
X0Y790D02*
X7Y790D01*
X2242Y790D02*
X2253Y790D01*
X2747Y790D02*
X2778Y790D01*
X2802Y790D02*
X2823Y790D01*
X3197Y790D02*
X3204Y790D01*
X0Y789D02*
X7Y789D01*
X2242Y789D02*
X2253Y789D01*
X2747Y789D02*
X2779Y789D01*
X2801Y789D02*
X2825Y789D01*
X3197Y789D02*
X3204Y789D01*
X0Y788D02*
X7Y788D01*
X2242Y788D02*
X2253Y788D01*
X2746Y788D02*
X2780Y788D01*
X2800Y788D02*
X2826Y788D01*
X3197Y788D02*
X3204Y788D01*
X0Y787D02*
X7Y787D01*
X2242Y787D02*
X2253Y787D01*
X2746Y787D02*
X2780Y787D01*
X2799Y787D02*
X2827Y787D01*
X3197Y787D02*
X3204Y787D01*
X0Y786D02*
X7Y786D01*
X2242Y786D02*
X2253Y786D01*
X2746Y786D02*
X2779Y786D01*
X2798Y786D02*
X2828Y786D01*
X3197Y786D02*
X3204Y786D01*
X0Y785D02*
X7Y785D01*
X2242Y785D02*
X2253Y785D01*
X2746Y785D02*
X2779Y785D01*
X2797Y785D02*
X2829Y785D01*
X3197Y785D02*
X3204Y785D01*
X0Y784D02*
X7Y784D01*
X2242Y784D02*
X2253Y784D01*
X2746Y784D02*
X2777Y784D01*
X2797Y784D02*
X2829Y784D01*
X3197Y784D02*
X3204Y784D01*
X0Y783D02*
X7Y783D01*
X2242Y783D02*
X2253Y783D01*
X2746Y783D02*
X2752Y783D01*
X2760Y783D02*
X2766Y783D01*
X2796Y783D02*
X2804Y783D01*
X2822Y783D02*
X2829Y783D01*
X3197Y783D02*
X3204Y783D01*
X0Y782D02*
X7Y782D01*
X2242Y782D02*
X2253Y782D01*
X2746Y782D02*
X2752Y782D01*
X2760Y782D02*
X2766Y782D01*
X2796Y782D02*
X2803Y782D01*
X2823Y782D02*
X2830Y782D01*
X3197Y782D02*
X3204Y782D01*
X0Y781D02*
X7Y781D01*
X2242Y781D02*
X2253Y781D01*
X2746Y781D02*
X2752Y781D01*
X2760Y781D02*
X2766Y781D01*
X2796Y781D02*
X2802Y781D01*
X2824Y781D02*
X2830Y781D01*
X3197Y781D02*
X3204Y781D01*
X0Y780D02*
X7Y780D01*
X2242Y780D02*
X2253Y780D01*
X2746Y780D02*
X2752Y780D01*
X2760Y780D02*
X2766Y780D01*
X2796Y780D02*
X2802Y780D01*
X2824Y780D02*
X2830Y780D01*
X3197Y780D02*
X3204Y780D01*
X0Y779D02*
X7Y779D01*
X2242Y779D02*
X2253Y779D01*
X2746Y779D02*
X2752Y779D01*
X2760Y779D02*
X2766Y779D01*
X2796Y779D02*
X2802Y779D01*
X2824Y779D02*
X2830Y779D01*
X3197Y779D02*
X3204Y779D01*
X0Y778D02*
X7Y778D01*
X2242Y778D02*
X2253Y778D01*
X2746Y778D02*
X2752Y778D01*
X2760Y778D02*
X2766Y778D01*
X2796Y778D02*
X2802Y778D01*
X2824Y778D02*
X2830Y778D01*
X3197Y778D02*
X3204Y778D01*
X0Y777D02*
X7Y777D01*
X2242Y777D02*
X2253Y777D01*
X2746Y777D02*
X2752Y777D01*
X2760Y777D02*
X2766Y777D01*
X2796Y777D02*
X2802Y777D01*
X2824Y777D02*
X2830Y777D01*
X3197Y777D02*
X3204Y777D01*
X0Y776D02*
X7Y776D01*
X2242Y776D02*
X2253Y776D01*
X2746Y776D02*
X2752Y776D01*
X2760Y776D02*
X2766Y776D01*
X2796Y776D02*
X2802Y776D01*
X2824Y776D02*
X2830Y776D01*
X3197Y776D02*
X3204Y776D01*
X0Y775D02*
X7Y775D01*
X2242Y775D02*
X2253Y775D01*
X2746Y775D02*
X2752Y775D01*
X2760Y775D02*
X2766Y775D01*
X2796Y775D02*
X2802Y775D01*
X2824Y775D02*
X2830Y775D01*
X3197Y775D02*
X3204Y775D01*
X0Y774D02*
X7Y774D01*
X2242Y774D02*
X2253Y774D01*
X2746Y774D02*
X2752Y774D01*
X2760Y774D02*
X2766Y774D01*
X2796Y774D02*
X2802Y774D01*
X2824Y774D02*
X2830Y774D01*
X3197Y774D02*
X3204Y774D01*
X0Y773D02*
X7Y773D01*
X2242Y773D02*
X2253Y773D01*
X2746Y773D02*
X2752Y773D01*
X2760Y773D02*
X2766Y773D01*
X2796Y773D02*
X2802Y773D01*
X2824Y773D02*
X2830Y773D01*
X3197Y773D02*
X3204Y773D01*
X0Y772D02*
X7Y772D01*
X2242Y772D02*
X2253Y772D01*
X2746Y772D02*
X2752Y772D01*
X2760Y772D02*
X2766Y772D01*
X2796Y772D02*
X2802Y772D01*
X2824Y772D02*
X2830Y772D01*
X3197Y772D02*
X3204Y772D01*
X0Y771D02*
X7Y771D01*
X2242Y771D02*
X2253Y771D01*
X2746Y771D02*
X2752Y771D01*
X2760Y771D02*
X2766Y771D01*
X2796Y771D02*
X2802Y771D01*
X2824Y771D02*
X2830Y771D01*
X3197Y771D02*
X3204Y771D01*
X0Y770D02*
X7Y770D01*
X2242Y770D02*
X2253Y770D01*
X2746Y770D02*
X2752Y770D01*
X2760Y770D02*
X2766Y770D01*
X2796Y770D02*
X2802Y770D01*
X2824Y770D02*
X2830Y770D01*
X3197Y770D02*
X3204Y770D01*
X0Y769D02*
X7Y769D01*
X2242Y769D02*
X2253Y769D01*
X2746Y769D02*
X2752Y769D01*
X2760Y769D02*
X2766Y769D01*
X2796Y769D02*
X2802Y769D01*
X2824Y769D02*
X2830Y769D01*
X3197Y769D02*
X3204Y769D01*
X0Y768D02*
X7Y768D01*
X2242Y768D02*
X2253Y768D01*
X2747Y768D02*
X2752Y768D01*
X2760Y768D02*
X2766Y768D01*
X2796Y768D02*
X2802Y768D01*
X2824Y768D02*
X2830Y768D01*
X3202Y768D02*
X3204Y768D01*
X0Y767D02*
X7Y767D01*
X2242Y767D02*
X2253Y767D01*
X2748Y767D02*
X2751Y767D01*
X2760Y767D02*
X2766Y767D01*
X2796Y767D02*
X2802Y767D01*
X2824Y767D02*
X2830Y767D01*
X3203Y767D02*
X3204Y767D01*
X0Y766D02*
X7Y766D01*
X2242Y766D02*
X2253Y766D01*
X2760Y766D02*
X2766Y766D01*
X2796Y766D02*
X2802Y766D01*
X2824Y766D02*
X2830Y766D01*
X3203Y766D02*
X3204Y766D01*
X0Y765D02*
X7Y765D01*
X2242Y765D02*
X2253Y765D01*
X2760Y765D02*
X2766Y765D01*
X2796Y765D02*
X2802Y765D01*
X2824Y765D02*
X2830Y765D01*
X3203Y765D02*
X3204Y765D01*
X0Y764D02*
X7Y764D01*
X2242Y764D02*
X2253Y764D01*
X2760Y764D02*
X2766Y764D01*
X2796Y764D02*
X2802Y764D01*
X2824Y764D02*
X2830Y764D01*
X3203Y764D02*
X3204Y764D01*
X0Y763D02*
X7Y763D01*
X2242Y763D02*
X2253Y763D01*
X2760Y763D02*
X2766Y763D01*
X2796Y763D02*
X2802Y763D01*
X2824Y763D02*
X2830Y763D01*
X3203Y763D02*
X3204Y763D01*
X0Y762D02*
X7Y762D01*
X2242Y762D02*
X2253Y762D01*
X2760Y762D02*
X2766Y762D01*
X2796Y762D02*
X2802Y762D01*
X2824Y762D02*
X2830Y762D01*
X3203Y762D02*
X3204Y762D01*
X0Y761D02*
X7Y761D01*
X2242Y761D02*
X2253Y761D01*
X2760Y761D02*
X2766Y761D01*
X2796Y761D02*
X2802Y761D01*
X2824Y761D02*
X2830Y761D01*
X3203Y761D02*
X3204Y761D01*
X0Y760D02*
X7Y760D01*
X2242Y760D02*
X2253Y760D01*
X2760Y760D02*
X2766Y760D01*
X2796Y760D02*
X2802Y760D01*
X2824Y760D02*
X2830Y760D01*
X3203Y760D02*
X3204Y760D01*
X0Y759D02*
X7Y759D01*
X2242Y759D02*
X2253Y759D01*
X2760Y759D02*
X2766Y759D01*
X2796Y759D02*
X2802Y759D01*
X2824Y759D02*
X2830Y759D01*
X3203Y759D02*
X3204Y759D01*
X0Y758D02*
X7Y758D01*
X2242Y758D02*
X2253Y758D01*
X2760Y758D02*
X2766Y758D01*
X2796Y758D02*
X2802Y758D01*
X2824Y758D02*
X2830Y758D01*
X3203Y758D02*
X3204Y758D01*
X0Y757D02*
X7Y757D01*
X2242Y757D02*
X2253Y757D01*
X2760Y757D02*
X2766Y757D01*
X2796Y757D02*
X2802Y757D01*
X2824Y757D02*
X2830Y757D01*
X3203Y757D02*
X3204Y757D01*
X0Y756D02*
X7Y756D01*
X2242Y756D02*
X2253Y756D01*
X2760Y756D02*
X2766Y756D01*
X2796Y756D02*
X2802Y756D01*
X2824Y756D02*
X2830Y756D01*
X3203Y756D02*
X3204Y756D01*
X0Y755D02*
X7Y755D01*
X2242Y755D02*
X2253Y755D01*
X2760Y755D02*
X2766Y755D01*
X2796Y755D02*
X2802Y755D01*
X2824Y755D02*
X2830Y755D01*
X3203Y755D02*
X3204Y755D01*
X0Y754D02*
X7Y754D01*
X2242Y754D02*
X2253Y754D01*
X2760Y754D02*
X2766Y754D01*
X2796Y754D02*
X2802Y754D01*
X2824Y754D02*
X2830Y754D01*
X3203Y754D02*
X3204Y754D01*
X0Y753D02*
X7Y753D01*
X2242Y753D02*
X2253Y753D01*
X2760Y753D02*
X2766Y753D01*
X2796Y753D02*
X2802Y753D01*
X2824Y753D02*
X2830Y753D01*
X3203Y753D02*
X3204Y753D01*
X0Y752D02*
X7Y752D01*
X2242Y752D02*
X2253Y752D01*
X2760Y752D02*
X2766Y752D01*
X2796Y752D02*
X2802Y752D01*
X2824Y752D02*
X2830Y752D01*
X3203Y752D02*
X3204Y752D01*
X0Y751D02*
X7Y751D01*
X2242Y751D02*
X2253Y751D01*
X2760Y751D02*
X2766Y751D01*
X2796Y751D02*
X2802Y751D01*
X2824Y751D02*
X2830Y751D01*
X3203Y751D02*
X3204Y751D01*
X0Y750D02*
X7Y750D01*
X2242Y750D02*
X2253Y750D01*
X2760Y750D02*
X2766Y750D01*
X2796Y750D02*
X2802Y750D01*
X2824Y750D02*
X2830Y750D01*
X3203Y750D02*
X3204Y750D01*
X0Y749D02*
X7Y749D01*
X2242Y749D02*
X2253Y749D01*
X2760Y749D02*
X2766Y749D01*
X2796Y749D02*
X2802Y749D01*
X2824Y749D02*
X2830Y749D01*
X3203Y749D02*
X3204Y749D01*
X0Y748D02*
X7Y748D01*
X2242Y748D02*
X2253Y748D01*
X2760Y748D02*
X2766Y748D01*
X2796Y748D02*
X2802Y748D01*
X2824Y748D02*
X2830Y748D01*
X3203Y748D02*
X3204Y748D01*
X0Y747D02*
X7Y747D01*
X2242Y747D02*
X2253Y747D01*
X2760Y747D02*
X2766Y747D01*
X2796Y747D02*
X2802Y747D01*
X2824Y747D02*
X2830Y747D01*
X3203Y747D02*
X3204Y747D01*
X0Y746D02*
X7Y746D01*
X2242Y746D02*
X2253Y746D01*
X2760Y746D02*
X2766Y746D01*
X2796Y746D02*
X2802Y746D01*
X2824Y746D02*
X2830Y746D01*
X3203Y746D02*
X3204Y746D01*
X0Y745D02*
X7Y745D01*
X2242Y745D02*
X2253Y745D01*
X2760Y745D02*
X2766Y745D01*
X2796Y745D02*
X2802Y745D01*
X2824Y745D02*
X2830Y745D01*
X3203Y745D02*
X3204Y745D01*
X0Y744D02*
X7Y744D01*
X2242Y744D02*
X2253Y744D01*
X2760Y744D02*
X2766Y744D01*
X2796Y744D02*
X2802Y744D01*
X2824Y744D02*
X2830Y744D01*
X3203Y744D02*
X3204Y744D01*
X0Y743D02*
X7Y743D01*
X2242Y743D02*
X2253Y743D01*
X2760Y743D02*
X2778Y743D01*
X2796Y743D02*
X2802Y743D01*
X2824Y743D02*
X2830Y743D01*
X3203Y743D02*
X3204Y743D01*
X0Y742D02*
X7Y742D01*
X2242Y742D02*
X2253Y742D01*
X2760Y742D02*
X2779Y742D01*
X2796Y742D02*
X2802Y742D01*
X2824Y742D02*
X2830Y742D01*
X3203Y742D02*
X3204Y742D01*
X0Y741D02*
X7Y741D01*
X2242Y741D02*
X2253Y741D01*
X2760Y741D02*
X2780Y741D01*
X2796Y741D02*
X2802Y741D01*
X2824Y741D02*
X2830Y741D01*
X3203Y741D02*
X3204Y741D01*
X0Y740D02*
X7Y740D01*
X2242Y740D02*
X2253Y740D01*
X2760Y740D02*
X2780Y740D01*
X2796Y740D02*
X2802Y740D01*
X2824Y740D02*
X2830Y740D01*
X3203Y740D02*
X3204Y740D01*
X0Y739D02*
X7Y739D01*
X2242Y739D02*
X2253Y739D01*
X2760Y739D02*
X2779Y739D01*
X2796Y739D02*
X2802Y739D01*
X2824Y739D02*
X2829Y739D01*
X3203Y739D02*
X3204Y739D01*
X0Y738D02*
X7Y738D01*
X2242Y738D02*
X2253Y738D01*
X2760Y738D02*
X2779Y738D01*
X2797Y738D02*
X2801Y738D01*
X2825Y738D02*
X2829Y738D01*
X3203Y738D02*
X3204Y738D01*
X0Y737D02*
X7Y737D01*
X2242Y737D02*
X2253Y737D01*
X2760Y737D02*
X2777Y737D01*
X2799Y737D02*
X2800Y737D01*
X2826Y737D02*
X2827Y737D01*
X3203Y737D02*
X3204Y737D01*
X0Y736D02*
X7Y736D01*
X2242Y736D02*
X2253Y736D01*
X3203Y736D02*
X3204Y736D01*
X0Y735D02*
X7Y735D01*
X2242Y735D02*
X2253Y735D01*
X3203Y735D02*
X3204Y735D01*
X0Y734D02*
X7Y734D01*
X2242Y734D02*
X2253Y734D01*
X3203Y734D02*
X3204Y734D01*
X0Y733D02*
X7Y733D01*
X2242Y733D02*
X2253Y733D01*
X3203Y733D02*
X3204Y733D01*
X0Y732D02*
X7Y732D01*
X3203Y732D02*
X3204Y732D01*
X0Y731D02*
X7Y731D01*
X3203Y731D02*
X3204Y731D01*
X0Y730D02*
X7Y730D01*
X3203Y730D02*
X3204Y730D01*
X0Y729D02*
X7Y729D01*
X3203Y729D02*
X3204Y729D01*
X0Y728D02*
X7Y728D01*
X3203Y728D02*
X3204Y728D01*
X0Y727D02*
X7Y727D01*
X3203Y727D02*
X3204Y727D01*
X0Y726D02*
X7Y726D01*
X3203Y726D02*
X3204Y726D01*
X0Y725D02*
X7Y725D01*
X3203Y725D02*
X3204Y725D01*
X0Y724D02*
X7Y724D01*
X2638Y724D02*
X2641Y724D01*
X3203Y724D02*
X3204Y724D01*
X0Y723D02*
X7Y723D01*
X2638Y723D02*
X2651Y723D01*
X3203Y723D02*
X3204Y723D01*
X0Y722D02*
X7Y722D01*
X2637Y722D02*
X2651Y722D01*
X3203Y722D02*
X3204Y722D01*
X0Y721D02*
X7Y721D01*
X2636Y721D02*
X2650Y721D01*
X3203Y721D02*
X3204Y721D01*
X0Y720D02*
X7Y720D01*
X2636Y720D02*
X2649Y720D01*
X3203Y720D02*
X3204Y720D01*
X0Y719D02*
X7Y719D01*
X2635Y719D02*
X2649Y719D01*
X3203Y719D02*
X3204Y719D01*
X0Y718D02*
X7Y718D01*
X2634Y718D02*
X2648Y718D01*
X3203Y718D02*
X3204Y718D01*
X0Y717D02*
X7Y717D01*
X2634Y717D02*
X2647Y717D01*
X3203Y717D02*
X3204Y717D01*
X0Y716D02*
X7Y716D01*
X2633Y716D02*
X2647Y716D01*
X3203Y716D02*
X3204Y716D01*
X0Y715D02*
X7Y715D01*
X2632Y715D02*
X2646Y715D01*
X3203Y715D02*
X3204Y715D01*
X0Y714D02*
X7Y714D01*
X2632Y714D02*
X2645Y714D01*
X3203Y714D02*
X3204Y714D01*
X0Y713D02*
X7Y713D01*
X2631Y713D02*
X2645Y713D01*
X3203Y713D02*
X3204Y713D01*
X0Y712D02*
X7Y712D01*
X2630Y712D02*
X2644Y712D01*
X3203Y712D02*
X3204Y712D01*
X0Y711D02*
X7Y711D01*
X2630Y711D02*
X2643Y711D01*
X3203Y711D02*
X3204Y711D01*
X0Y710D02*
X7Y710D01*
X2629Y710D02*
X2643Y710D01*
X3203Y710D02*
X3204Y710D01*
X0Y709D02*
X7Y709D01*
X2628Y709D02*
X2642Y709D01*
X3203Y709D02*
X3204Y709D01*
X0Y708D02*
X7Y708D01*
X2628Y708D02*
X2641Y708D01*
X3203Y708D02*
X3204Y708D01*
X0Y707D02*
X7Y707D01*
X2627Y707D02*
X2641Y707D01*
X3203Y707D02*
X3204Y707D01*
X0Y706D02*
X7Y706D01*
X2626Y706D02*
X2640Y706D01*
X3203Y706D02*
X3204Y706D01*
X0Y705D02*
X7Y705D01*
X2626Y705D02*
X2639Y705D01*
X3203Y705D02*
X3204Y705D01*
X0Y704D02*
X7Y704D01*
X2625Y704D02*
X2639Y704D01*
X3203Y704D02*
X3204Y704D01*
X0Y703D02*
X7Y703D01*
X2624Y703D02*
X2638Y703D01*
X3203Y703D02*
X3204Y703D01*
X0Y702D02*
X7Y702D01*
X2624Y702D02*
X2637Y702D01*
X3203Y702D02*
X3204Y702D01*
X0Y701D02*
X7Y701D01*
X2623Y701D02*
X2637Y701D01*
X3203Y701D02*
X3204Y701D01*
X0Y700D02*
X7Y700D01*
X2622Y700D02*
X2636Y700D01*
X3203Y700D02*
X3204Y700D01*
X0Y699D02*
X7Y699D01*
X2622Y699D02*
X2635Y699D01*
X3203Y699D02*
X3204Y699D01*
X0Y698D02*
X7Y698D01*
X2621Y698D02*
X2635Y698D01*
X3203Y698D02*
X3204Y698D01*
X0Y697D02*
X7Y697D01*
X2620Y697D02*
X2634Y697D01*
X3203Y697D02*
X3204Y697D01*
X0Y696D02*
X7Y696D01*
X2620Y696D02*
X2633Y696D01*
X3203Y696D02*
X3204Y696D01*
X0Y695D02*
X7Y695D01*
X2619Y695D02*
X2633Y695D01*
X3203Y695D02*
X3204Y695D01*
X0Y694D02*
X7Y694D01*
X2618Y694D02*
X2632Y694D01*
X3203Y694D02*
X3204Y694D01*
X0Y693D02*
X7Y693D01*
X2618Y693D02*
X2631Y693D01*
X3203Y693D02*
X3204Y693D01*
X0Y692D02*
X7Y692D01*
X2617Y692D02*
X2631Y692D01*
X3203Y692D02*
X3204Y692D01*
X0Y691D02*
X7Y691D01*
X2616Y691D02*
X2630Y691D01*
X3203Y691D02*
X3204Y691D01*
X0Y690D02*
X7Y690D01*
X2616Y690D02*
X2629Y690D01*
X3203Y690D02*
X3204Y690D01*
X0Y689D02*
X7Y689D01*
X2615Y689D02*
X2629Y689D01*
X3203Y689D02*
X3204Y689D01*
X0Y688D02*
X7Y688D01*
X2614Y688D02*
X2628Y688D01*
X3203Y688D02*
X3204Y688D01*
X0Y687D02*
X7Y687D01*
X2614Y687D02*
X2627Y687D01*
X3203Y687D02*
X3204Y687D01*
X0Y686D02*
X7Y686D01*
X2613Y686D02*
X2627Y686D01*
X3203Y686D02*
X3204Y686D01*
X0Y685D02*
X7Y685D01*
X2612Y685D02*
X2626Y685D01*
X3203Y685D02*
X3204Y685D01*
X0Y684D02*
X7Y684D01*
X2612Y684D02*
X2625Y684D01*
X3203Y684D02*
X3204Y684D01*
X0Y683D02*
X7Y683D01*
X2611Y683D02*
X2625Y683D01*
X3203Y683D02*
X3204Y683D01*
X0Y682D02*
X7Y682D01*
X2610Y682D02*
X2624Y682D01*
X3203Y682D02*
X3204Y682D01*
X0Y681D02*
X7Y681D01*
X2610Y681D02*
X2623Y681D01*
X3203Y681D02*
X3204Y681D01*
X0Y680D02*
X7Y680D01*
X2609Y680D02*
X2623Y680D01*
X3203Y680D02*
X3204Y680D01*
X0Y679D02*
X7Y679D01*
X2608Y679D02*
X2622Y679D01*
X3197Y679D02*
X3204Y679D01*
X0Y678D02*
X7Y678D01*
X2608Y678D02*
X2621Y678D01*
X3197Y678D02*
X3204Y678D01*
X0Y677D02*
X7Y677D01*
X2607Y677D02*
X2621Y677D01*
X3197Y677D02*
X3204Y677D01*
X0Y676D02*
X7Y676D01*
X2606Y676D02*
X2620Y676D01*
X3197Y676D02*
X3204Y676D01*
X0Y675D02*
X7Y675D01*
X2606Y675D02*
X2619Y675D01*
X3197Y675D02*
X3204Y675D01*
X0Y674D02*
X7Y674D01*
X2605Y674D02*
X2619Y674D01*
X3197Y674D02*
X3204Y674D01*
X0Y673D02*
X7Y673D01*
X2604Y673D02*
X2618Y673D01*
X3197Y673D02*
X3204Y673D01*
X0Y672D02*
X7Y672D01*
X2604Y672D02*
X2617Y672D01*
X3197Y672D02*
X3204Y672D01*
X0Y671D02*
X7Y671D01*
X2603Y671D02*
X2617Y671D01*
X3197Y671D02*
X3204Y671D01*
X0Y670D02*
X7Y670D01*
X2602Y670D02*
X2616Y670D01*
X3197Y670D02*
X3204Y670D01*
X0Y669D02*
X7Y669D01*
X2602Y669D02*
X2615Y669D01*
X3197Y669D02*
X3204Y669D01*
X0Y668D02*
X7Y668D01*
X2601Y668D02*
X2615Y668D01*
X3197Y668D02*
X3204Y668D01*
X0Y667D02*
X7Y667D01*
X2600Y667D02*
X2614Y667D01*
X3197Y667D02*
X3204Y667D01*
X0Y666D02*
X7Y666D01*
X2600Y666D02*
X2613Y666D01*
X3197Y666D02*
X3204Y666D01*
X0Y665D02*
X7Y665D01*
X2599Y665D02*
X2613Y665D01*
X3197Y665D02*
X3204Y665D01*
X0Y664D02*
X7Y664D01*
X2598Y664D02*
X2612Y664D01*
X3197Y664D02*
X3204Y664D01*
X0Y663D02*
X7Y663D01*
X2598Y663D02*
X2611Y663D01*
X3197Y663D02*
X3204Y663D01*
X0Y662D02*
X7Y662D01*
X2597Y662D02*
X2611Y662D01*
X3197Y662D02*
X3204Y662D01*
X0Y661D02*
X7Y661D01*
X2596Y661D02*
X2610Y661D01*
X3197Y661D02*
X3204Y661D01*
X0Y660D02*
X7Y660D01*
X2596Y660D02*
X2609Y660D01*
X3197Y660D02*
X3204Y660D01*
X0Y659D02*
X7Y659D01*
X2595Y659D02*
X2609Y659D01*
X3197Y659D02*
X3204Y659D01*
X0Y658D02*
X7Y658D01*
X2594Y658D02*
X2608Y658D01*
X3197Y658D02*
X3204Y658D01*
X0Y657D02*
X7Y657D01*
X2594Y657D02*
X2607Y657D01*
X3197Y657D02*
X3204Y657D01*
X0Y656D02*
X7Y656D01*
X2594Y656D02*
X2607Y656D01*
X3197Y656D02*
X3204Y656D01*
X0Y655D02*
X7Y655D01*
X2596Y655D02*
X2606Y655D01*
X3197Y655D02*
X3204Y655D01*
X0Y654D02*
X7Y654D01*
X2597Y654D02*
X2605Y654D01*
X3197Y654D02*
X3204Y654D01*
X0Y653D02*
X7Y653D01*
X2599Y653D02*
X2605Y653D01*
X3197Y653D02*
X3204Y653D01*
X0Y652D02*
X7Y652D01*
X2600Y652D02*
X2604Y652D01*
X3197Y652D02*
X3204Y652D01*
X0Y651D02*
X7Y651D01*
X2602Y651D02*
X2603Y651D01*
X3197Y651D02*
X3204Y651D01*
X0Y650D02*
X7Y650D01*
X3197Y650D02*
X3204Y650D01*
X0Y649D02*
X7Y649D01*
X3197Y649D02*
X3204Y649D01*
X0Y648D02*
X7Y648D01*
X3197Y648D02*
X3204Y648D01*
X0Y647D02*
X7Y647D01*
X3197Y647D02*
X3204Y647D01*
X0Y646D02*
X7Y646D01*
X3197Y646D02*
X3204Y646D01*
X0Y645D02*
X7Y645D01*
X3197Y645D02*
X3204Y645D01*
X0Y644D02*
X7Y644D01*
X3197Y644D02*
X3204Y644D01*
X0Y643D02*
X7Y643D01*
X3197Y643D02*
X3204Y643D01*
X0Y642D02*
X7Y642D01*
X3197Y642D02*
X3204Y642D01*
X0Y641D02*
X7Y641D01*
X3197Y641D02*
X3204Y641D01*
X0Y640D02*
X7Y640D01*
X3197Y640D02*
X3204Y640D01*
X0Y639D02*
X7Y639D01*
X3197Y639D02*
X3204Y639D01*
X0Y638D02*
X7Y638D01*
X3197Y638D02*
X3204Y638D01*
X0Y637D02*
X7Y637D01*
X3197Y637D02*
X3204Y637D01*
X0Y636D02*
X7Y636D01*
X3197Y636D02*
X3204Y636D01*
X0Y635D02*
X7Y635D01*
X3197Y635D02*
X3204Y635D01*
X0Y634D02*
X7Y634D01*
X2280Y634D02*
X2322Y634D01*
X3197Y634D02*
X3204Y634D01*
X0Y633D02*
X7Y633D01*
X2279Y633D02*
X2322Y633D01*
X3197Y633D02*
X3204Y633D01*
X0Y632D02*
X7Y632D01*
X2277Y632D02*
X2322Y632D01*
X3197Y632D02*
X3204Y632D01*
X0Y631D02*
X7Y631D01*
X2276Y631D02*
X2322Y631D01*
X3197Y631D02*
X3204Y631D01*
X0Y630D02*
X7Y630D01*
X2274Y630D02*
X2322Y630D01*
X3197Y630D02*
X3204Y630D01*
X0Y629D02*
X7Y629D01*
X2272Y629D02*
X2322Y629D01*
X3197Y629D02*
X3204Y629D01*
X0Y628D02*
X7Y628D01*
X2270Y628D02*
X2322Y628D01*
X3197Y628D02*
X3204Y628D01*
X0Y627D02*
X7Y627D01*
X2267Y627D02*
X2322Y627D01*
X3197Y627D02*
X3204Y627D01*
X0Y626D02*
X7Y626D01*
X2264Y626D02*
X2322Y626D01*
X3197Y626D02*
X3204Y626D01*
X0Y625D02*
X7Y625D01*
X2260Y625D02*
X2322Y625D01*
X3197Y625D02*
X3204Y625D01*
X0Y624D02*
X7Y624D01*
X2254Y624D02*
X2322Y624D01*
X3197Y624D02*
X3204Y624D01*
X0Y623D02*
X7Y623D01*
X2248Y623D02*
X2322Y623D01*
X3197Y623D02*
X3204Y623D01*
X0Y622D02*
X7Y622D01*
X3197Y622D02*
X3204Y622D01*
X0Y621D02*
X7Y621D01*
X3197Y621D02*
X3204Y621D01*
X0Y620D02*
X7Y620D01*
X3197Y620D02*
X3204Y620D01*
X0Y619D02*
X7Y619D01*
X3197Y619D02*
X3204Y619D01*
X0Y618D02*
X7Y618D01*
X3197Y618D02*
X3204Y618D01*
X0Y617D02*
X7Y617D01*
X3197Y617D02*
X3204Y617D01*
X0Y616D02*
X7Y616D01*
X3197Y616D02*
X3204Y616D01*
X0Y615D02*
X7Y615D01*
X3197Y615D02*
X3204Y615D01*
X0Y614D02*
X7Y614D01*
X3197Y614D02*
X3204Y614D01*
X0Y613D02*
X7Y613D01*
X3197Y613D02*
X3204Y613D01*
X0Y612D02*
X7Y612D01*
X3197Y612D02*
X3204Y612D01*
X0Y611D02*
X7Y611D01*
X3197Y611D02*
X3204Y611D01*
X0Y610D02*
X7Y610D01*
X3197Y610D02*
X3204Y610D01*
X0Y609D02*
X7Y609D01*
X3197Y609D02*
X3204Y609D01*
X0Y608D02*
X7Y608D01*
X3197Y608D02*
X3204Y608D01*
X0Y607D02*
X7Y607D01*
X3197Y607D02*
X3204Y607D01*
X0Y606D02*
X7Y606D01*
X3197Y606D02*
X3204Y606D01*
X0Y605D02*
X7Y605D01*
X3197Y605D02*
X3204Y605D01*
X0Y604D02*
X7Y604D01*
X3197Y604D02*
X3204Y604D01*
X0Y603D02*
X7Y603D01*
X3197Y603D02*
X3204Y603D01*
X0Y602D02*
X7Y602D01*
X3197Y602D02*
X3204Y602D01*
X0Y601D02*
X7Y601D01*
X3197Y601D02*
X3204Y601D01*
X0Y600D02*
X7Y600D01*
X3197Y600D02*
X3204Y600D01*
X0Y599D02*
X7Y599D01*
X3197Y599D02*
X3204Y599D01*
X0Y598D02*
X7Y598D01*
X3197Y598D02*
X3204Y598D01*
X0Y597D02*
X7Y597D01*
X3197Y597D02*
X3204Y597D01*
X0Y596D02*
X7Y596D01*
X3197Y596D02*
X3204Y596D01*
X0Y595D02*
X7Y595D01*
X3197Y595D02*
X3204Y595D01*
X0Y594D02*
X7Y594D01*
X3197Y594D02*
X3204Y594D01*
X0Y593D02*
X7Y593D01*
X3197Y593D02*
X3204Y593D01*
X0Y592D02*
X7Y592D01*
X3197Y592D02*
X3204Y592D01*
X0Y591D02*
X7Y591D01*
X3197Y591D02*
X3204Y591D01*
X0Y590D02*
X7Y590D01*
X3197Y590D02*
X3204Y590D01*
X0Y589D02*
X7Y589D01*
X3197Y589D02*
X3204Y589D01*
X0Y588D02*
X7Y588D01*
X3197Y588D02*
X3204Y588D01*
X0Y587D02*
X7Y587D01*
X3197Y587D02*
X3204Y587D01*
X0Y586D02*
X7Y586D01*
X3197Y586D02*
X3204Y586D01*
X0Y585D02*
X7Y585D01*
X3197Y585D02*
X3204Y585D01*
X0Y584D02*
X7Y584D01*
X3197Y584D02*
X3204Y584D01*
X0Y583D02*
X7Y583D01*
X3197Y583D02*
X3204Y583D01*
X0Y582D02*
X7Y582D01*
X3197Y582D02*
X3204Y582D01*
X0Y581D02*
X7Y581D01*
X3197Y581D02*
X3204Y581D01*
X0Y580D02*
X7Y580D01*
X3197Y580D02*
X3204Y580D01*
X0Y579D02*
X7Y579D01*
X3197Y579D02*
X3204Y579D01*
X0Y578D02*
X7Y578D01*
X3197Y578D02*
X3204Y578D01*
X0Y577D02*
X7Y577D01*
X3197Y577D02*
X3204Y577D01*
X0Y576D02*
X7Y576D01*
X3197Y576D02*
X3204Y576D01*
X0Y575D02*
X7Y575D01*
X3197Y575D02*
X3204Y575D01*
X0Y574D02*
X7Y574D01*
X3197Y574D02*
X3204Y574D01*
X0Y573D02*
X7Y573D01*
X3197Y573D02*
X3204Y573D01*
X0Y572D02*
X7Y572D01*
X1916Y572D02*
X1917Y572D01*
X1944Y572D02*
X1961Y572D01*
X3197Y572D02*
X3204Y572D01*
X0Y571D02*
X7Y571D01*
X1913Y571D02*
X1920Y571D01*
X1942Y571D02*
X1961Y571D01*
X3197Y571D02*
X3204Y571D01*
X0Y570D02*
X7Y570D01*
X1912Y570D02*
X1922Y570D01*
X1942Y570D02*
X1961Y570D01*
X3197Y570D02*
X3204Y570D01*
X0Y569D02*
X7Y569D01*
X1911Y569D02*
X1923Y569D01*
X1941Y569D02*
X1961Y569D01*
X3197Y569D02*
X3204Y569D01*
X0Y568D02*
X7Y568D01*
X1909Y568D02*
X1923Y568D01*
X1941Y568D02*
X1961Y568D01*
X3197Y568D02*
X3204Y568D01*
X0Y567D02*
X7Y567D01*
X1908Y567D02*
X1924Y567D01*
X1942Y567D02*
X1961Y567D01*
X3197Y567D02*
X3204Y567D01*
X0Y566D02*
X7Y566D01*
X1907Y566D02*
X1924Y566D01*
X1942Y566D02*
X1961Y566D01*
X3197Y566D02*
X3204Y566D01*
X0Y565D02*
X7Y565D01*
X1906Y565D02*
X1925Y565D01*
X1955Y565D02*
X1961Y565D01*
X3197Y565D02*
X3204Y565D01*
X0Y564D02*
X7Y564D01*
X1905Y564D02*
X1915Y564D01*
X1919Y564D02*
X1925Y564D01*
X1955Y564D02*
X1961Y564D01*
X3197Y564D02*
X3204Y564D01*
X0Y563D02*
X7Y563D01*
X1903Y563D02*
X1913Y563D01*
X1919Y563D02*
X1925Y563D01*
X1955Y563D02*
X1961Y563D01*
X3197Y563D02*
X3204Y563D01*
X0Y562D02*
X7Y562D01*
X1902Y562D02*
X1912Y562D01*
X1919Y562D02*
X1925Y562D01*
X1955Y562D02*
X1961Y562D01*
X3197Y562D02*
X3204Y562D01*
X0Y561D02*
X7Y561D01*
X1901Y561D02*
X1911Y561D01*
X1919Y561D02*
X1925Y561D01*
X1955Y561D02*
X1961Y561D01*
X3197Y561D02*
X3204Y561D01*
X0Y560D02*
X7Y560D01*
X1900Y560D02*
X1910Y560D01*
X1919Y560D02*
X1925Y560D01*
X1955Y560D02*
X1961Y560D01*
X3197Y560D02*
X3204Y560D01*
X0Y559D02*
X7Y559D01*
X1899Y559D02*
X1909Y559D01*
X1919Y559D02*
X1925Y559D01*
X1955Y559D02*
X1961Y559D01*
X3197Y559D02*
X3204Y559D01*
X0Y558D02*
X7Y558D01*
X1898Y558D02*
X1907Y558D01*
X1919Y558D02*
X1925Y558D01*
X1955Y558D02*
X1961Y558D01*
X3197Y558D02*
X3204Y558D01*
X0Y557D02*
X7Y557D01*
X1896Y557D02*
X1906Y557D01*
X1919Y557D02*
X1925Y557D01*
X1955Y557D02*
X1961Y557D01*
X3197Y557D02*
X3204Y557D01*
X0Y556D02*
X7Y556D01*
X1895Y556D02*
X1905Y556D01*
X1919Y556D02*
X1925Y556D01*
X1955Y556D02*
X1961Y556D01*
X3197Y556D02*
X3204Y556D01*
X0Y555D02*
X7Y555D01*
X1894Y555D02*
X1904Y555D01*
X1919Y555D02*
X1925Y555D01*
X1955Y555D02*
X1961Y555D01*
X3197Y555D02*
X3204Y555D01*
X0Y554D02*
X7Y554D01*
X1894Y554D02*
X1903Y554D01*
X1919Y554D02*
X1925Y554D01*
X1955Y554D02*
X1961Y554D01*
X3197Y554D02*
X3204Y554D01*
X0Y553D02*
X7Y553D01*
X1893Y553D02*
X1901Y553D01*
X1919Y553D02*
X1925Y553D01*
X1955Y553D02*
X1961Y553D01*
X3197Y553D02*
X3204Y553D01*
X0Y552D02*
X7Y552D01*
X1892Y552D02*
X1900Y552D01*
X1919Y552D02*
X1925Y552D01*
X1955Y552D02*
X1961Y552D01*
X3197Y552D02*
X3204Y552D01*
X0Y551D02*
X7Y551D01*
X1892Y551D02*
X1899Y551D01*
X1919Y551D02*
X1925Y551D01*
X1955Y551D02*
X1961Y551D01*
X3197Y551D02*
X3204Y551D01*
X0Y550D02*
X7Y550D01*
X1892Y550D02*
X1898Y550D01*
X1919Y550D02*
X1925Y550D01*
X1955Y550D02*
X1961Y550D01*
X3197Y550D02*
X3204Y550D01*
X0Y549D02*
X7Y549D01*
X498Y549D02*
X519Y549D01*
X546Y549D02*
X578Y549D01*
X609Y549D02*
X626Y549D01*
X1892Y549D02*
X1898Y549D01*
X1919Y549D02*
X1925Y549D01*
X1955Y549D02*
X1961Y549D01*
X3197Y549D02*
X3204Y549D01*
X0Y548D02*
X7Y548D01*
X497Y548D02*
X522Y548D01*
X545Y548D02*
X578Y548D01*
X607Y548D02*
X627Y548D01*
X1891Y548D02*
X1898Y548D01*
X1919Y548D02*
X1925Y548D01*
X1955Y548D02*
X1961Y548D01*
X3197Y548D02*
X3204Y548D01*
X0Y547D02*
X7Y547D01*
X496Y547D02*
X524Y547D01*
X544Y547D02*
X578Y547D01*
X605Y547D02*
X627Y547D01*
X1891Y547D02*
X1897Y547D01*
X1919Y547D02*
X1925Y547D01*
X1955Y547D02*
X1961Y547D01*
X3197Y547D02*
X3204Y547D01*
X0Y546D02*
X7Y546D01*
X495Y546D02*
X526Y546D01*
X544Y546D02*
X578Y546D01*
X604Y546D02*
X628Y546D01*
X1891Y546D02*
X1897Y546D01*
X1919Y546D02*
X1925Y546D01*
X1955Y546D02*
X1961Y546D01*
X3197Y546D02*
X3204Y546D01*
X0Y545D02*
X7Y545D01*
X495Y545D02*
X527Y545D01*
X544Y545D02*
X578Y545D01*
X604Y545D02*
X627Y545D01*
X1891Y545D02*
X1897Y545D01*
X1919Y545D02*
X1925Y545D01*
X1955Y545D02*
X1961Y545D01*
X3197Y545D02*
X3204Y545D01*
X0Y544D02*
X7Y544D01*
X494Y544D02*
X528Y544D01*
X545Y544D02*
X578Y544D01*
X603Y544D02*
X627Y544D01*
X1891Y544D02*
X1897Y544D01*
X1919Y544D02*
X1925Y544D01*
X1955Y544D02*
X1961Y544D01*
X3197Y544D02*
X3204Y544D01*
X0Y543D02*
X7Y543D01*
X494Y543D02*
X528Y543D01*
X546Y543D02*
X578Y543D01*
X602Y543D02*
X626Y543D01*
X1891Y543D02*
X1897Y543D01*
X1919Y543D02*
X1925Y543D01*
X1955Y543D02*
X1961Y543D01*
X3197Y543D02*
X3204Y543D01*
X0Y542D02*
X7Y542D01*
X494Y542D02*
X500Y542D01*
X519Y542D02*
X527Y542D01*
X572Y542D02*
X578Y542D01*
X602Y542D02*
X609Y542D01*
X615Y542D02*
X621Y542D01*
X1891Y542D02*
X1897Y542D01*
X1907Y542D02*
X1909Y542D01*
X1919Y542D02*
X1925Y542D01*
X1955Y542D02*
X1961Y542D01*
X1970Y542D02*
X1973Y542D01*
X3197Y542D02*
X3204Y542D01*
X0Y541D02*
X7Y541D01*
X494Y541D02*
X500Y541D01*
X521Y541D02*
X527Y541D01*
X572Y541D02*
X578Y541D01*
X601Y541D02*
X608Y541D01*
X615Y541D02*
X621Y541D01*
X1891Y541D02*
X1897Y541D01*
X1906Y541D02*
X1910Y541D01*
X1918Y541D02*
X1925Y541D01*
X1955Y541D02*
X1961Y541D01*
X1969Y541D02*
X1974Y541D01*
X3197Y541D02*
X3204Y541D01*
X0Y540D02*
X7Y540D01*
X494Y540D02*
X500Y540D01*
X524Y540D02*
X526Y540D01*
X572Y540D02*
X578Y540D01*
X601Y540D02*
X608Y540D01*
X615Y540D02*
X621Y540D01*
X1891Y540D02*
X1897Y540D01*
X1905Y540D02*
X1911Y540D01*
X1917Y540D02*
X1924Y540D01*
X1955Y540D02*
X1961Y540D01*
X1969Y540D02*
X1975Y540D01*
X3197Y540D02*
X3204Y540D01*
X0Y539D02*
X7Y539D01*
X494Y539D02*
X500Y539D01*
X572Y539D02*
X578Y539D01*
X600Y539D02*
X607Y539D01*
X615Y539D02*
X621Y539D01*
X1891Y539D02*
X1897Y539D01*
X1905Y539D02*
X1911Y539D01*
X1917Y539D02*
X1924Y539D01*
X1955Y539D02*
X1961Y539D01*
X1969Y539D02*
X1975Y539D01*
X3197Y539D02*
X3204Y539D01*
X0Y538D02*
X7Y538D01*
X494Y538D02*
X500Y538D01*
X572Y538D02*
X578Y538D01*
X600Y538D02*
X607Y538D01*
X615Y538D02*
X621Y538D01*
X1891Y538D02*
X1897Y538D01*
X1905Y538D02*
X1912Y538D01*
X1916Y538D02*
X1923Y538D01*
X1955Y538D02*
X1961Y538D01*
X1969Y538D02*
X1975Y538D01*
X3197Y538D02*
X3204Y538D01*
X0Y537D02*
X7Y537D01*
X494Y537D02*
X500Y537D01*
X572Y537D02*
X578Y537D01*
X599Y537D02*
X606Y537D01*
X615Y537D02*
X621Y537D01*
X1891Y537D02*
X1897Y537D01*
X1906Y537D02*
X1912Y537D01*
X1914Y537D02*
X1923Y537D01*
X1955Y537D02*
X1961Y537D01*
X1969Y537D02*
X1975Y537D01*
X3197Y537D02*
X3204Y537D01*
X0Y536D02*
X7Y536D01*
X494Y536D02*
X500Y536D01*
X572Y536D02*
X578Y536D01*
X599Y536D02*
X606Y536D01*
X615Y536D02*
X621Y536D01*
X1891Y536D02*
X1897Y536D01*
X1906Y536D02*
X1922Y536D01*
X1955Y536D02*
X1961Y536D01*
X1969Y536D02*
X1975Y536D01*
X3197Y536D02*
X3204Y536D01*
X0Y535D02*
X7Y535D01*
X494Y535D02*
X500Y535D01*
X572Y535D02*
X578Y535D01*
X598Y535D02*
X605Y535D01*
X615Y535D02*
X621Y535D01*
X1891Y535D02*
X1897Y535D01*
X1906Y535D02*
X1921Y535D01*
X1955Y535D02*
X1961Y535D01*
X1969Y535D02*
X1975Y535D01*
X3197Y535D02*
X3204Y535D01*
X0Y534D02*
X7Y534D01*
X494Y534D02*
X500Y534D01*
X572Y534D02*
X578Y534D01*
X598Y534D02*
X605Y534D01*
X615Y534D02*
X621Y534D01*
X1891Y534D02*
X1897Y534D01*
X1907Y534D02*
X1921Y534D01*
X1955Y534D02*
X1961Y534D01*
X1969Y534D02*
X1975Y534D01*
X3197Y534D02*
X3204Y534D01*
X0Y533D02*
X7Y533D01*
X494Y533D02*
X500Y533D01*
X572Y533D02*
X578Y533D01*
X597Y533D02*
X604Y533D01*
X615Y533D02*
X621Y533D01*
X1891Y533D02*
X1897Y533D01*
X1907Y533D02*
X1920Y533D01*
X1955Y533D02*
X1961Y533D01*
X1969Y533D02*
X1975Y533D01*
X3197Y533D02*
X3204Y533D01*
X0Y532D02*
X7Y532D01*
X494Y532D02*
X500Y532D01*
X572Y532D02*
X578Y532D01*
X597Y532D02*
X604Y532D01*
X615Y532D02*
X621Y532D01*
X1891Y532D02*
X1897Y532D01*
X1908Y532D02*
X1919Y532D01*
X1955Y532D02*
X1961Y532D01*
X1969Y532D02*
X1975Y532D01*
X3197Y532D02*
X3204Y532D01*
X0Y531D02*
X7Y531D01*
X494Y531D02*
X500Y531D01*
X572Y531D02*
X578Y531D01*
X596Y531D02*
X603Y531D01*
X615Y531D02*
X621Y531D01*
X1891Y531D02*
X1897Y531D01*
X1907Y531D02*
X1917Y531D01*
X1955Y531D02*
X1961Y531D01*
X1969Y531D02*
X1975Y531D01*
X3197Y531D02*
X3204Y531D01*
X0Y530D02*
X7Y530D01*
X494Y530D02*
X500Y530D01*
X572Y530D02*
X578Y530D01*
X596Y530D02*
X603Y530D01*
X615Y530D02*
X621Y530D01*
X1891Y530D02*
X1897Y530D01*
X1906Y530D02*
X1916Y530D01*
X1955Y530D02*
X1961Y530D01*
X1969Y530D02*
X1975Y530D01*
X3197Y530D02*
X3204Y530D01*
X0Y529D02*
X7Y529D01*
X494Y529D02*
X500Y529D01*
X572Y529D02*
X578Y529D01*
X596Y529D02*
X602Y529D01*
X615Y529D02*
X621Y529D01*
X1891Y529D02*
X1897Y529D01*
X1905Y529D02*
X1915Y529D01*
X1955Y529D02*
X1961Y529D01*
X1969Y529D02*
X1975Y529D01*
X3197Y529D02*
X3204Y529D01*
X0Y528D02*
X7Y528D01*
X494Y528D02*
X500Y528D01*
X572Y528D02*
X578Y528D01*
X595Y528D02*
X602Y528D01*
X615Y528D02*
X621Y528D01*
X1891Y528D02*
X1897Y528D01*
X1904Y528D02*
X1916Y528D01*
X1955Y528D02*
X1961Y528D01*
X1969Y528D02*
X1975Y528D01*
X3197Y528D02*
X3204Y528D01*
X0Y527D02*
X7Y527D01*
X494Y527D02*
X500Y527D01*
X572Y527D02*
X578Y527D01*
X595Y527D02*
X601Y527D01*
X615Y527D02*
X621Y527D01*
X1891Y527D02*
X1897Y527D01*
X1903Y527D02*
X1916Y527D01*
X1955Y527D02*
X1961Y527D01*
X1969Y527D02*
X1975Y527D01*
X3197Y527D02*
X3204Y527D01*
X0Y526D02*
X7Y526D01*
X494Y526D02*
X501Y526D01*
X571Y526D02*
X578Y526D01*
X595Y526D02*
X601Y526D01*
X615Y526D02*
X621Y526D01*
X1891Y526D02*
X1897Y526D01*
X1902Y526D02*
X1916Y526D01*
X1955Y526D02*
X1961Y526D01*
X1969Y526D02*
X1975Y526D01*
X3197Y526D02*
X3204Y526D01*
X0Y525D02*
X7Y525D01*
X494Y525D02*
X521Y525D01*
X548Y525D02*
X578Y525D01*
X594Y525D02*
X601Y525D01*
X615Y525D02*
X621Y525D01*
X1891Y525D02*
X1898Y525D01*
X1900Y525D02*
X1917Y525D01*
X1955Y525D02*
X1961Y525D01*
X1968Y525D02*
X1975Y525D01*
X3197Y525D02*
X3204Y525D01*
X0Y524D02*
X7Y524D01*
X494Y524D02*
X521Y524D01*
X546Y524D02*
X577Y524D01*
X594Y524D02*
X600Y524D01*
X615Y524D02*
X621Y524D01*
X1892Y524D02*
X1909Y524D01*
X1911Y524D02*
X1924Y524D01*
X1942Y524D02*
X1975Y524D01*
X3197Y524D02*
X3204Y524D01*
X0Y523D02*
X7Y523D01*
X495Y523D02*
X521Y523D01*
X545Y523D02*
X577Y523D01*
X594Y523D02*
X600Y523D01*
X615Y523D02*
X621Y523D01*
X1892Y523D02*
X1908Y523D01*
X1911Y523D02*
X1924Y523D01*
X1942Y523D02*
X1975Y523D01*
X3197Y523D02*
X3204Y523D01*
X0Y522D02*
X7Y522D01*
X495Y522D02*
X521Y522D01*
X545Y522D02*
X576Y522D01*
X594Y522D02*
X600Y522D01*
X615Y522D02*
X621Y522D01*
X1893Y522D02*
X1907Y522D01*
X1911Y522D02*
X1925Y522D01*
X1941Y522D02*
X1975Y522D01*
X3197Y522D02*
X3204Y522D01*
X0Y521D02*
X7Y521D01*
X496Y521D02*
X521Y521D01*
X544Y521D02*
X575Y521D01*
X594Y521D02*
X600Y521D01*
X615Y521D02*
X621Y521D01*
X1893Y521D02*
X1905Y521D01*
X1912Y521D02*
X1925Y521D01*
X1941Y521D02*
X1975Y521D01*
X3197Y521D02*
X3204Y521D01*
X0Y520D02*
X7Y520D01*
X498Y520D02*
X521Y520D01*
X544Y520D02*
X574Y520D01*
X594Y520D02*
X601Y520D01*
X615Y520D02*
X621Y520D01*
X1894Y520D02*
X1904Y520D01*
X1912Y520D02*
X1924Y520D01*
X1942Y520D02*
X1974Y520D01*
X3197Y520D02*
X3204Y520D01*
X0Y519D02*
X7Y519D01*
X501Y519D02*
X521Y519D01*
X544Y519D02*
X551Y519D01*
X595Y519D02*
X601Y519D01*
X615Y519D02*
X621Y519D01*
X1896Y519D02*
X1903Y519D01*
X1913Y519D02*
X1924Y519D01*
X1942Y519D02*
X1974Y519D01*
X3197Y519D02*
X3204Y519D01*
X0Y518D02*
X7Y518D01*
X515Y518D02*
X521Y518D01*
X544Y518D02*
X550Y518D01*
X595Y518D02*
X601Y518D01*
X615Y518D02*
X621Y518D01*
X1899Y518D02*
X1899Y518D01*
X1913Y518D02*
X1922Y518D01*
X1944Y518D02*
X1972Y518D01*
X3197Y518D02*
X3204Y518D01*
X0Y517D02*
X7Y517D01*
X515Y517D02*
X521Y517D01*
X544Y517D02*
X550Y517D01*
X595Y517D02*
X602Y517D01*
X615Y517D02*
X621Y517D01*
X3197Y517D02*
X3204Y517D01*
X0Y516D02*
X7Y516D01*
X515Y516D02*
X521Y516D01*
X544Y516D02*
X550Y516D01*
X596Y516D02*
X602Y516D01*
X615Y516D02*
X621Y516D01*
X3197Y516D02*
X3204Y516D01*
X0Y515D02*
X7Y515D01*
X515Y515D02*
X521Y515D01*
X544Y515D02*
X550Y515D01*
X596Y515D02*
X603Y515D01*
X615Y515D02*
X621Y515D01*
X3197Y515D02*
X3204Y515D01*
X0Y514D02*
X7Y514D01*
X515Y514D02*
X521Y514D01*
X544Y514D02*
X550Y514D01*
X597Y514D02*
X603Y514D01*
X615Y514D02*
X621Y514D01*
X3197Y514D02*
X3204Y514D01*
X0Y513D02*
X7Y513D01*
X515Y513D02*
X521Y513D01*
X544Y513D02*
X550Y513D01*
X597Y513D02*
X604Y513D01*
X615Y513D02*
X621Y513D01*
X3197Y513D02*
X3204Y513D01*
X0Y512D02*
X7Y512D01*
X515Y512D02*
X521Y512D01*
X544Y512D02*
X550Y512D01*
X598Y512D02*
X604Y512D01*
X615Y512D02*
X621Y512D01*
X3197Y512D02*
X3204Y512D01*
X0Y511D02*
X7Y511D01*
X515Y511D02*
X521Y511D01*
X544Y511D02*
X550Y511D01*
X598Y511D02*
X605Y511D01*
X615Y511D02*
X621Y511D01*
X3197Y511D02*
X3204Y511D01*
X0Y510D02*
X7Y510D01*
X515Y510D02*
X521Y510D01*
X544Y510D02*
X550Y510D01*
X599Y510D02*
X605Y510D01*
X615Y510D02*
X621Y510D01*
X3197Y510D02*
X3204Y510D01*
X0Y509D02*
X7Y509D01*
X515Y509D02*
X521Y509D01*
X544Y509D02*
X550Y509D01*
X599Y509D02*
X606Y509D01*
X615Y509D02*
X621Y509D01*
X3197Y509D02*
X3204Y509D01*
X0Y508D02*
X7Y508D01*
X515Y508D02*
X521Y508D01*
X544Y508D02*
X550Y508D01*
X600Y508D02*
X606Y508D01*
X615Y508D02*
X621Y508D01*
X3197Y508D02*
X3204Y508D01*
X0Y507D02*
X7Y507D01*
X515Y507D02*
X521Y507D01*
X544Y507D02*
X550Y507D01*
X600Y507D02*
X607Y507D01*
X615Y507D02*
X621Y507D01*
X3197Y507D02*
X3204Y507D01*
X0Y506D02*
X7Y506D01*
X515Y506D02*
X521Y506D01*
X544Y506D02*
X550Y506D01*
X601Y506D02*
X607Y506D01*
X615Y506D02*
X621Y506D01*
X3197Y506D02*
X3204Y506D01*
X0Y505D02*
X7Y505D01*
X515Y505D02*
X521Y505D01*
X544Y505D02*
X550Y505D01*
X601Y505D02*
X608Y505D01*
X615Y505D02*
X621Y505D01*
X3197Y505D02*
X3204Y505D01*
X0Y504D02*
X7Y504D01*
X515Y504D02*
X521Y504D01*
X544Y504D02*
X550Y504D01*
X602Y504D02*
X608Y504D01*
X615Y504D02*
X621Y504D01*
X3197Y504D02*
X3204Y504D01*
X0Y503D02*
X7Y503D01*
X515Y503D02*
X521Y503D01*
X544Y503D02*
X550Y503D01*
X602Y503D02*
X609Y503D01*
X615Y503D02*
X621Y503D01*
X3197Y503D02*
X3204Y503D01*
X0Y502D02*
X7Y502D01*
X496Y502D02*
X521Y502D01*
X544Y502D02*
X576Y502D01*
X603Y502D02*
X626Y502D01*
X3197Y502D02*
X3204Y502D01*
X0Y501D02*
X7Y501D01*
X495Y501D02*
X521Y501D01*
X544Y501D02*
X577Y501D01*
X603Y501D02*
X627Y501D01*
X2494Y501D02*
X2518Y501D01*
X2547Y501D02*
X2572Y501D01*
X3197Y501D02*
X3204Y501D01*
X0Y500D02*
X7Y500D01*
X494Y500D02*
X521Y500D01*
X545Y500D02*
X577Y500D01*
X604Y500D02*
X627Y500D01*
X2494Y500D02*
X2521Y500D01*
X2545Y500D02*
X2574Y500D01*
X3197Y500D02*
X3204Y500D01*
X0Y499D02*
X7Y499D01*
X494Y499D02*
X521Y499D01*
X545Y499D02*
X578Y499D01*
X605Y499D02*
X628Y499D01*
X2494Y499D02*
X2523Y499D01*
X2544Y499D02*
X2575Y499D01*
X3197Y499D02*
X3204Y499D01*
X0Y498D02*
X7Y498D01*
X494Y498D02*
X521Y498D01*
X546Y498D02*
X578Y498D01*
X606Y498D02*
X628Y498D01*
X2494Y498D02*
X2524Y498D01*
X2544Y498D02*
X2576Y498D01*
X3197Y498D02*
X3204Y498D01*
X0Y497D02*
X7Y497D01*
X495Y497D02*
X521Y497D01*
X547Y497D02*
X577Y497D01*
X607Y497D02*
X627Y497D01*
X2494Y497D02*
X2525Y497D01*
X2544Y497D02*
X2577Y497D01*
X3197Y497D02*
X3204Y497D01*
X0Y496D02*
X7Y496D01*
X496Y496D02*
X521Y496D01*
X548Y496D02*
X576Y496D01*
X609Y496D02*
X626Y496D01*
X2494Y496D02*
X2526Y496D01*
X2544Y496D02*
X2577Y496D01*
X3197Y496D02*
X3204Y496D01*
X0Y495D02*
X7Y495D01*
X2494Y495D02*
X2526Y495D01*
X2545Y495D02*
X2577Y495D01*
X3197Y495D02*
X3204Y495D01*
X0Y494D02*
X7Y494D01*
X2494Y494D02*
X2500Y494D01*
X2518Y494D02*
X2527Y494D01*
X2571Y494D02*
X2577Y494D01*
X3197Y494D02*
X3204Y494D01*
X0Y493D02*
X7Y493D01*
X2494Y493D02*
X2500Y493D01*
X2520Y493D02*
X2527Y493D01*
X2571Y493D02*
X2577Y493D01*
X3197Y493D02*
X3204Y493D01*
X0Y492D02*
X7Y492D01*
X2494Y492D02*
X2500Y492D01*
X2521Y492D02*
X2527Y492D01*
X2571Y492D02*
X2577Y492D01*
X3197Y492D02*
X3204Y492D01*
X0Y491D02*
X7Y491D01*
X2494Y491D02*
X2500Y491D01*
X2521Y491D02*
X2527Y491D01*
X2571Y491D02*
X2577Y491D01*
X3197Y491D02*
X3204Y491D01*
X0Y490D02*
X7Y490D01*
X2494Y490D02*
X2500Y490D01*
X2521Y490D02*
X2527Y490D01*
X2571Y490D02*
X2577Y490D01*
X3197Y490D02*
X3204Y490D01*
X0Y489D02*
X7Y489D01*
X2494Y489D02*
X2500Y489D01*
X2521Y489D02*
X2527Y489D01*
X2571Y489D02*
X2577Y489D01*
X3197Y489D02*
X3204Y489D01*
X0Y488D02*
X7Y488D01*
X2494Y488D02*
X2500Y488D01*
X2521Y488D02*
X2527Y488D01*
X2571Y488D02*
X2577Y488D01*
X3197Y488D02*
X3204Y488D01*
X0Y487D02*
X7Y487D01*
X2494Y487D02*
X2500Y487D01*
X2521Y487D02*
X2527Y487D01*
X2571Y487D02*
X2577Y487D01*
X3197Y487D02*
X3204Y487D01*
X0Y486D02*
X7Y486D01*
X2494Y486D02*
X2500Y486D01*
X2521Y486D02*
X2527Y486D01*
X2571Y486D02*
X2577Y486D01*
X3197Y486D02*
X3204Y486D01*
X0Y485D02*
X7Y485D01*
X2494Y485D02*
X2500Y485D01*
X2521Y485D02*
X2527Y485D01*
X2571Y485D02*
X2577Y485D01*
X3197Y485D02*
X3204Y485D01*
X0Y484D02*
X7Y484D01*
X2494Y484D02*
X2500Y484D01*
X2519Y484D02*
X2527Y484D01*
X2571Y484D02*
X2577Y484D01*
X3197Y484D02*
X3204Y484D01*
X0Y483D02*
X7Y483D01*
X2494Y483D02*
X2527Y483D01*
X2571Y483D02*
X2577Y483D01*
X3197Y483D02*
X3204Y483D01*
X0Y482D02*
X7Y482D01*
X2494Y482D02*
X2526Y482D01*
X2571Y482D02*
X2577Y482D01*
X3197Y482D02*
X3204Y482D01*
X0Y481D02*
X7Y481D01*
X2494Y481D02*
X2525Y481D01*
X2571Y481D02*
X2577Y481D01*
X3197Y481D02*
X3204Y481D01*
X0Y480D02*
X7Y480D01*
X2494Y480D02*
X2525Y480D01*
X2571Y480D02*
X2577Y480D01*
X3197Y480D02*
X3204Y480D01*
X0Y479D02*
X7Y479D01*
X2494Y479D02*
X2524Y479D01*
X2571Y479D02*
X2577Y479D01*
X3197Y479D02*
X3204Y479D01*
X0Y478D02*
X7Y478D01*
X2494Y478D02*
X2522Y478D01*
X2571Y478D02*
X2577Y478D01*
X3197Y478D02*
X3204Y478D01*
X0Y477D02*
X7Y477D01*
X2494Y477D02*
X2520Y477D01*
X2548Y477D02*
X2577Y477D01*
X3197Y477D02*
X3204Y477D01*
X0Y476D02*
X7Y476D01*
X2494Y476D02*
X2500Y476D01*
X2506Y476D02*
X2513Y476D01*
X2546Y476D02*
X2577Y476D01*
X3197Y476D02*
X3204Y476D01*
X0Y475D02*
X7Y475D01*
X2494Y475D02*
X2500Y475D01*
X2506Y475D02*
X2514Y475D01*
X2545Y475D02*
X2577Y475D01*
X3197Y475D02*
X3204Y475D01*
X0Y474D02*
X7Y474D01*
X2494Y474D02*
X2500Y474D01*
X2507Y474D02*
X2514Y474D01*
X2545Y474D02*
X2576Y474D01*
X3197Y474D02*
X3204Y474D01*
X0Y473D02*
X7Y473D01*
X2494Y473D02*
X2500Y473D01*
X2508Y473D02*
X2515Y473D01*
X2544Y473D02*
X2575Y473D01*
X3197Y473D02*
X3204Y473D01*
X0Y472D02*
X7Y472D01*
X2494Y472D02*
X2500Y472D01*
X2508Y472D02*
X2515Y472D01*
X2544Y472D02*
X2574Y472D01*
X3197Y472D02*
X3204Y472D01*
X0Y471D02*
X7Y471D01*
X2494Y471D02*
X2500Y471D01*
X2509Y471D02*
X2516Y471D01*
X2544Y471D02*
X2573Y471D01*
X3197Y471D02*
X3204Y471D01*
X0Y470D02*
X7Y470D01*
X2494Y470D02*
X2500Y470D01*
X2509Y470D02*
X2517Y470D01*
X2544Y470D02*
X2550Y470D01*
X3197Y470D02*
X3204Y470D01*
X0Y469D02*
X7Y469D01*
X2494Y469D02*
X2500Y469D01*
X2510Y469D02*
X2517Y469D01*
X2544Y469D02*
X2550Y469D01*
X3197Y469D02*
X3204Y469D01*
X0Y468D02*
X7Y468D01*
X2494Y468D02*
X2500Y468D01*
X2510Y468D02*
X2518Y468D01*
X2544Y468D02*
X2550Y468D01*
X3197Y468D02*
X3204Y468D01*
X0Y467D02*
X7Y467D01*
X2494Y467D02*
X2500Y467D01*
X2511Y467D02*
X2518Y467D01*
X2544Y467D02*
X2550Y467D01*
X3197Y467D02*
X3204Y467D01*
X0Y466D02*
X7Y466D01*
X2494Y466D02*
X2500Y466D01*
X2512Y466D02*
X2519Y466D01*
X2544Y466D02*
X2550Y466D01*
X3197Y466D02*
X3204Y466D01*
X0Y465D02*
X7Y465D01*
X2494Y465D02*
X2500Y465D01*
X2512Y465D02*
X2519Y465D01*
X2544Y465D02*
X2550Y465D01*
X3197Y465D02*
X3204Y465D01*
X0Y464D02*
X7Y464D01*
X2494Y464D02*
X2500Y464D01*
X2513Y464D02*
X2520Y464D01*
X2544Y464D02*
X2550Y464D01*
X3197Y464D02*
X3204Y464D01*
X0Y463D02*
X7Y463D01*
X2494Y463D02*
X2500Y463D01*
X2513Y463D02*
X2521Y463D01*
X2544Y463D02*
X2550Y463D01*
X3197Y463D02*
X3204Y463D01*
X0Y462D02*
X7Y462D01*
X2494Y462D02*
X2500Y462D01*
X2514Y462D02*
X2521Y462D01*
X2544Y462D02*
X2550Y462D01*
X3197Y462D02*
X3204Y462D01*
X0Y461D02*
X7Y461D01*
X2494Y461D02*
X2500Y461D01*
X2515Y461D02*
X2522Y461D01*
X2544Y461D02*
X2550Y461D01*
X3197Y461D02*
X3204Y461D01*
X0Y460D02*
X7Y460D01*
X2494Y460D02*
X2500Y460D01*
X2515Y460D02*
X2522Y460D01*
X2544Y460D02*
X2550Y460D01*
X3197Y460D02*
X3204Y460D01*
X0Y459D02*
X7Y459D01*
X2494Y459D02*
X2500Y459D01*
X2516Y459D02*
X2523Y459D01*
X2544Y459D02*
X2550Y459D01*
X3197Y459D02*
X3204Y459D01*
X0Y458D02*
X7Y458D01*
X2494Y458D02*
X2500Y458D01*
X2516Y458D02*
X2524Y458D01*
X2544Y458D02*
X2550Y458D01*
X3197Y458D02*
X3204Y458D01*
X0Y457D02*
X7Y457D01*
X2494Y457D02*
X2500Y457D01*
X2517Y457D02*
X2524Y457D01*
X2544Y457D02*
X2550Y457D01*
X3197Y457D02*
X3204Y457D01*
X0Y456D02*
X7Y456D01*
X2494Y456D02*
X2500Y456D01*
X2517Y456D02*
X2525Y456D01*
X2544Y456D02*
X2550Y456D01*
X3197Y456D02*
X3204Y456D01*
X0Y455D02*
X7Y455D01*
X2494Y455D02*
X2500Y455D01*
X2518Y455D02*
X2525Y455D01*
X2544Y455D02*
X2550Y455D01*
X3197Y455D02*
X3204Y455D01*
X0Y454D02*
X7Y454D01*
X2494Y454D02*
X2500Y454D01*
X2519Y454D02*
X2526Y454D01*
X2544Y454D02*
X2574Y454D01*
X3197Y454D02*
X3204Y454D01*
X0Y453D02*
X7Y453D01*
X2494Y453D02*
X2500Y453D01*
X2519Y453D02*
X2526Y453D01*
X2544Y453D02*
X2576Y453D01*
X3197Y453D02*
X3204Y453D01*
X0Y452D02*
X7Y452D01*
X2494Y452D02*
X2500Y452D01*
X2520Y452D02*
X2527Y452D01*
X2544Y452D02*
X2577Y452D01*
X3197Y452D02*
X3204Y452D01*
X0Y451D02*
X7Y451D01*
X2494Y451D02*
X2500Y451D01*
X2520Y451D02*
X2527Y451D01*
X2544Y451D02*
X2577Y451D01*
X3197Y451D02*
X3204Y451D01*
X0Y450D02*
X7Y450D01*
X2494Y450D02*
X2500Y450D01*
X2521Y450D02*
X2527Y450D01*
X2544Y450D02*
X2577Y450D01*
X3197Y450D02*
X3204Y450D01*
X0Y449D02*
X7Y449D01*
X2494Y449D02*
X2499Y449D01*
X2522Y449D02*
X2527Y449D01*
X2544Y449D02*
X2577Y449D01*
X3197Y449D02*
X3204Y449D01*
X0Y448D02*
X7Y448D01*
X2495Y448D02*
X2499Y448D01*
X2522Y448D02*
X2526Y448D01*
X2544Y448D02*
X2576Y448D01*
X3197Y448D02*
X3204Y448D01*
X0Y447D02*
X7Y447D01*
X3197Y447D02*
X3204Y447D01*
X0Y446D02*
X7Y446D01*
X3197Y446D02*
X3204Y446D01*
X0Y445D02*
X7Y445D01*
X3197Y445D02*
X3204Y445D01*
X0Y444D02*
X7Y444D01*
X3197Y444D02*
X3204Y444D01*
X0Y443D02*
X7Y443D01*
X3197Y443D02*
X3204Y443D01*
X0Y442D02*
X7Y442D01*
X3197Y442D02*
X3204Y442D01*
X0Y441D02*
X7Y441D01*
X3197Y441D02*
X3204Y441D01*
X0Y440D02*
X7Y440D01*
X3197Y440D02*
X3204Y440D01*
X0Y439D02*
X7Y439D01*
X3197Y439D02*
X3204Y439D01*
X0Y438D02*
X7Y438D01*
X3197Y438D02*
X3204Y438D01*
X0Y437D02*
X7Y437D01*
X3197Y437D02*
X3204Y437D01*
X0Y436D02*
X7Y436D01*
X3197Y436D02*
X3204Y436D01*
X0Y435D02*
X7Y435D01*
X3197Y435D02*
X3204Y435D01*
X0Y434D02*
X7Y434D01*
X3197Y434D02*
X3204Y434D01*
X0Y433D02*
X7Y433D01*
X3197Y433D02*
X3204Y433D01*
X0Y432D02*
X7Y432D01*
X3197Y432D02*
X3204Y432D01*
X0Y431D02*
X7Y431D01*
X3197Y431D02*
X3204Y431D01*
X0Y430D02*
X7Y430D01*
X3197Y430D02*
X3204Y430D01*
X0Y429D02*
X7Y429D01*
X3197Y429D02*
X3204Y429D01*
X0Y428D02*
X7Y428D01*
X3197Y428D02*
X3204Y428D01*
X0Y427D02*
X7Y427D01*
X3197Y427D02*
X3204Y427D01*
X0Y426D02*
X7Y426D01*
X3197Y426D02*
X3204Y426D01*
X0Y425D02*
X7Y425D01*
X3197Y425D02*
X3204Y425D01*
X0Y424D02*
X7Y424D01*
X3197Y424D02*
X3204Y424D01*
X0Y423D02*
X7Y423D01*
X3197Y423D02*
X3204Y423D01*
X0Y422D02*
X7Y422D01*
X3197Y422D02*
X3204Y422D01*
X0Y421D02*
X7Y421D01*
X3197Y421D02*
X3204Y421D01*
X0Y420D02*
X7Y420D01*
X3197Y420D02*
X3204Y420D01*
X0Y419D02*
X7Y419D01*
X3197Y419D02*
X3204Y419D01*
X0Y418D02*
X7Y418D01*
X3197Y418D02*
X3204Y418D01*
X0Y417D02*
X7Y417D01*
X3197Y417D02*
X3204Y417D01*
X0Y416D02*
X7Y416D01*
X3197Y416D02*
X3204Y416D01*
X0Y415D02*
X7Y415D01*
X3197Y415D02*
X3204Y415D01*
X0Y414D02*
X7Y414D01*
X3197Y414D02*
X3204Y414D01*
X0Y413D02*
X7Y413D01*
X3197Y413D02*
X3204Y413D01*
X0Y412D02*
X7Y412D01*
X3197Y412D02*
X3204Y412D01*
X0Y411D02*
X7Y411D01*
X3197Y411D02*
X3204Y411D01*
X0Y410D02*
X7Y410D01*
X3197Y410D02*
X3204Y410D01*
X0Y409D02*
X7Y409D01*
X3197Y409D02*
X3204Y409D01*
X0Y408D02*
X7Y408D01*
X3197Y408D02*
X3204Y408D01*
X0Y407D02*
X7Y407D01*
X3197Y407D02*
X3204Y407D01*
X0Y406D02*
X7Y406D01*
X3197Y406D02*
X3204Y406D01*
X0Y405D02*
X7Y405D01*
X3197Y405D02*
X3204Y405D01*
X0Y404D02*
X7Y404D01*
X3197Y404D02*
X3204Y404D01*
X0Y403D02*
X7Y403D01*
X3197Y403D02*
X3204Y403D01*
X0Y402D02*
X7Y402D01*
X3197Y402D02*
X3204Y402D01*
X0Y401D02*
X7Y401D01*
X3197Y401D02*
X3204Y401D01*
X0Y400D02*
X7Y400D01*
X3197Y400D02*
X3204Y400D01*
X0Y399D02*
X7Y399D01*
X3197Y399D02*
X3204Y399D01*
X0Y398D02*
X7Y398D01*
X3197Y398D02*
X3204Y398D01*
X0Y397D02*
X7Y397D01*
X3197Y397D02*
X3204Y397D01*
X0Y396D02*
X7Y396D01*
X3197Y396D02*
X3204Y396D01*
X0Y395D02*
X7Y395D01*
X3197Y395D02*
X3204Y395D01*
X0Y394D02*
X7Y394D01*
X3197Y394D02*
X3204Y394D01*
X0Y393D02*
X7Y393D01*
X3197Y393D02*
X3204Y393D01*
X0Y392D02*
X7Y392D01*
X3197Y392D02*
X3204Y392D01*
X0Y391D02*
X7Y391D01*
X2599Y391D02*
X2618Y391D01*
X3197Y391D02*
X3204Y391D01*
X0Y390D02*
X7Y390D01*
X2598Y390D02*
X2620Y390D01*
X3197Y390D02*
X3204Y390D01*
X0Y389D02*
X7Y389D01*
X2597Y389D02*
X2620Y389D01*
X3197Y389D02*
X3204Y389D01*
X0Y388D02*
X7Y388D01*
X2597Y388D02*
X2621Y388D01*
X3197Y388D02*
X3204Y388D01*
X0Y387D02*
X7Y387D01*
X2597Y387D02*
X2621Y387D01*
X3197Y387D02*
X3204Y387D01*
X0Y386D02*
X7Y386D01*
X2597Y386D02*
X2621Y386D01*
X3197Y386D02*
X3204Y386D01*
X0Y385D02*
X7Y385D01*
X2598Y385D02*
X2621Y385D01*
X3197Y385D02*
X3204Y385D01*
X0Y384D02*
X7Y384D01*
X2614Y384D02*
X2621Y384D01*
X3197Y384D02*
X3204Y384D01*
X0Y383D02*
X7Y383D01*
X2091Y383D02*
X2157Y383D01*
X2358Y383D02*
X2405Y383D01*
X2615Y383D02*
X2621Y383D01*
X3197Y383D02*
X3204Y383D01*
X0Y382D02*
X7Y382D01*
X2091Y382D02*
X2157Y382D01*
X2358Y382D02*
X2405Y382D01*
X2615Y382D02*
X2621Y382D01*
X3197Y382D02*
X3204Y382D01*
X0Y381D02*
X7Y381D01*
X2091Y381D02*
X2157Y381D01*
X2358Y381D02*
X2405Y381D01*
X2615Y381D02*
X2621Y381D01*
X3197Y381D02*
X3204Y381D01*
X0Y380D02*
X7Y380D01*
X2091Y380D02*
X2157Y380D01*
X2358Y380D02*
X2405Y380D01*
X2615Y380D02*
X2621Y380D01*
X3197Y380D02*
X3204Y380D01*
X0Y379D02*
X7Y379D01*
X2091Y379D02*
X2157Y379D01*
X2358Y379D02*
X2405Y379D01*
X2615Y379D02*
X2621Y379D01*
X3197Y379D02*
X3204Y379D01*
X0Y378D02*
X7Y378D01*
X2091Y378D02*
X2157Y378D01*
X2358Y378D02*
X2405Y378D01*
X2615Y378D02*
X2621Y378D01*
X3197Y378D02*
X3204Y378D01*
X0Y377D02*
X7Y377D01*
X2091Y377D02*
X2157Y377D01*
X2358Y377D02*
X2405Y377D01*
X2567Y377D02*
X2621Y377D01*
X3197Y377D02*
X3204Y377D01*
X0Y376D02*
X7Y376D01*
X2091Y376D02*
X2157Y376D01*
X2358Y376D02*
X2405Y376D01*
X2567Y376D02*
X2621Y376D01*
X3197Y376D02*
X3204Y376D01*
X0Y375D02*
X7Y375D01*
X2091Y375D02*
X2157Y375D01*
X2358Y375D02*
X2405Y375D01*
X2567Y375D02*
X2621Y375D01*
X3197Y375D02*
X3204Y375D01*
X0Y374D02*
X7Y374D01*
X2091Y374D02*
X2157Y374D01*
X2358Y374D02*
X2405Y374D01*
X2567Y374D02*
X2621Y374D01*
X3197Y374D02*
X3204Y374D01*
X0Y373D02*
X7Y373D01*
X2567Y373D02*
X2621Y373D01*
X3197Y373D02*
X3204Y373D01*
X0Y372D02*
X7Y372D01*
X2567Y372D02*
X2621Y372D01*
X3197Y372D02*
X3204Y372D01*
X0Y371D02*
X7Y371D01*
X2567Y371D02*
X2621Y371D01*
X3197Y371D02*
X3204Y371D01*
X0Y370D02*
X7Y370D01*
X2567Y370D02*
X2574Y370D01*
X2615Y370D02*
X2621Y370D01*
X3197Y370D02*
X3204Y370D01*
X0Y369D02*
X7Y369D01*
X2567Y369D02*
X2574Y369D01*
X2615Y369D02*
X2621Y369D01*
X3197Y369D02*
X3204Y369D01*
X0Y368D02*
X7Y368D01*
X2567Y368D02*
X2574Y368D01*
X2615Y368D02*
X2621Y368D01*
X3197Y368D02*
X3204Y368D01*
X0Y367D02*
X7Y367D01*
X2567Y367D02*
X2574Y367D01*
X2615Y367D02*
X2621Y367D01*
X3197Y367D02*
X3204Y367D01*
X0Y366D02*
X7Y366D01*
X2567Y366D02*
X2574Y366D01*
X2615Y366D02*
X2621Y366D01*
X3197Y366D02*
X3204Y366D01*
X0Y365D02*
X7Y365D01*
X2567Y365D02*
X2574Y365D01*
X2615Y365D02*
X2621Y365D01*
X3197Y365D02*
X3204Y365D01*
X0Y364D02*
X7Y364D01*
X2567Y364D02*
X2574Y364D01*
X2615Y364D02*
X2621Y364D01*
X3197Y364D02*
X3204Y364D01*
X0Y363D02*
X7Y363D01*
X2567Y363D02*
X2574Y363D01*
X2615Y363D02*
X2621Y363D01*
X3197Y363D02*
X3204Y363D01*
X0Y362D02*
X7Y362D01*
X2567Y362D02*
X2574Y362D01*
X2615Y362D02*
X2621Y362D01*
X3197Y362D02*
X3204Y362D01*
X0Y361D02*
X7Y361D01*
X2567Y361D02*
X2574Y361D01*
X2615Y361D02*
X2621Y361D01*
X3197Y361D02*
X3204Y361D01*
X0Y360D02*
X7Y360D01*
X2568Y360D02*
X2573Y360D01*
X2615Y360D02*
X2621Y360D01*
X3197Y360D02*
X3204Y360D01*
X0Y359D02*
X7Y359D01*
X2568Y359D02*
X2573Y359D01*
X2615Y359D02*
X2620Y359D01*
X3197Y359D02*
X3204Y359D01*
X0Y358D02*
X7Y358D01*
X2568Y358D02*
X2573Y358D01*
X2616Y358D02*
X2620Y358D01*
X3197Y358D02*
X3204Y358D01*
X0Y357D02*
X7Y357D01*
X2570Y357D02*
X2571Y357D01*
X2617Y357D02*
X2618Y357D01*
X3197Y357D02*
X3204Y357D01*
X0Y356D02*
X7Y356D01*
X3197Y356D02*
X3204Y356D01*
X0Y355D02*
X7Y355D01*
X3197Y355D02*
X3204Y355D01*
X0Y354D02*
X7Y354D01*
X3197Y354D02*
X3204Y354D01*
X0Y353D02*
X7Y353D01*
X3197Y353D02*
X3204Y353D01*
X0Y352D02*
X7Y352D01*
X3197Y352D02*
X3204Y352D01*
X0Y351D02*
X7Y351D01*
X3197Y351D02*
X3204Y351D01*
X0Y350D02*
X7Y350D01*
X3197Y350D02*
X3204Y350D01*
X0Y349D02*
X7Y349D01*
X3197Y349D02*
X3204Y349D01*
X0Y348D02*
X7Y348D01*
X3197Y348D02*
X3204Y348D01*
X0Y347D02*
X7Y347D01*
X3197Y347D02*
X3204Y347D01*
X0Y346D02*
X7Y346D01*
X3197Y346D02*
X3204Y346D01*
X0Y345D02*
X7Y345D01*
X3197Y345D02*
X3204Y345D01*
X0Y344D02*
X7Y344D01*
X3197Y344D02*
X3204Y344D01*
X0Y343D02*
X7Y343D01*
X3197Y343D02*
X3204Y343D01*
X0Y342D02*
X7Y342D01*
X3197Y342D02*
X3204Y342D01*
X0Y341D02*
X7Y341D01*
X3197Y341D02*
X3204Y341D01*
X0Y340D02*
X7Y340D01*
X1828Y340D02*
X1829Y340D01*
X3197Y340D02*
X3204Y340D01*
X0Y339D02*
X7Y339D01*
X1664Y339D02*
X1664Y339D01*
X1827Y339D02*
X1832Y339D01*
X3197Y339D02*
X3204Y339D01*
X0Y338D02*
X7Y338D01*
X1661Y338D02*
X1665Y338D01*
X1826Y338D02*
X1834Y338D01*
X3197Y338D02*
X3204Y338D01*
X0Y337D02*
X7Y337D01*
X1658Y337D02*
X1665Y337D01*
X1826Y337D02*
X1835Y337D01*
X2569Y337D02*
X2614Y337D01*
X3197Y337D02*
X3204Y337D01*
X0Y336D02*
X7Y336D01*
X1656Y336D02*
X1665Y336D01*
X1826Y336D02*
X1835Y336D01*
X2568Y336D02*
X2616Y336D01*
X3197Y336D02*
X3204Y336D01*
X0Y335D02*
X7Y335D01*
X1656Y335D02*
X1665Y335D01*
X1826Y335D02*
X1835Y335D01*
X2568Y335D02*
X2617Y335D01*
X3197Y335D02*
X3204Y335D01*
X0Y334D02*
X7Y334D01*
X1656Y334D02*
X1665Y334D01*
X1826Y334D02*
X1835Y334D01*
X2568Y334D02*
X2618Y334D01*
X3197Y334D02*
X3204Y334D01*
X0Y333D02*
X7Y333D01*
X1656Y333D02*
X1666Y333D01*
X1826Y333D02*
X1835Y333D01*
X2568Y333D02*
X2619Y333D01*
X3197Y333D02*
X3204Y333D01*
X0Y332D02*
X7Y332D01*
X1657Y332D02*
X1666Y332D01*
X1826Y332D02*
X1835Y332D01*
X2568Y332D02*
X2620Y332D01*
X3197Y332D02*
X3204Y332D01*
X0Y331D02*
X7Y331D01*
X1657Y331D02*
X1666Y331D01*
X1826Y331D02*
X1835Y331D01*
X2570Y331D02*
X2620Y331D01*
X3197Y331D02*
X3204Y331D01*
X0Y330D02*
X7Y330D01*
X1657Y330D02*
X1666Y330D01*
X1825Y330D02*
X1834Y330D01*
X2613Y330D02*
X2620Y330D01*
X3197Y330D02*
X3204Y330D01*
X0Y329D02*
X7Y329D01*
X1657Y329D02*
X1666Y329D01*
X1825Y329D02*
X1834Y329D01*
X2614Y329D02*
X2621Y329D01*
X3197Y329D02*
X3204Y329D01*
X0Y328D02*
X7Y328D01*
X1657Y328D02*
X1667Y328D01*
X1825Y328D02*
X1834Y328D01*
X2614Y328D02*
X2621Y328D01*
X3197Y328D02*
X3204Y328D01*
X0Y327D02*
X7Y327D01*
X1657Y327D02*
X1667Y327D01*
X1825Y327D02*
X1834Y327D01*
X2615Y327D02*
X2621Y327D01*
X3197Y327D02*
X3204Y327D01*
X0Y326D02*
X7Y326D01*
X1658Y326D02*
X1667Y326D01*
X1824Y326D02*
X1834Y326D01*
X2615Y326D02*
X2621Y326D01*
X3197Y326D02*
X3204Y326D01*
X0Y325D02*
X7Y325D01*
X1658Y325D02*
X1668Y325D01*
X1824Y325D02*
X1833Y325D01*
X2615Y325D02*
X2621Y325D01*
X3197Y325D02*
X3204Y325D01*
X0Y324D02*
X7Y324D01*
X1658Y324D02*
X1668Y324D01*
X1823Y324D02*
X1833Y324D01*
X2615Y324D02*
X2621Y324D01*
X3197Y324D02*
X3204Y324D01*
X0Y323D02*
X7Y323D01*
X1659Y323D02*
X1668Y323D01*
X1823Y323D02*
X1832Y323D01*
X2615Y323D02*
X2621Y323D01*
X3197Y323D02*
X3204Y323D01*
X0Y322D02*
X7Y322D01*
X1659Y322D02*
X1669Y322D01*
X1822Y322D02*
X1832Y322D01*
X2615Y322D02*
X2621Y322D01*
X3197Y322D02*
X3204Y322D01*
X0Y321D02*
X7Y321D01*
X1660Y321D02*
X1669Y321D01*
X1822Y321D02*
X1832Y321D01*
X2615Y321D02*
X2621Y321D01*
X3197Y321D02*
X3204Y321D01*
X0Y320D02*
X7Y320D01*
X1660Y320D02*
X1670Y320D01*
X1821Y320D02*
X1831Y320D01*
X2615Y320D02*
X2621Y320D01*
X3197Y320D02*
X3204Y320D01*
X0Y319D02*
X7Y319D01*
X1661Y319D02*
X1671Y319D01*
X1821Y319D02*
X1831Y319D01*
X2614Y319D02*
X2621Y319D01*
X3197Y319D02*
X3204Y319D01*
X0Y318D02*
X7Y318D01*
X1661Y318D02*
X1671Y318D01*
X1820Y318D02*
X1830Y318D01*
X2613Y318D02*
X2620Y318D01*
X3197Y318D02*
X3204Y318D01*
X0Y317D02*
X7Y317D01*
X1662Y317D02*
X1672Y317D01*
X1819Y317D02*
X1830Y317D01*
X2600Y317D02*
X2620Y317D01*
X3197Y317D02*
X3204Y317D01*
X0Y316D02*
X7Y316D01*
X1662Y316D02*
X1673Y316D01*
X1818Y316D02*
X1829Y316D01*
X2598Y316D02*
X2620Y316D01*
X3197Y316D02*
X3204Y316D01*
X0Y315D02*
X7Y315D01*
X1663Y315D02*
X1674Y315D01*
X1818Y315D02*
X1829Y315D01*
X2597Y315D02*
X2619Y315D01*
X3197Y315D02*
X3204Y315D01*
X0Y314D02*
X7Y314D01*
X1663Y314D02*
X1675Y314D01*
X1817Y314D02*
X1828Y314D01*
X2597Y314D02*
X2618Y314D01*
X3197Y314D02*
X3204Y314D01*
X0Y313D02*
X7Y313D01*
X1664Y313D02*
X1676Y313D01*
X1816Y313D02*
X1827Y313D01*
X2597Y313D02*
X2617Y313D01*
X3197Y313D02*
X3204Y313D01*
X0Y312D02*
X7Y312D01*
X1665Y312D02*
X1677Y312D01*
X1815Y312D02*
X1827Y312D01*
X2597Y312D02*
X2616Y312D01*
X3197Y312D02*
X3204Y312D01*
X0Y311D02*
X7Y311D01*
X1666Y311D02*
X1678Y311D01*
X1814Y311D02*
X1826Y311D01*
X2598Y311D02*
X2614Y311D01*
X3197Y311D02*
X3204Y311D01*
X0Y310D02*
X7Y310D01*
X1666Y310D02*
X1679Y310D01*
X1813Y310D02*
X1825Y310D01*
X3197Y310D02*
X3204Y310D01*
X0Y309D02*
X7Y309D01*
X1667Y309D02*
X1680Y309D01*
X1811Y309D02*
X1824Y309D01*
X3197Y309D02*
X3204Y309D01*
X0Y308D02*
X7Y308D01*
X1668Y308D02*
X1681Y308D01*
X1810Y308D02*
X1823Y308D01*
X3197Y308D02*
X3204Y308D01*
X0Y307D02*
X7Y307D01*
X1669Y307D02*
X1682Y307D01*
X1809Y307D02*
X1822Y307D01*
X3197Y307D02*
X3204Y307D01*
X0Y306D02*
X7Y306D01*
X1670Y306D02*
X1684Y306D01*
X1807Y306D02*
X1822Y306D01*
X3197Y306D02*
X3204Y306D01*
X0Y305D02*
X7Y305D01*
X1671Y305D02*
X1685Y305D01*
X1806Y305D02*
X1821Y305D01*
X3197Y305D02*
X3204Y305D01*
X0Y304D02*
X7Y304D01*
X1672Y304D02*
X1687Y304D01*
X1805Y304D02*
X1820Y304D01*
X3197Y304D02*
X3204Y304D01*
X0Y303D02*
X7Y303D01*
X1673Y303D02*
X1688Y303D01*
X1803Y303D02*
X1819Y303D01*
X3197Y303D02*
X3204Y303D01*
X0Y302D02*
X7Y302D01*
X1674Y302D02*
X1690Y302D01*
X1801Y302D02*
X1817Y302D01*
X3197Y302D02*
X3204Y302D01*
X0Y301D02*
X7Y301D01*
X1675Y301D02*
X1692Y301D01*
X1799Y301D02*
X1816Y301D01*
X3197Y301D02*
X3204Y301D01*
X0Y300D02*
X7Y300D01*
X1676Y300D02*
X1694Y300D01*
X1798Y300D02*
X1815Y300D01*
X3197Y300D02*
X3204Y300D01*
X0Y299D02*
X7Y299D01*
X1678Y299D02*
X1696Y299D01*
X1795Y299D02*
X1814Y299D01*
X3197Y299D02*
X3204Y299D01*
X0Y298D02*
X7Y298D01*
X1679Y298D02*
X1698Y298D01*
X1793Y298D02*
X1812Y298D01*
X3197Y298D02*
X3204Y298D01*
X0Y297D02*
X7Y297D01*
X1680Y297D02*
X1700Y297D01*
X1791Y297D02*
X1811Y297D01*
X3197Y297D02*
X3204Y297D01*
X0Y296D02*
X7Y296D01*
X1682Y296D02*
X1703Y296D01*
X1788Y296D02*
X1810Y296D01*
X3197Y296D02*
X3204Y296D01*
X0Y295D02*
X7Y295D01*
X1683Y295D02*
X1706Y295D01*
X1786Y295D02*
X1808Y295D01*
X3197Y295D02*
X3204Y295D01*
X0Y294D02*
X7Y294D01*
X1685Y294D02*
X1709Y294D01*
X1783Y294D02*
X1806Y294D01*
X3197Y294D02*
X3204Y294D01*
X0Y293D02*
X7Y293D01*
X1687Y293D02*
X1712Y293D01*
X1779Y293D02*
X1805Y293D01*
X3197Y293D02*
X3204Y293D01*
X0Y292D02*
X7Y292D01*
X1689Y292D02*
X1716Y292D01*
X1775Y292D02*
X1803Y292D01*
X3197Y292D02*
X3204Y292D01*
X0Y291D02*
X7Y291D01*
X1690Y291D02*
X1721Y291D01*
X1771Y291D02*
X1801Y291D01*
X3197Y291D02*
X3204Y291D01*
X0Y290D02*
X7Y290D01*
X1693Y290D02*
X1727Y290D01*
X1765Y290D02*
X1799Y290D01*
X3197Y290D02*
X3204Y290D01*
X0Y289D02*
X7Y289D01*
X1695Y289D02*
X1736Y289D01*
X1755Y289D02*
X1797Y289D01*
X3197Y289D02*
X3204Y289D01*
X0Y288D02*
X7Y288D01*
X1697Y288D02*
X1794Y288D01*
X3197Y288D02*
X3204Y288D01*
X0Y287D02*
X7Y287D01*
X1700Y287D02*
X1792Y287D01*
X3197Y287D02*
X3204Y287D01*
X0Y286D02*
X7Y286D01*
X1702Y286D02*
X1789Y286D01*
X3197Y286D02*
X3204Y286D01*
X0Y285D02*
X7Y285D01*
X1705Y285D02*
X1786Y285D01*
X3197Y285D02*
X3204Y285D01*
X0Y284D02*
X7Y284D01*
X1709Y284D02*
X1783Y284D01*
X3197Y284D02*
X3204Y284D01*
X0Y283D02*
X7Y283D01*
X1712Y283D02*
X1779Y283D01*
X3197Y283D02*
X3204Y283D01*
X0Y282D02*
X7Y282D01*
X1716Y282D02*
X1775Y282D01*
X3197Y282D02*
X3204Y282D01*
X0Y281D02*
X7Y281D01*
X1721Y281D02*
X1770Y281D01*
X3197Y281D02*
X3204Y281D01*
X0Y280D02*
X7Y280D01*
X1727Y280D02*
X1764Y280D01*
X3197Y280D02*
X3204Y280D01*
X0Y279D02*
X7Y279D01*
X1737Y279D02*
X1755Y279D01*
X3197Y279D02*
X3204Y279D01*
X0Y278D02*
X7Y278D01*
X3197Y278D02*
X3204Y278D01*
X0Y277D02*
X7Y277D01*
X3197Y277D02*
X3204Y277D01*
X0Y276D02*
X7Y276D01*
X3197Y276D02*
X3204Y276D01*
X0Y275D02*
X7Y275D01*
X3197Y275D02*
X3204Y275D01*
X0Y274D02*
X7Y274D01*
X3197Y274D02*
X3204Y274D01*
X0Y273D02*
X7Y273D01*
X3197Y273D02*
X3204Y273D01*
X0Y272D02*
X7Y272D01*
X3197Y272D02*
X3204Y272D01*
X0Y271D02*
X7Y271D01*
X3197Y271D02*
X3204Y271D01*
X0Y270D02*
X7Y270D01*
X3197Y270D02*
X3204Y270D01*
X0Y269D02*
X7Y269D01*
X3197Y269D02*
X3204Y269D01*
X0Y268D02*
X7Y268D01*
X3197Y268D02*
X3204Y268D01*
X0Y267D02*
X7Y267D01*
X3197Y267D02*
X3204Y267D01*
X0Y266D02*
X7Y266D01*
X3197Y266D02*
X3204Y266D01*
X0Y265D02*
X7Y265D01*
X3197Y265D02*
X3204Y265D01*
X0Y264D02*
X7Y264D01*
X3197Y264D02*
X3204Y264D01*
X0Y263D02*
X7Y263D01*
X3197Y263D02*
X3204Y263D01*
X0Y262D02*
X7Y262D01*
X3197Y262D02*
X3204Y262D01*
X0Y261D02*
X7Y261D01*
X3197Y261D02*
X3204Y261D01*
X0Y260D02*
X7Y260D01*
X3197Y260D02*
X3204Y260D01*
X0Y259D02*
X7Y259D01*
X3197Y259D02*
X3204Y259D01*
X0Y258D02*
X7Y258D01*
X3197Y258D02*
X3204Y258D01*
X0Y257D02*
X7Y257D01*
X3197Y257D02*
X3204Y257D01*
X0Y256D02*
X7Y256D01*
X3197Y256D02*
X3204Y256D01*
X0Y255D02*
X7Y255D01*
X3197Y255D02*
X3204Y255D01*
X0Y254D02*
X7Y254D01*
X3197Y254D02*
X3204Y254D01*
X0Y253D02*
X7Y253D01*
X99Y253D02*
X130Y253D01*
X159Y253D02*
X168Y253D01*
X3197Y253D02*
X3204Y253D01*
X0Y252D02*
X7Y252D01*
X97Y252D02*
X130Y252D01*
X156Y252D02*
X171Y252D01*
X3197Y252D02*
X3204Y252D01*
X0Y251D02*
X7Y251D01*
X97Y251D02*
X130Y251D01*
X154Y251D02*
X172Y251D01*
X3197Y251D02*
X3204Y251D01*
X0Y250D02*
X7Y250D01*
X96Y250D02*
X130Y250D01*
X153Y250D02*
X173Y250D01*
X3197Y250D02*
X3204Y250D01*
X0Y249D02*
X7Y249D01*
X97Y249D02*
X130Y249D01*
X152Y249D02*
X174Y249D01*
X3197Y249D02*
X3204Y249D01*
X0Y248D02*
X7Y248D01*
X97Y248D02*
X130Y248D01*
X151Y248D02*
X175Y248D01*
X3197Y248D02*
X3204Y248D01*
X0Y247D02*
X7Y247D01*
X98Y247D02*
X130Y247D01*
X151Y247D02*
X176Y247D01*
X3197Y247D02*
X3204Y247D01*
X0Y246D02*
X7Y246D01*
X124Y246D02*
X130Y246D01*
X150Y246D02*
X159Y246D01*
X168Y246D02*
X176Y246D01*
X3197Y246D02*
X3204Y246D01*
X0Y245D02*
X7Y245D01*
X124Y245D02*
X130Y245D01*
X150Y245D02*
X157Y245D01*
X170Y245D02*
X176Y245D01*
X3197Y245D02*
X3204Y245D01*
X0Y244D02*
X7Y244D01*
X124Y244D02*
X130Y244D01*
X150Y244D02*
X156Y244D01*
X170Y244D02*
X176Y244D01*
X3197Y244D02*
X3204Y244D01*
X0Y243D02*
X7Y243D01*
X124Y243D02*
X130Y243D01*
X150Y243D02*
X156Y243D01*
X170Y243D02*
X177Y243D01*
X3197Y243D02*
X3204Y243D01*
X0Y242D02*
X7Y242D01*
X124Y242D02*
X130Y242D01*
X150Y242D02*
X156Y242D01*
X171Y242D02*
X177Y242D01*
X3197Y242D02*
X3204Y242D01*
X0Y241D02*
X7Y241D01*
X124Y241D02*
X130Y241D01*
X150Y241D02*
X156Y241D01*
X171Y241D02*
X177Y241D01*
X3197Y241D02*
X3204Y241D01*
X0Y240D02*
X7Y240D01*
X124Y240D02*
X130Y240D01*
X150Y240D02*
X156Y240D01*
X171Y240D02*
X177Y240D01*
X3197Y240D02*
X3204Y240D01*
X0Y239D02*
X7Y239D01*
X124Y239D02*
X130Y239D01*
X150Y239D02*
X156Y239D01*
X171Y239D02*
X177Y239D01*
X3197Y239D02*
X3204Y239D01*
X0Y238D02*
X7Y238D01*
X124Y238D02*
X130Y238D01*
X150Y238D02*
X156Y238D01*
X171Y238D02*
X177Y238D01*
X3197Y238D02*
X3204Y238D01*
X0Y237D02*
X7Y237D01*
X124Y237D02*
X130Y237D01*
X150Y237D02*
X156Y237D01*
X171Y237D02*
X177Y237D01*
X3197Y237D02*
X3204Y237D01*
X0Y236D02*
X7Y236D01*
X124Y236D02*
X130Y236D01*
X150Y236D02*
X156Y236D01*
X171Y236D02*
X177Y236D01*
X3197Y236D02*
X3204Y236D01*
X0Y235D02*
X7Y235D01*
X124Y235D02*
X130Y235D01*
X150Y235D02*
X156Y235D01*
X171Y235D02*
X177Y235D01*
X3197Y235D02*
X3204Y235D01*
X0Y234D02*
X7Y234D01*
X124Y234D02*
X130Y234D01*
X150Y234D02*
X156Y234D01*
X171Y234D02*
X177Y234D01*
X3197Y234D02*
X3204Y234D01*
X0Y233D02*
X7Y233D01*
X124Y233D02*
X130Y233D01*
X150Y233D02*
X156Y233D01*
X171Y233D02*
X177Y233D01*
X3197Y233D02*
X3204Y233D01*
X0Y232D02*
X7Y232D01*
X124Y232D02*
X130Y232D01*
X150Y232D02*
X156Y232D01*
X171Y232D02*
X177Y232D01*
X3197Y232D02*
X3204Y232D01*
X0Y231D02*
X7Y231D01*
X124Y231D02*
X130Y231D01*
X150Y231D02*
X156Y231D01*
X171Y231D02*
X176Y231D01*
X3197Y231D02*
X3204Y231D01*
X0Y230D02*
X7Y230D01*
X124Y230D02*
X130Y230D01*
X150Y230D02*
X156Y230D01*
X171Y230D02*
X176Y230D01*
X3197Y230D02*
X3204Y230D01*
X0Y229D02*
X7Y229D01*
X101Y229D02*
X130Y229D01*
X150Y229D02*
X156Y229D01*
X172Y229D02*
X175Y229D01*
X3197Y229D02*
X3204Y229D01*
X0Y228D02*
X7Y228D01*
X99Y228D02*
X130Y228D01*
X150Y228D02*
X156Y228D01*
X3197Y228D02*
X3204Y228D01*
X0Y227D02*
X7Y227D01*
X98Y227D02*
X129Y227D01*
X150Y227D02*
X156Y227D01*
X3197Y227D02*
X3204Y227D01*
X0Y226D02*
X7Y226D01*
X97Y226D02*
X129Y226D01*
X150Y226D02*
X156Y226D01*
X3197Y226D02*
X3204Y226D01*
X0Y225D02*
X7Y225D01*
X97Y225D02*
X128Y225D01*
X150Y225D02*
X156Y225D01*
X3197Y225D02*
X3204Y225D01*
X0Y224D02*
X7Y224D01*
X97Y224D02*
X127Y224D01*
X150Y224D02*
X156Y224D01*
X3197Y224D02*
X3204Y224D01*
X0Y223D02*
X7Y223D01*
X96Y223D02*
X125Y223D01*
X150Y223D02*
X156Y223D01*
X3197Y223D02*
X3204Y223D01*
X0Y222D02*
X7Y222D01*
X96Y222D02*
X102Y222D01*
X150Y222D02*
X156Y222D01*
X3197Y222D02*
X3204Y222D01*
X0Y221D02*
X7Y221D01*
X96Y221D02*
X102Y221D01*
X150Y221D02*
X156Y221D01*
X3197Y221D02*
X3204Y221D01*
X0Y220D02*
X7Y220D01*
X96Y220D02*
X102Y220D01*
X150Y220D02*
X156Y220D01*
X3197Y220D02*
X3204Y220D01*
X0Y219D02*
X7Y219D01*
X96Y219D02*
X102Y219D01*
X150Y219D02*
X156Y219D01*
X3197Y219D02*
X3204Y219D01*
X0Y218D02*
X7Y218D01*
X96Y218D02*
X102Y218D01*
X150Y218D02*
X156Y218D01*
X3197Y218D02*
X3204Y218D01*
X0Y217D02*
X7Y217D01*
X96Y217D02*
X102Y217D01*
X150Y217D02*
X156Y217D01*
X3197Y217D02*
X3204Y217D01*
X0Y216D02*
X7Y216D01*
X96Y216D02*
X102Y216D01*
X150Y216D02*
X156Y216D01*
X3197Y216D02*
X3204Y216D01*
X0Y215D02*
X7Y215D01*
X96Y215D02*
X102Y215D01*
X150Y215D02*
X156Y215D01*
X3197Y215D02*
X3204Y215D01*
X0Y214D02*
X7Y214D01*
X96Y214D02*
X102Y214D01*
X150Y214D02*
X156Y214D01*
X3197Y214D02*
X3204Y214D01*
X0Y213D02*
X7Y213D01*
X96Y213D02*
X102Y213D01*
X150Y213D02*
X156Y213D01*
X3197Y213D02*
X3204Y213D01*
X0Y212D02*
X7Y212D01*
X96Y212D02*
X102Y212D01*
X150Y212D02*
X156Y212D01*
X3197Y212D02*
X3204Y212D01*
X0Y211D02*
X7Y211D01*
X96Y211D02*
X102Y211D01*
X150Y211D02*
X156Y211D01*
X3197Y211D02*
X3204Y211D01*
X0Y210D02*
X7Y210D01*
X96Y210D02*
X102Y210D01*
X150Y210D02*
X156Y210D01*
X3197Y210D02*
X3204Y210D01*
X0Y209D02*
X7Y209D01*
X96Y209D02*
X102Y209D01*
X150Y209D02*
X156Y209D01*
X3197Y209D02*
X3204Y209D01*
X0Y208D02*
X7Y208D01*
X96Y208D02*
X102Y208D01*
X150Y208D02*
X156Y208D01*
X3197Y208D02*
X3204Y208D01*
X0Y207D02*
X7Y207D01*
X96Y207D02*
X102Y207D01*
X150Y207D02*
X156Y207D01*
X3197Y207D02*
X3204Y207D01*
X0Y206D02*
X7Y206D01*
X96Y206D02*
X127Y206D01*
X150Y206D02*
X156Y206D01*
X3197Y206D02*
X3204Y206D01*
X0Y205D02*
X7Y205D01*
X96Y205D02*
X129Y205D01*
X150Y205D02*
X156Y205D01*
X3197Y205D02*
X3204Y205D01*
X0Y204D02*
X7Y204D01*
X97Y204D02*
X130Y204D01*
X150Y204D02*
X156Y204D01*
X3197Y204D02*
X3204Y204D01*
X0Y203D02*
X7Y203D01*
X97Y203D02*
X130Y203D01*
X150Y203D02*
X156Y203D01*
X3197Y203D02*
X3204Y203D01*
X0Y202D02*
X7Y202D01*
X98Y202D02*
X130Y202D01*
X150Y202D02*
X156Y202D01*
X3197Y202D02*
X3204Y202D01*
X0Y201D02*
X7Y201D01*
X99Y201D02*
X130Y201D01*
X150Y201D02*
X155Y201D01*
X3197Y201D02*
X3204Y201D01*
X0Y200D02*
X7Y200D01*
X100Y200D02*
X129Y200D01*
X151Y200D02*
X155Y200D01*
X3197Y200D02*
X3204Y200D01*
X0Y199D02*
X7Y199D01*
X3197Y199D02*
X3204Y199D01*
X0Y198D02*
X7Y198D01*
X3197Y198D02*
X3204Y198D01*
X0Y197D02*
X7Y197D01*
X3197Y197D02*
X3204Y197D01*
X0Y196D02*
X7Y196D01*
X3197Y196D02*
X3204Y196D01*
X0Y195D02*
X7Y195D01*
X3197Y195D02*
X3204Y195D01*
X0Y194D02*
X7Y194D01*
X3197Y194D02*
X3204Y194D01*
X0Y193D02*
X7Y193D01*
X3197Y193D02*
X3204Y193D01*
X0Y192D02*
X7Y192D01*
X3197Y192D02*
X3204Y192D01*
X0Y191D02*
X7Y191D01*
X3197Y191D02*
X3204Y191D01*
X0Y190D02*
X7Y190D01*
X3197Y190D02*
X3204Y190D01*
X0Y189D02*
X7Y189D01*
X3197Y189D02*
X3204Y189D01*
X0Y188D02*
X7Y188D01*
X3197Y188D02*
X3204Y188D01*
X0Y187D02*
X7Y187D01*
X3197Y187D02*
X3204Y187D01*
X0Y186D02*
X7Y186D01*
X3197Y186D02*
X3204Y186D01*
X0Y185D02*
X7Y185D01*
X3197Y185D02*
X3204Y185D01*
X0Y184D02*
X7Y184D01*
X3197Y184D02*
X3204Y184D01*
X0Y183D02*
X7Y183D01*
X28Y183D02*
X3187Y183D01*
X3197Y183D02*
X3204Y183D01*
X0Y182D02*
X7Y182D01*
X28Y182D02*
X3187Y182D01*
X3197Y182D02*
X3204Y182D01*
X0Y181D02*
X7Y181D01*
X28Y181D02*
X3187Y181D01*
X3197Y181D02*
X3204Y181D01*
X0Y180D02*
X7Y180D01*
X28Y180D02*
X3187Y180D01*
X3197Y180D02*
X3204Y180D01*
X0Y179D02*
X7Y179D01*
X28Y179D02*
X3187Y179D01*
X3197Y179D02*
X3204Y179D01*
X0Y178D02*
X7Y178D01*
X28Y178D02*
X3187Y178D01*
X3197Y178D02*
X3204Y178D01*
X0Y177D02*
X7Y177D01*
X28Y177D02*
X3187Y177D01*
X3197Y177D02*
X3204Y177D01*
X0Y176D02*
X7Y176D01*
X28Y176D02*
X3187Y176D01*
X3197Y176D02*
X3204Y176D01*
X0Y175D02*
X7Y175D01*
X28Y175D02*
X3187Y175D01*
X3197Y175D02*
X3204Y175D01*
X0Y174D02*
X7Y174D01*
X28Y174D02*
X3187Y174D01*
X3197Y174D02*
X3204Y174D01*
X0Y173D02*
X7Y173D01*
X28Y173D02*
X37Y173D01*
X3178Y173D02*
X3187Y173D01*
X3197Y173D02*
X3204Y173D01*
X0Y172D02*
X7Y172D01*
X28Y172D02*
X37Y172D01*
X3178Y172D02*
X3187Y172D01*
X3197Y172D02*
X3204Y172D01*
X0Y171D02*
X7Y171D01*
X28Y171D02*
X37Y171D01*
X3178Y171D02*
X3187Y171D01*
X3197Y171D02*
X3204Y171D01*
X0Y170D02*
X7Y170D01*
X28Y170D02*
X37Y170D01*
X3178Y170D02*
X3187Y170D01*
X3197Y170D02*
X3204Y170D01*
X0Y169D02*
X7Y169D01*
X28Y169D02*
X37Y169D01*
X3178Y169D02*
X3187Y169D01*
X3197Y169D02*
X3204Y169D01*
X0Y168D02*
X7Y168D01*
X28Y168D02*
X37Y168D01*
X3178Y168D02*
X3187Y168D01*
X3197Y168D02*
X3204Y168D01*
X0Y167D02*
X7Y167D01*
X28Y167D02*
X37Y167D01*
X3178Y167D02*
X3187Y167D01*
X3197Y167D02*
X3204Y167D01*
X0Y166D02*
X7Y166D01*
X28Y166D02*
X37Y166D01*
X3178Y166D02*
X3187Y166D01*
X3197Y166D02*
X3204Y166D01*
X0Y165D02*
X7Y165D01*
X28Y165D02*
X37Y165D01*
X3178Y165D02*
X3187Y165D01*
X3197Y165D02*
X3204Y165D01*
X0Y164D02*
X7Y164D01*
X28Y164D02*
X37Y164D01*
X3178Y164D02*
X3187Y164D01*
X3197Y164D02*
X3204Y164D01*
X0Y163D02*
X7Y163D01*
X28Y163D02*
X37Y163D01*
X3178Y163D02*
X3187Y163D01*
X3197Y163D02*
X3204Y163D01*
X0Y162D02*
X7Y162D01*
X28Y162D02*
X37Y162D01*
X3178Y162D02*
X3187Y162D01*
X3197Y162D02*
X3204Y162D01*
X0Y161D02*
X7Y161D01*
X28Y161D02*
X37Y161D01*
X3178Y161D02*
X3187Y161D01*
X3197Y161D02*
X3204Y161D01*
X0Y160D02*
X7Y160D01*
X28Y160D02*
X37Y160D01*
X3178Y160D02*
X3187Y160D01*
X3197Y160D02*
X3204Y160D01*
X0Y159D02*
X7Y159D01*
X28Y159D02*
X37Y159D01*
X3178Y159D02*
X3187Y159D01*
X3197Y159D02*
X3204Y159D01*
X0Y158D02*
X7Y158D01*
X28Y158D02*
X37Y158D01*
X3178Y158D02*
X3187Y158D01*
X3197Y158D02*
X3204Y158D01*
X0Y157D02*
X7Y157D01*
X28Y157D02*
X37Y157D01*
X3178Y157D02*
X3187Y157D01*
X3197Y157D02*
X3204Y157D01*
X0Y156D02*
X7Y156D01*
X28Y156D02*
X37Y156D01*
X3178Y156D02*
X3187Y156D01*
X3197Y156D02*
X3204Y156D01*
X0Y155D02*
X7Y155D01*
X28Y155D02*
X37Y155D01*
X3178Y155D02*
X3187Y155D01*
X3197Y155D02*
X3204Y155D01*
X0Y154D02*
X7Y154D01*
X28Y154D02*
X37Y154D01*
X3178Y154D02*
X3187Y154D01*
X3197Y154D02*
X3204Y154D01*
X0Y153D02*
X7Y153D01*
X28Y153D02*
X37Y153D01*
X3178Y153D02*
X3187Y153D01*
X3197Y153D02*
X3204Y153D01*
X0Y152D02*
X7Y152D01*
X28Y152D02*
X37Y152D01*
X3178Y152D02*
X3187Y152D01*
X3197Y152D02*
X3204Y152D01*
X0Y151D02*
X7Y151D01*
X28Y151D02*
X37Y151D01*
X3178Y151D02*
X3187Y151D01*
X3197Y151D02*
X3204Y151D01*
X0Y150D02*
X7Y150D01*
X28Y150D02*
X37Y150D01*
X3178Y150D02*
X3187Y150D01*
X3197Y150D02*
X3204Y150D01*
X0Y149D02*
X7Y149D01*
X28Y149D02*
X37Y149D01*
X3178Y149D02*
X3187Y149D01*
X3197Y149D02*
X3204Y149D01*
X0Y148D02*
X7Y148D01*
X28Y148D02*
X37Y148D01*
X3178Y148D02*
X3187Y148D01*
X3197Y148D02*
X3204Y148D01*
X0Y147D02*
X7Y147D01*
X28Y147D02*
X37Y147D01*
X3178Y147D02*
X3187Y147D01*
X3197Y147D02*
X3204Y147D01*
X0Y146D02*
X7Y146D01*
X28Y146D02*
X37Y146D01*
X3178Y146D02*
X3187Y146D01*
X3197Y146D02*
X3204Y146D01*
X0Y145D02*
X7Y145D01*
X28Y145D02*
X37Y145D01*
X3178Y145D02*
X3187Y145D01*
X3197Y145D02*
X3204Y145D01*
X0Y144D02*
X7Y144D01*
X28Y144D02*
X37Y144D01*
X3178Y144D02*
X3187Y144D01*
X3197Y144D02*
X3204Y144D01*
X0Y143D02*
X7Y143D01*
X28Y143D02*
X37Y143D01*
X3178Y143D02*
X3187Y143D01*
X3197Y143D02*
X3204Y143D01*
X0Y142D02*
X7Y142D01*
X28Y142D02*
X37Y142D01*
X3178Y142D02*
X3187Y142D01*
X3197Y142D02*
X3204Y142D01*
X0Y141D02*
X7Y141D01*
X28Y141D02*
X37Y141D01*
X3178Y141D02*
X3187Y141D01*
X3197Y141D02*
X3204Y141D01*
X0Y140D02*
X7Y140D01*
X28Y140D02*
X37Y140D01*
X3178Y140D02*
X3187Y140D01*
X3197Y140D02*
X3204Y140D01*
X0Y139D02*
X7Y139D01*
X28Y139D02*
X37Y139D01*
X3178Y139D02*
X3187Y139D01*
X3197Y139D02*
X3204Y139D01*
X0Y138D02*
X7Y138D01*
X28Y138D02*
X37Y138D01*
X3178Y138D02*
X3187Y138D01*
X3197Y138D02*
X3204Y138D01*
X0Y137D02*
X7Y137D01*
X28Y137D02*
X37Y137D01*
X3178Y137D02*
X3187Y137D01*
X3197Y137D02*
X3204Y137D01*
X0Y136D02*
X7Y136D01*
X28Y136D02*
X37Y136D01*
X3178Y136D02*
X3187Y136D01*
X3197Y136D02*
X3204Y136D01*
X0Y135D02*
X7Y135D01*
X28Y135D02*
X37Y135D01*
X3178Y135D02*
X3187Y135D01*
X3197Y135D02*
X3204Y135D01*
X0Y134D02*
X7Y134D01*
X28Y134D02*
X37Y134D01*
X3178Y134D02*
X3187Y134D01*
X3197Y134D02*
X3204Y134D01*
X0Y133D02*
X7Y133D01*
X28Y133D02*
X37Y133D01*
X298Y133D02*
X1907Y133D01*
X3178Y133D02*
X3187Y133D01*
X3197Y133D02*
X3204Y133D01*
X0Y132D02*
X7Y132D01*
X28Y132D02*
X37Y132D01*
X298Y132D02*
X1907Y132D01*
X3178Y132D02*
X3187Y132D01*
X3197Y132D02*
X3204Y132D01*
X0Y131D02*
X7Y131D01*
X28Y131D02*
X37Y131D01*
X298Y131D02*
X1907Y131D01*
X3178Y131D02*
X3187Y131D01*
X3197Y131D02*
X3204Y131D01*
X0Y130D02*
X7Y130D01*
X28Y130D02*
X37Y130D01*
X298Y130D02*
X1907Y130D01*
X3178Y130D02*
X3187Y130D01*
X3197Y130D02*
X3204Y130D01*
X0Y129D02*
X7Y129D01*
X28Y129D02*
X37Y129D01*
X298Y129D02*
X1907Y129D01*
X3178Y129D02*
X3187Y129D01*
X3197Y129D02*
X3204Y129D01*
X0Y128D02*
X7Y128D01*
X28Y128D02*
X37Y128D01*
X298Y128D02*
X1907Y128D01*
X3178Y128D02*
X3187Y128D01*
X3197Y128D02*
X3204Y128D01*
X0Y127D02*
X7Y127D01*
X28Y127D02*
X37Y127D01*
X298Y127D02*
X1907Y127D01*
X3178Y127D02*
X3187Y127D01*
X3197Y127D02*
X3204Y127D01*
X0Y126D02*
X7Y126D01*
X28Y126D02*
X37Y126D01*
X298Y126D02*
X1907Y126D01*
X3178Y126D02*
X3187Y126D01*
X3197Y126D02*
X3204Y126D01*
X0Y125D02*
X7Y125D01*
X28Y125D02*
X37Y125D01*
X298Y125D02*
X1907Y125D01*
X3178Y125D02*
X3187Y125D01*
X3197Y125D02*
X3204Y125D01*
X0Y124D02*
X7Y124D01*
X28Y124D02*
X37Y124D01*
X298Y124D02*
X1907Y124D01*
X3178Y124D02*
X3187Y124D01*
X3197Y124D02*
X3204Y124D01*
X0Y123D02*
X7Y123D01*
X28Y123D02*
X37Y123D01*
X298Y123D02*
X307Y123D01*
X1898Y123D02*
X1907Y123D01*
X3178Y123D02*
X3187Y123D01*
X3197Y123D02*
X3204Y123D01*
X0Y122D02*
X7Y122D01*
X28Y122D02*
X37Y122D01*
X298Y122D02*
X307Y122D01*
X1898Y122D02*
X1907Y122D01*
X3178Y122D02*
X3187Y122D01*
X3197Y122D02*
X3204Y122D01*
X0Y121D02*
X7Y121D01*
X28Y121D02*
X37Y121D01*
X298Y121D02*
X304Y121D01*
X1898Y121D02*
X1907Y121D01*
X3178Y121D02*
X3187Y121D01*
X3197Y121D02*
X3204Y121D01*
X0Y120D02*
X7Y120D01*
X28Y120D02*
X37Y120D01*
X298Y120D02*
X304Y120D01*
X1898Y120D02*
X1907Y120D01*
X3178Y120D02*
X3187Y120D01*
X3197Y120D02*
X3204Y120D01*
X0Y119D02*
X7Y119D01*
X28Y119D02*
X37Y119D01*
X298Y119D02*
X304Y119D01*
X1898Y119D02*
X1907Y119D01*
X3178Y119D02*
X3187Y119D01*
X3197Y119D02*
X3204Y119D01*
X0Y118D02*
X7Y118D01*
X28Y118D02*
X37Y118D01*
X298Y118D02*
X304Y118D01*
X1898Y118D02*
X1907Y118D01*
X3178Y118D02*
X3187Y118D01*
X3197Y118D02*
X3204Y118D01*
X0Y117D02*
X7Y117D01*
X28Y117D02*
X37Y117D01*
X298Y117D02*
X304Y117D01*
X1898Y117D02*
X1907Y117D01*
X3178Y117D02*
X3187Y117D01*
X3197Y117D02*
X3204Y117D01*
X0Y116D02*
X7Y116D01*
X28Y116D02*
X37Y116D01*
X298Y116D02*
X304Y116D01*
X1898Y116D02*
X1907Y116D01*
X3178Y116D02*
X3187Y116D01*
X3197Y116D02*
X3204Y116D01*
X0Y115D02*
X7Y115D01*
X28Y115D02*
X37Y115D01*
X298Y115D02*
X304Y115D01*
X1898Y115D02*
X1907Y115D01*
X3178Y115D02*
X3187Y115D01*
X3197Y115D02*
X3204Y115D01*
X0Y114D02*
X7Y114D01*
X28Y114D02*
X37Y114D01*
X298Y114D02*
X304Y114D01*
X1898Y114D02*
X1907Y114D01*
X1923Y114D02*
X1924Y114D01*
X1987Y114D02*
X2002Y114D01*
X2023Y114D02*
X2038Y114D01*
X2073Y114D02*
X2090Y114D01*
X3178Y114D02*
X3187Y114D01*
X3197Y114D02*
X3204Y114D01*
X0Y113D02*
X7Y113D01*
X28Y113D02*
X37Y113D01*
X298Y113D02*
X304Y113D01*
X1898Y113D02*
X1907Y113D01*
X1922Y113D02*
X1926Y113D01*
X1984Y113D02*
X2003Y113D01*
X2022Y113D02*
X2041Y113D01*
X2072Y113D02*
X2090Y113D01*
X3178Y113D02*
X3187Y113D01*
X3197Y113D02*
X3204Y113D01*
X0Y112D02*
X7Y112D01*
X28Y112D02*
X37Y112D01*
X298Y112D02*
X304Y112D01*
X1898Y112D02*
X1907Y112D01*
X1921Y112D02*
X1926Y112D01*
X1982Y112D02*
X2004Y112D01*
X2021Y112D02*
X2042Y112D01*
X2071Y112D02*
X2090Y112D01*
X3178Y112D02*
X3187Y112D01*
X3197Y112D02*
X3204Y112D01*
X0Y111D02*
X7Y111D01*
X28Y111D02*
X37Y111D01*
X298Y111D02*
X304Y111D01*
X1898Y111D02*
X1907Y111D01*
X1921Y111D02*
X1927Y111D01*
X1981Y111D02*
X2004Y111D01*
X2021Y111D02*
X2043Y111D01*
X2071Y111D02*
X2090Y111D01*
X3178Y111D02*
X3187Y111D01*
X3197Y111D02*
X3204Y111D01*
X0Y110D02*
X7Y110D01*
X28Y110D02*
X37Y110D01*
X298Y110D02*
X304Y110D01*
X1898Y110D02*
X1907Y110D01*
X1921Y110D02*
X1927Y110D01*
X1980Y110D02*
X2004Y110D01*
X2021Y110D02*
X2044Y110D01*
X2071Y110D02*
X2090Y110D01*
X3178Y110D02*
X3187Y110D01*
X3197Y110D02*
X3204Y110D01*
X0Y109D02*
X7Y109D01*
X28Y109D02*
X37Y109D01*
X298Y109D02*
X304Y109D01*
X1898Y109D02*
X1907Y109D01*
X1921Y109D02*
X1927Y109D01*
X1980Y109D02*
X2004Y109D01*
X2021Y109D02*
X2045Y109D01*
X2071Y109D02*
X2090Y109D01*
X3178Y109D02*
X3187Y109D01*
X3197Y109D02*
X3204Y109D01*
X0Y108D02*
X7Y108D01*
X28Y108D02*
X37Y108D01*
X298Y108D02*
X304Y108D01*
X1898Y108D02*
X1907Y108D01*
X1921Y108D02*
X1927Y108D01*
X1979Y108D02*
X2003Y108D01*
X2022Y108D02*
X2046Y108D01*
X2072Y108D02*
X2090Y108D01*
X3178Y108D02*
X3187Y108D01*
X3197Y108D02*
X3204Y108D01*
X0Y107D02*
X7Y107D01*
X28Y107D02*
X37Y107D01*
X298Y107D02*
X304Y107D01*
X1898Y107D02*
X1907Y107D01*
X1921Y107D02*
X1927Y107D01*
X1979Y107D02*
X1987Y107D01*
X2027Y107D02*
X2034Y107D01*
X2038Y107D02*
X2046Y107D01*
X2084Y107D02*
X2090Y107D01*
X3178Y107D02*
X3187Y107D01*
X3197Y107D02*
X3204Y107D01*
X0Y106D02*
X7Y106D01*
X28Y106D02*
X37Y106D01*
X298Y106D02*
X304Y106D01*
X1898Y106D02*
X1907Y106D01*
X1921Y106D02*
X1927Y106D01*
X1978Y106D02*
X1985Y106D01*
X2028Y106D02*
X2034Y106D01*
X2040Y106D02*
X2047Y106D01*
X2084Y106D02*
X2090Y106D01*
X3178Y106D02*
X3187Y106D01*
X3197Y106D02*
X3204Y106D01*
X0Y105D02*
X7Y105D01*
X28Y105D02*
X37Y105D01*
X298Y105D02*
X304Y105D01*
X1898Y105D02*
X1907Y105D01*
X1921Y105D02*
X1927Y105D01*
X1978Y105D02*
X1985Y105D01*
X2028Y105D02*
X2034Y105D01*
X2040Y105D02*
X2047Y105D01*
X2084Y105D02*
X2090Y105D01*
X3178Y105D02*
X3187Y105D01*
X3197Y105D02*
X3204Y105D01*
X0Y104D02*
X7Y104D01*
X28Y104D02*
X37Y104D01*
X298Y104D02*
X304Y104D01*
X1898Y104D02*
X1907Y104D01*
X1921Y104D02*
X1927Y104D01*
X1977Y104D02*
X1984Y104D01*
X2028Y104D02*
X2034Y104D01*
X2041Y104D02*
X2048Y104D01*
X2084Y104D02*
X2090Y104D01*
X3178Y104D02*
X3187Y104D01*
X3197Y104D02*
X3204Y104D01*
X0Y103D02*
X7Y103D01*
X28Y103D02*
X37Y103D01*
X298Y103D02*
X304Y103D01*
X1898Y103D02*
X1907Y103D01*
X1921Y103D02*
X1927Y103D01*
X1977Y103D02*
X1984Y103D01*
X2028Y103D02*
X2034Y103D01*
X2041Y103D02*
X2048Y103D01*
X2084Y103D02*
X2090Y103D01*
X3178Y103D02*
X3187Y103D01*
X3197Y103D02*
X3204Y103D01*
X0Y102D02*
X7Y102D01*
X28Y102D02*
X37Y102D01*
X298Y102D02*
X304Y102D01*
X1898Y102D02*
X1907Y102D01*
X1921Y102D02*
X1927Y102D01*
X1976Y102D02*
X1983Y102D01*
X2028Y102D02*
X2034Y102D01*
X2042Y102D02*
X2049Y102D01*
X2084Y102D02*
X2090Y102D01*
X3178Y102D02*
X3187Y102D01*
X3197Y102D02*
X3204Y102D01*
X0Y101D02*
X7Y101D01*
X28Y101D02*
X37Y101D01*
X298Y101D02*
X304Y101D01*
X1898Y101D02*
X1907Y101D01*
X1921Y101D02*
X1927Y101D01*
X1976Y101D02*
X1983Y101D01*
X2028Y101D02*
X2034Y101D01*
X2042Y101D02*
X2049Y101D01*
X2084Y101D02*
X2090Y101D01*
X3178Y101D02*
X3187Y101D01*
X3197Y101D02*
X3204Y101D01*
X0Y100D02*
X7Y100D01*
X28Y100D02*
X37Y100D01*
X298Y100D02*
X304Y100D01*
X1898Y100D02*
X1907Y100D01*
X1921Y100D02*
X1927Y100D01*
X1975Y100D02*
X1982Y100D01*
X2028Y100D02*
X2034Y100D01*
X2043Y100D02*
X2050Y100D01*
X2084Y100D02*
X2090Y100D01*
X3178Y100D02*
X3187Y100D01*
X3197Y100D02*
X3204Y100D01*
X0Y99D02*
X7Y99D01*
X28Y99D02*
X37Y99D01*
X298Y99D02*
X304Y99D01*
X1898Y99D02*
X1907Y99D01*
X1921Y99D02*
X1927Y99D01*
X1975Y99D02*
X1982Y99D01*
X2028Y99D02*
X2034Y99D01*
X2043Y99D02*
X2050Y99D01*
X2084Y99D02*
X2090Y99D01*
X3178Y99D02*
X3187Y99D01*
X3197Y99D02*
X3204Y99D01*
X0Y98D02*
X7Y98D01*
X28Y98D02*
X37Y98D01*
X298Y98D02*
X304Y98D01*
X1898Y98D02*
X1907Y98D01*
X1921Y98D02*
X1927Y98D01*
X1974Y98D02*
X1981Y98D01*
X2028Y98D02*
X2034Y98D01*
X2044Y98D02*
X2051Y98D01*
X2084Y98D02*
X2090Y98D01*
X3178Y98D02*
X3187Y98D01*
X3197Y98D02*
X3204Y98D01*
X0Y97D02*
X7Y97D01*
X28Y97D02*
X37Y97D01*
X298Y97D02*
X304Y97D01*
X1898Y97D02*
X1907Y97D01*
X1921Y97D02*
X1927Y97D01*
X1974Y97D02*
X1981Y97D01*
X2028Y97D02*
X2034Y97D01*
X2044Y97D02*
X2051Y97D01*
X2084Y97D02*
X2090Y97D01*
X3178Y97D02*
X3187Y97D01*
X3197Y97D02*
X3204Y97D01*
X0Y96D02*
X7Y96D01*
X28Y96D02*
X37Y96D01*
X298Y96D02*
X304Y96D01*
X1898Y96D02*
X1907Y96D01*
X1921Y96D02*
X1927Y96D01*
X1973Y96D02*
X1980Y96D01*
X2028Y96D02*
X2034Y96D01*
X2045Y96D02*
X2052Y96D01*
X2084Y96D02*
X2090Y96D01*
X3178Y96D02*
X3187Y96D01*
X3197Y96D02*
X3204Y96D01*
X0Y95D02*
X7Y95D01*
X28Y95D02*
X37Y95D01*
X298Y95D02*
X304Y95D01*
X1898Y95D02*
X1907Y95D01*
X1921Y95D02*
X1927Y95D01*
X1973Y95D02*
X1980Y95D01*
X2028Y95D02*
X2034Y95D01*
X2045Y95D02*
X2052Y95D01*
X2084Y95D02*
X2090Y95D01*
X3178Y95D02*
X3187Y95D01*
X3197Y95D02*
X3204Y95D01*
X0Y94D02*
X7Y94D01*
X28Y94D02*
X37Y94D01*
X298Y94D02*
X304Y94D01*
X1898Y94D02*
X1907Y94D01*
X1921Y94D02*
X1927Y94D01*
X1972Y94D02*
X1979Y94D01*
X2028Y94D02*
X2034Y94D01*
X2046Y94D02*
X2053Y94D01*
X2084Y94D02*
X2090Y94D01*
X3178Y94D02*
X3187Y94D01*
X3197Y94D02*
X3204Y94D01*
X0Y93D02*
X7Y93D01*
X28Y93D02*
X37Y93D01*
X298Y93D02*
X304Y93D01*
X1898Y93D02*
X1907Y93D01*
X1921Y93D02*
X1927Y93D01*
X1972Y93D02*
X1979Y93D01*
X2028Y93D02*
X2034Y93D01*
X2046Y93D02*
X2053Y93D01*
X2084Y93D02*
X2090Y93D01*
X3178Y93D02*
X3187Y93D01*
X3197Y93D02*
X3204Y93D01*
X0Y92D02*
X7Y92D01*
X28Y92D02*
X37Y92D01*
X298Y92D02*
X304Y92D01*
X1898Y92D02*
X1907Y92D01*
X1921Y92D02*
X1927Y92D01*
X1972Y92D02*
X1978Y92D01*
X2028Y92D02*
X2034Y92D01*
X2047Y92D02*
X2053Y92D01*
X2084Y92D02*
X2090Y92D01*
X3178Y92D02*
X3187Y92D01*
X3197Y92D02*
X3204Y92D01*
X0Y91D02*
X7Y91D01*
X28Y91D02*
X37Y91D01*
X298Y91D02*
X304Y91D01*
X1898Y91D02*
X1907Y91D01*
X1921Y91D02*
X1927Y91D01*
X1971Y91D02*
X1978Y91D01*
X2028Y91D02*
X2034Y91D01*
X2047Y91D02*
X2054Y91D01*
X2084Y91D02*
X2090Y91D01*
X3178Y91D02*
X3187Y91D01*
X3197Y91D02*
X3204Y91D01*
X0Y90D02*
X7Y90D01*
X28Y90D02*
X37Y90D01*
X298Y90D02*
X304Y90D01*
X1898Y90D02*
X1907Y90D01*
X1921Y90D02*
X1927Y90D01*
X1971Y90D02*
X1977Y90D01*
X2028Y90D02*
X2034Y90D01*
X2048Y90D02*
X2054Y90D01*
X2084Y90D02*
X2090Y90D01*
X3178Y90D02*
X3187Y90D01*
X3197Y90D02*
X3204Y90D01*
X0Y89D02*
X7Y89D01*
X28Y89D02*
X37Y89D01*
X298Y89D02*
X304Y89D01*
X1898Y89D02*
X1907Y89D01*
X1921Y89D02*
X1927Y89D01*
X1971Y89D02*
X1977Y89D01*
X2028Y89D02*
X2034Y89D01*
X2048Y89D02*
X2054Y89D01*
X2084Y89D02*
X2090Y89D01*
X3178Y89D02*
X3187Y89D01*
X3197Y89D02*
X3204Y89D01*
X0Y88D02*
X7Y88D01*
X28Y88D02*
X37Y88D01*
X298Y88D02*
X304Y88D01*
X1898Y88D02*
X1907Y88D01*
X1921Y88D02*
X1927Y88D01*
X1971Y88D02*
X1977Y88D01*
X2028Y88D02*
X2034Y88D01*
X2048Y88D02*
X2054Y88D01*
X2084Y88D02*
X2090Y88D01*
X3178Y88D02*
X3187Y88D01*
X3197Y88D02*
X3204Y88D01*
X0Y87D02*
X7Y87D01*
X28Y87D02*
X37Y87D01*
X298Y87D02*
X304Y87D01*
X1898Y87D02*
X1907Y87D01*
X1921Y87D02*
X1927Y87D01*
X1971Y87D02*
X1977Y87D01*
X2028Y87D02*
X2034Y87D01*
X2048Y87D02*
X2054Y87D01*
X2084Y87D02*
X2090Y87D01*
X3178Y87D02*
X3187Y87D01*
X3197Y87D02*
X3204Y87D01*
X0Y86D02*
X7Y86D01*
X28Y86D02*
X37Y86D01*
X298Y86D02*
X304Y86D01*
X1898Y86D02*
X1907Y86D01*
X1921Y86D02*
X1927Y86D01*
X1971Y86D02*
X1977Y86D01*
X2028Y86D02*
X2034Y86D01*
X2048Y86D02*
X2054Y86D01*
X2084Y86D02*
X2090Y86D01*
X3178Y86D02*
X3187Y86D01*
X3197Y86D02*
X3204Y86D01*
X0Y85D02*
X7Y85D01*
X28Y85D02*
X37Y85D01*
X298Y85D02*
X304Y85D01*
X1898Y85D02*
X1907Y85D01*
X1921Y85D02*
X1927Y85D01*
X1971Y85D02*
X1977Y85D01*
X2028Y85D02*
X2034Y85D01*
X2048Y85D02*
X2054Y85D01*
X2084Y85D02*
X2090Y85D01*
X3178Y85D02*
X3187Y85D01*
X3197Y85D02*
X3204Y85D01*
X0Y84D02*
X7Y84D01*
X28Y84D02*
X37Y84D01*
X298Y84D02*
X304Y84D01*
X1898Y84D02*
X1907Y84D01*
X1921Y84D02*
X1927Y84D01*
X1971Y84D02*
X1977Y84D01*
X2028Y84D02*
X2034Y84D01*
X2048Y84D02*
X2054Y84D01*
X2084Y84D02*
X2090Y84D01*
X2100Y84D02*
X2103Y84D01*
X3178Y84D02*
X3187Y84D01*
X3197Y84D02*
X3204Y84D01*
X0Y83D02*
X7Y83D01*
X28Y83D02*
X37Y83D01*
X298Y83D02*
X304Y83D01*
X1898Y83D02*
X1907Y83D01*
X1921Y83D02*
X1927Y83D01*
X1971Y83D02*
X1978Y83D01*
X2028Y83D02*
X2034Y83D01*
X2047Y83D02*
X2054Y83D01*
X2084Y83D02*
X2090Y83D01*
X2099Y83D02*
X2104Y83D01*
X3178Y83D02*
X3187Y83D01*
X3197Y83D02*
X3204Y83D01*
X0Y82D02*
X7Y82D01*
X28Y82D02*
X37Y82D01*
X298Y82D02*
X304Y82D01*
X1898Y82D02*
X1907Y82D01*
X1921Y82D02*
X1927Y82D01*
X1972Y82D02*
X1978Y82D01*
X2028Y82D02*
X2034Y82D01*
X2047Y82D02*
X2053Y82D01*
X2084Y82D02*
X2090Y82D01*
X2098Y82D02*
X2104Y82D01*
X3178Y82D02*
X3187Y82D01*
X3197Y82D02*
X3204Y82D01*
X0Y81D02*
X7Y81D01*
X28Y81D02*
X37Y81D01*
X298Y81D02*
X304Y81D01*
X1898Y81D02*
X1907Y81D01*
X1921Y81D02*
X1927Y81D01*
X1972Y81D02*
X1979Y81D01*
X2028Y81D02*
X2034Y81D01*
X2046Y81D02*
X2053Y81D01*
X2084Y81D02*
X2090Y81D01*
X2098Y81D02*
X2104Y81D01*
X3178Y81D02*
X3187Y81D01*
X3197Y81D02*
X3204Y81D01*
X0Y80D02*
X7Y80D01*
X28Y80D02*
X37Y80D01*
X298Y80D02*
X304Y80D01*
X1898Y80D02*
X1907Y80D01*
X1921Y80D02*
X1927Y80D01*
X1972Y80D02*
X1979Y80D01*
X2028Y80D02*
X2034Y80D01*
X2046Y80D02*
X2053Y80D01*
X2084Y80D02*
X2090Y80D01*
X2098Y80D02*
X2104Y80D01*
X3178Y80D02*
X3187Y80D01*
X3197Y80D02*
X3204Y80D01*
X0Y79D02*
X7Y79D01*
X28Y79D02*
X37Y79D01*
X298Y79D02*
X304Y79D01*
X1898Y79D02*
X1907Y79D01*
X1921Y79D02*
X1927Y79D01*
X1973Y79D02*
X1980Y79D01*
X2028Y79D02*
X2034Y79D01*
X2045Y79D02*
X2052Y79D01*
X2084Y79D02*
X2090Y79D01*
X2098Y79D02*
X2104Y79D01*
X3178Y79D02*
X3187Y79D01*
X3197Y79D02*
X3204Y79D01*
X0Y78D02*
X7Y78D01*
X28Y78D02*
X37Y78D01*
X298Y78D02*
X304Y78D01*
X1898Y78D02*
X1907Y78D01*
X1921Y78D02*
X1927Y78D01*
X1973Y78D02*
X1980Y78D01*
X2028Y78D02*
X2034Y78D01*
X2045Y78D02*
X2052Y78D01*
X2084Y78D02*
X2090Y78D01*
X2098Y78D02*
X2104Y78D01*
X3178Y78D02*
X3187Y78D01*
X3197Y78D02*
X3204Y78D01*
X0Y77D02*
X7Y77D01*
X28Y77D02*
X37Y77D01*
X298Y77D02*
X304Y77D01*
X1898Y77D02*
X1907Y77D01*
X1921Y77D02*
X1927Y77D01*
X1974Y77D02*
X1981Y77D01*
X2028Y77D02*
X2034Y77D01*
X2044Y77D02*
X2051Y77D01*
X2084Y77D02*
X2090Y77D01*
X2098Y77D02*
X2104Y77D01*
X3178Y77D02*
X3187Y77D01*
X3197Y77D02*
X3204Y77D01*
X0Y76D02*
X7Y76D01*
X28Y76D02*
X37Y76D01*
X298Y76D02*
X304Y76D01*
X1898Y76D02*
X1907Y76D01*
X1921Y76D02*
X1927Y76D01*
X1974Y76D02*
X1981Y76D01*
X2028Y76D02*
X2034Y76D01*
X2044Y76D02*
X2051Y76D01*
X2084Y76D02*
X2090Y76D01*
X2098Y76D02*
X2104Y76D01*
X3178Y76D02*
X3187Y76D01*
X3197Y76D02*
X3204Y76D01*
X0Y75D02*
X7Y75D01*
X28Y75D02*
X37Y75D01*
X298Y75D02*
X304Y75D01*
X1898Y75D02*
X1907Y75D01*
X1921Y75D02*
X1927Y75D01*
X1975Y75D02*
X1982Y75D01*
X2028Y75D02*
X2034Y75D01*
X2043Y75D02*
X2050Y75D01*
X2084Y75D02*
X2090Y75D01*
X2098Y75D02*
X2104Y75D01*
X3178Y75D02*
X3187Y75D01*
X3197Y75D02*
X3204Y75D01*
X0Y74D02*
X7Y74D01*
X28Y74D02*
X37Y74D01*
X298Y74D02*
X304Y74D01*
X1898Y74D02*
X1907Y74D01*
X1921Y74D02*
X1927Y74D01*
X1975Y74D02*
X1982Y74D01*
X2028Y74D02*
X2034Y74D01*
X2043Y74D02*
X2050Y74D01*
X2084Y74D02*
X2090Y74D01*
X2098Y74D02*
X2104Y74D01*
X3178Y74D02*
X3187Y74D01*
X3197Y74D02*
X3204Y74D01*
X0Y73D02*
X7Y73D01*
X28Y73D02*
X37Y73D01*
X298Y73D02*
X304Y73D01*
X1898Y73D02*
X1907Y73D01*
X1921Y73D02*
X1927Y73D01*
X1976Y73D02*
X1983Y73D01*
X2028Y73D02*
X2034Y73D01*
X2042Y73D02*
X2049Y73D01*
X2084Y73D02*
X2090Y73D01*
X2098Y73D02*
X2104Y73D01*
X3178Y73D02*
X3187Y73D01*
X3197Y73D02*
X3204Y73D01*
X0Y72D02*
X7Y72D01*
X28Y72D02*
X37Y72D01*
X298Y72D02*
X304Y72D01*
X1898Y72D02*
X1907Y72D01*
X1921Y72D02*
X1927Y72D01*
X1976Y72D02*
X1983Y72D01*
X2028Y72D02*
X2034Y72D01*
X2042Y72D02*
X2049Y72D01*
X2084Y72D02*
X2090Y72D01*
X2098Y72D02*
X2104Y72D01*
X3178Y72D02*
X3187Y72D01*
X3197Y72D02*
X3204Y72D01*
X0Y71D02*
X7Y71D01*
X28Y71D02*
X37Y71D01*
X298Y71D02*
X304Y71D01*
X1898Y71D02*
X1907Y71D01*
X1921Y71D02*
X1927Y71D01*
X1977Y71D02*
X1984Y71D01*
X2028Y71D02*
X2034Y71D01*
X2041Y71D02*
X2048Y71D01*
X2084Y71D02*
X2090Y71D01*
X2098Y71D02*
X2104Y71D01*
X3178Y71D02*
X3187Y71D01*
X3197Y71D02*
X3204Y71D01*
X0Y70D02*
X7Y70D01*
X28Y70D02*
X37Y70D01*
X298Y70D02*
X304Y70D01*
X1898Y70D02*
X1907Y70D01*
X1921Y70D02*
X1927Y70D01*
X1977Y70D02*
X1984Y70D01*
X2028Y70D02*
X2034Y70D01*
X2041Y70D02*
X2048Y70D01*
X2084Y70D02*
X2090Y70D01*
X2098Y70D02*
X2104Y70D01*
X3178Y70D02*
X3187Y70D01*
X3197Y70D02*
X3204Y70D01*
X0Y69D02*
X7Y69D01*
X28Y69D02*
X37Y69D01*
X298Y69D02*
X304Y69D01*
X1898Y69D02*
X1907Y69D01*
X1921Y69D02*
X1927Y69D01*
X1978Y69D02*
X1985Y69D01*
X2028Y69D02*
X2034Y69D01*
X2040Y69D02*
X2047Y69D01*
X2084Y69D02*
X2090Y69D01*
X2098Y69D02*
X2104Y69D01*
X3178Y69D02*
X3187Y69D01*
X3197Y69D02*
X3204Y69D01*
X0Y68D02*
X7Y68D01*
X28Y68D02*
X37Y68D01*
X298Y68D02*
X304Y68D01*
X1898Y68D02*
X1907Y68D01*
X1921Y68D02*
X1927Y68D01*
X1978Y68D02*
X1986Y68D01*
X2028Y68D02*
X2034Y68D01*
X2039Y68D02*
X2047Y68D01*
X2084Y68D02*
X2090Y68D01*
X2098Y68D02*
X2104Y68D01*
X3178Y68D02*
X3187Y68D01*
X3197Y68D02*
X3204Y68D01*
X0Y67D02*
X7Y67D01*
X28Y67D02*
X37Y67D01*
X298Y67D02*
X304Y67D01*
X1898Y67D02*
X1907Y67D01*
X1921Y67D02*
X1951Y67D01*
X1979Y67D02*
X2001Y67D01*
X2024Y67D02*
X2046Y67D01*
X2074Y67D02*
X2104Y67D01*
X3178Y67D02*
X3187Y67D01*
X3197Y67D02*
X3204Y67D01*
X0Y66D02*
X7Y66D01*
X28Y66D02*
X37Y66D01*
X298Y66D02*
X304Y66D01*
X1898Y66D02*
X1907Y66D01*
X1921Y66D02*
X1953Y66D01*
X1979Y66D02*
X2003Y66D01*
X2022Y66D02*
X2046Y66D01*
X2072Y66D02*
X2104Y66D01*
X3178Y66D02*
X3187Y66D01*
X3197Y66D02*
X3204Y66D01*
X0Y65D02*
X7Y65D01*
X28Y65D02*
X37Y65D01*
X298Y65D02*
X304Y65D01*
X1898Y65D02*
X1907Y65D01*
X1921Y65D02*
X1954Y65D01*
X1980Y65D02*
X2004Y65D01*
X2021Y65D02*
X2045Y65D01*
X2071Y65D02*
X2104Y65D01*
X3178Y65D02*
X3187Y65D01*
X3197Y65D02*
X3204Y65D01*
X0Y64D02*
X7Y64D01*
X28Y64D02*
X37Y64D01*
X298Y64D02*
X304Y64D01*
X1898Y64D02*
X1907Y64D01*
X1921Y64D02*
X1954Y64D01*
X1981Y64D02*
X2004Y64D01*
X2021Y64D02*
X2044Y64D01*
X2071Y64D02*
X2104Y64D01*
X3178Y64D02*
X3187Y64D01*
X3197Y64D02*
X3204Y64D01*
X0Y63D02*
X7Y63D01*
X28Y63D02*
X37Y63D01*
X298Y63D02*
X304Y63D01*
X1898Y63D02*
X1907Y63D01*
X1921Y63D02*
X1954Y63D01*
X1982Y63D02*
X2004Y63D01*
X2021Y63D02*
X2043Y63D01*
X2071Y63D02*
X2104Y63D01*
X3178Y63D02*
X3187Y63D01*
X3197Y63D02*
X3204Y63D01*
X0Y62D02*
X7Y62D01*
X28Y62D02*
X37Y62D01*
X298Y62D02*
X304Y62D01*
X1898Y62D02*
X1907Y62D01*
X1921Y62D02*
X1954Y62D01*
X1983Y62D02*
X2004Y62D01*
X2021Y62D02*
X2042Y62D01*
X2071Y62D02*
X2104Y62D01*
X3178Y62D02*
X3187Y62D01*
X3197Y62D02*
X3204Y62D01*
X0Y61D02*
X7Y61D01*
X28Y61D02*
X37Y61D01*
X298Y61D02*
X304Y61D01*
X1898Y61D02*
X1907Y61D01*
X1921Y61D02*
X1953Y61D01*
X1985Y61D02*
X2003Y61D01*
X2022Y61D02*
X2040Y61D01*
X2072Y61D02*
X2103Y61D01*
X3178Y61D02*
X3187Y61D01*
X3197Y61D02*
X3204Y61D01*
X0Y60D02*
X7Y60D01*
X28Y60D02*
X37Y60D01*
X298Y60D02*
X304Y60D01*
X1898Y60D02*
X1907Y60D01*
X3178Y60D02*
X3187Y60D01*
X3197Y60D02*
X3204Y60D01*
X0Y59D02*
X7Y59D01*
X28Y59D02*
X37Y59D01*
X298Y59D02*
X304Y59D01*
X1898Y59D02*
X1907Y59D01*
X3178Y59D02*
X3187Y59D01*
X3197Y59D02*
X3204Y59D01*
X0Y58D02*
X7Y58D01*
X28Y58D02*
X37Y58D01*
X298Y58D02*
X304Y58D01*
X1898Y58D02*
X1907Y58D01*
X3178Y58D02*
X3187Y58D01*
X3197Y58D02*
X3204Y58D01*
X0Y57D02*
X7Y57D01*
X28Y57D02*
X37Y57D01*
X298Y57D02*
X304Y57D01*
X1898Y57D02*
X1907Y57D01*
X3178Y57D02*
X3187Y57D01*
X3197Y57D02*
X3204Y57D01*
X0Y56D02*
X7Y56D01*
X28Y56D02*
X37Y56D01*
X298Y56D02*
X304Y56D01*
X1898Y56D02*
X1907Y56D01*
X3178Y56D02*
X3187Y56D01*
X3197Y56D02*
X3204Y56D01*
X0Y55D02*
X7Y55D01*
X28Y55D02*
X37Y55D01*
X298Y55D02*
X304Y55D01*
X1898Y55D02*
X1907Y55D01*
X3178Y55D02*
X3187Y55D01*
X3197Y55D02*
X3204Y55D01*
X0Y54D02*
X7Y54D01*
X28Y54D02*
X37Y54D01*
X298Y54D02*
X304Y54D01*
X1898Y54D02*
X1907Y54D01*
X3178Y54D02*
X3187Y54D01*
X3197Y54D02*
X3204Y54D01*
X0Y53D02*
X7Y53D01*
X28Y53D02*
X37Y53D01*
X298Y53D02*
X304Y53D01*
X1898Y53D02*
X1907Y53D01*
X3178Y53D02*
X3187Y53D01*
X3197Y53D02*
X3204Y53D01*
X0Y52D02*
X7Y52D01*
X28Y52D02*
X37Y52D01*
X298Y52D02*
X304Y52D01*
X1898Y52D02*
X1907Y52D01*
X3178Y52D02*
X3187Y52D01*
X3197Y52D02*
X3204Y52D01*
X0Y51D02*
X7Y51D01*
X28Y51D02*
X37Y51D01*
X298Y51D02*
X304Y51D01*
X1898Y51D02*
X1907Y51D01*
X3178Y51D02*
X3187Y51D01*
X3197Y51D02*
X3204Y51D01*
X0Y50D02*
X7Y50D01*
X28Y50D02*
X37Y50D01*
X298Y50D02*
X304Y50D01*
X1898Y50D02*
X1907Y50D01*
X3178Y50D02*
X3187Y50D01*
X3197Y50D02*
X3204Y50D01*
X0Y49D02*
X7Y49D01*
X28Y49D02*
X37Y49D01*
X298Y49D02*
X304Y49D01*
X1898Y49D02*
X1907Y49D01*
X3178Y49D02*
X3187Y49D01*
X3197Y49D02*
X3204Y49D01*
X0Y48D02*
X7Y48D01*
X28Y48D02*
X37Y48D01*
X298Y48D02*
X304Y48D01*
X1898Y48D02*
X1907Y48D01*
X3178Y48D02*
X3187Y48D01*
X3197Y48D02*
X3204Y48D01*
X0Y47D02*
X7Y47D01*
X28Y47D02*
X37Y47D01*
X298Y47D02*
X304Y47D01*
X1898Y47D02*
X1907Y47D01*
X3178Y47D02*
X3187Y47D01*
X3197Y47D02*
X3204Y47D01*
X0Y46D02*
X7Y46D01*
X28Y46D02*
X37Y46D01*
X298Y46D02*
X304Y46D01*
X1898Y46D02*
X1907Y46D01*
X3178Y46D02*
X3187Y46D01*
X3197Y46D02*
X3204Y46D01*
X0Y45D02*
X7Y45D01*
X28Y45D02*
X37Y45D01*
X298Y45D02*
X304Y45D01*
X1898Y45D02*
X1907Y45D01*
X3178Y45D02*
X3187Y45D01*
X3197Y45D02*
X3204Y45D01*
X0Y44D02*
X7Y44D01*
X28Y44D02*
X37Y44D01*
X298Y44D02*
X304Y44D01*
X1898Y44D02*
X1907Y44D01*
X3178Y44D02*
X3187Y44D01*
X3197Y44D02*
X3204Y44D01*
X0Y43D02*
X7Y43D01*
X28Y43D02*
X37Y43D01*
X298Y43D02*
X304Y43D01*
X1898Y43D02*
X1907Y43D01*
X3178Y43D02*
X3187Y43D01*
X3197Y43D02*
X3204Y43D01*
X0Y42D02*
X7Y42D01*
X28Y42D02*
X37Y42D01*
X298Y42D02*
X304Y42D01*
X1898Y42D02*
X1907Y42D01*
X3178Y42D02*
X3187Y42D01*
X3197Y42D02*
X3204Y42D01*
X0Y41D02*
X7Y41D01*
X28Y41D02*
X37Y41D01*
X298Y41D02*
X304Y41D01*
X1898Y41D02*
X1907Y41D01*
X3178Y41D02*
X3187Y41D01*
X3197Y41D02*
X3204Y41D01*
X0Y40D02*
X7Y40D01*
X28Y40D02*
X37Y40D01*
X298Y40D02*
X304Y40D01*
X1898Y40D02*
X1907Y40D01*
X3178Y40D02*
X3187Y40D01*
X3197Y40D02*
X3204Y40D01*
X0Y39D02*
X7Y39D01*
X28Y39D02*
X37Y39D01*
X298Y39D02*
X304Y39D01*
X1898Y39D02*
X1907Y39D01*
X3178Y39D02*
X3187Y39D01*
X3197Y39D02*
X3204Y39D01*
X0Y38D02*
X7Y38D01*
X28Y38D02*
X37Y38D01*
X298Y38D02*
X304Y38D01*
X1898Y38D02*
X1907Y38D01*
X3178Y38D02*
X3187Y38D01*
X3197Y38D02*
X3204Y38D01*
X0Y37D02*
X7Y37D01*
X28Y37D02*
X37Y37D01*
X298Y37D02*
X305Y37D01*
X1898Y37D02*
X1907Y37D01*
X3178Y37D02*
X3187Y37D01*
X3197Y37D02*
X3204Y37D01*
X0Y36D02*
X7Y36D01*
X28Y36D02*
X37Y36D01*
X298Y36D02*
X307Y36D01*
X1898Y36D02*
X1907Y36D01*
X3178Y36D02*
X3187Y36D01*
X3197Y36D02*
X3204Y36D01*
X0Y35D02*
X7Y35D01*
X28Y35D02*
X37Y35D01*
X298Y35D02*
X307Y35D01*
X1898Y35D02*
X1907Y35D01*
X3178Y35D02*
X3187Y35D01*
X3197Y35D02*
X3204Y35D01*
X0Y34D02*
X7Y34D01*
X28Y34D02*
X37Y34D01*
X298Y34D02*
X308Y34D01*
X1898Y34D02*
X1907Y34D01*
X3178Y34D02*
X3187Y34D01*
X3197Y34D02*
X3204Y34D01*
X0Y33D02*
X7Y33D01*
X28Y33D02*
X37Y33D01*
X298Y33D02*
X1907Y33D01*
X3178Y33D02*
X3187Y33D01*
X3197Y33D02*
X3204Y33D01*
X0Y32D02*
X7Y32D01*
X28Y32D02*
X37Y32D01*
X298Y32D02*
X1907Y32D01*
X3178Y32D02*
X3187Y32D01*
X3197Y32D02*
X3204Y32D01*
X0Y31D02*
X7Y31D01*
X28Y31D02*
X37Y31D01*
X298Y31D02*
X1907Y31D01*
X3178Y31D02*
X3187Y31D01*
X3197Y31D02*
X3204Y31D01*
X0Y30D02*
X7Y30D01*
X28Y30D02*
X37Y30D01*
X298Y30D02*
X1907Y30D01*
X3178Y30D02*
X3187Y30D01*
X3197Y30D02*
X3204Y30D01*
X0Y29D02*
X7Y29D01*
X28Y29D02*
X37Y29D01*
X298Y29D02*
X1907Y29D01*
X3178Y29D02*
X3187Y29D01*
X3197Y29D02*
X3204Y29D01*
X0Y28D02*
X7Y28D01*
X28Y28D02*
X37Y28D01*
X298Y28D02*
X1907Y28D01*
X3178Y28D02*
X3187Y28D01*
X3197Y28D02*
X3204Y28D01*
X0Y27D02*
X7Y27D01*
X28Y27D02*
X37Y27D01*
X298Y27D02*
X1907Y27D01*
X3178Y27D02*
X3187Y27D01*
X3197Y27D02*
X3204Y27D01*
X0Y26D02*
X7Y26D01*
X28Y26D02*
X37Y26D01*
X298Y26D02*
X1907Y26D01*
X3178Y26D02*
X3187Y26D01*
X3197Y26D02*
X3204Y26D01*
X0Y25D02*
X7Y25D01*
X28Y25D02*
X37Y25D01*
X298Y25D02*
X1907Y25D01*
X3178Y25D02*
X3187Y25D01*
X3197Y25D02*
X3204Y25D01*
X0Y24D02*
X7Y24D01*
X28Y24D02*
X37Y24D01*
X299Y24D02*
X1907Y24D01*
X3178Y24D02*
X3187Y24D01*
X3197Y24D02*
X3204Y24D01*
X0Y23D02*
X7Y23D01*
X28Y23D02*
X37Y23D01*
X3178Y23D02*
X3187Y23D01*
X3197Y23D02*
X3204Y23D01*
X0Y22D02*
X7Y22D01*
X28Y22D02*
X37Y22D01*
X3178Y22D02*
X3187Y22D01*
X3197Y22D02*
X3204Y22D01*
X0Y21D02*
X7Y21D01*
X28Y21D02*
X37Y21D01*
X3178Y21D02*
X3187Y21D01*
X3197Y21D02*
X3204Y21D01*
X0Y20D02*
X7Y20D01*
X28Y20D02*
X37Y20D01*
X3178Y20D02*
X3187Y20D01*
X3197Y20D02*
X3204Y20D01*
X0Y19D02*
X7Y19D01*
X28Y19D02*
X37Y19D01*
X3178Y19D02*
X3187Y19D01*
X3197Y19D02*
X3204Y19D01*
X0Y18D02*
X7Y18D01*
X28Y18D02*
X37Y18D01*
X3178Y18D02*
X3187Y18D01*
X3197Y18D02*
X3204Y18D01*
X0Y17D02*
X7Y17D01*
X28Y17D02*
X37Y17D01*
X3178Y17D02*
X3187Y17D01*
X3197Y17D02*
X3204Y17D01*
X0Y16D02*
X7Y16D01*
X28Y16D02*
X37Y16D01*
X3178Y16D02*
X3187Y16D01*
X3197Y16D02*
X3204Y16D01*
X0Y15D02*
X7Y15D01*
X28Y15D02*
X37Y15D01*
X3178Y15D02*
X3187Y15D01*
X3197Y15D02*
X3204Y15D01*
X0Y14D02*
X7Y14D01*
X28Y14D02*
X37Y14D01*
X3178Y14D02*
X3187Y14D01*
X3197Y14D02*
X3204Y14D01*
X0Y13D02*
X7Y13D01*
X28Y13D02*
X37Y13D01*
X3178Y13D02*
X3187Y13D01*
X3197Y13D02*
X3204Y13D01*
X0Y12D02*
X7Y12D01*
X28Y12D02*
X37Y12D01*
X3178Y12D02*
X3187Y12D01*
X3197Y12D02*
X3204Y12D01*
X0Y11D02*
X7Y11D01*
X28Y11D02*
X37Y11D01*
X3178Y11D02*
X3187Y11D01*
X3197Y11D02*
X3204Y11D01*
X0Y10D02*
X7Y10D01*
X28Y10D02*
X37Y10D01*
X3178Y10D02*
X3187Y10D01*
X3197Y10D02*
X3204Y10D01*
X0Y9D02*
X3204Y9D01*
X0Y8D02*
X3204Y8D01*
X0Y7D02*
X3204Y7D01*
X0Y6D02*
X3204Y6D01*
X0Y5D02*
X3204Y5D01*
X0Y4D02*
X3204Y4D01*
X0Y3D02*
X3204Y3D01*
X0Y2D02*
X3204Y2D01*
X28Y1D02*
X37Y1D01*
X3178Y1D02*
X3187Y1D01*
X28Y0D02*
X37Y0D01*
X3178Y0D02*
X3187Y0D01*
D02*
G04 End of Silk1*
M02*