G04 MADE WITH FRITZING*
G04 WWW.FRITZING.ORG*
G04 DOUBLE SIDED*
G04 HOLES PLATED*
G04 CONTOUR ON CENTER OF CONTOUR VECTOR*
%ASAXBY*%
%FSLAX23Y23*%
%MOIN*%
%OFA0B0*%
%SFA1.0B1.0*%
%ADD10C,0.075000*%
%ADD11C,0.162000*%
%ADD12C,0.060000*%
%ADD13C,0.250000*%
%ADD14C,0.099000*%
%ADD15C,0.080000*%
%ADD16C,0.039370*%
%ADD17R,0.075000X0.075000*%
%ADD18R,0.098425X0.019685*%
%ADD19R,0.098425X0.078740*%
%ADD20R,0.099000X0.099000*%
%ADD21R,0.080000X0.080000*%
%ADD22C,0.016000*%
%ADD23R,0.001000X0.001000*%
%LNCOPPER1*%
G90*
G70*
G54D10*
X1648Y377D03*
X1748Y377D03*
X1848Y377D03*
X2048Y377D03*
X2448Y377D03*
X348Y77D03*
X448Y77D03*
X548Y77D03*
X648Y77D03*
X748Y77D03*
X848Y77D03*
X948Y77D03*
X1048Y77D03*
X1148Y77D03*
X1248Y77D03*
X1348Y77D03*
X1448Y77D03*
X1548Y77D03*
X1648Y77D03*
X1748Y77D03*
X1848Y77D03*
G54D11*
X2748Y377D03*
X3037Y378D03*
X2874Y525D03*
X2748Y377D03*
X3037Y378D03*
X2874Y525D03*
G54D12*
X1736Y677D03*
X1628Y677D03*
X1520Y677D03*
X1412Y677D03*
X1304Y677D03*
X1196Y677D03*
X1088Y677D03*
X980Y677D03*
X872Y677D03*
X764Y677D03*
X656Y677D03*
X548Y677D03*
X440Y677D03*
X1682Y789D03*
X1574Y789D03*
X1466Y789D03*
X1358Y789D03*
X1250Y789D03*
X1142Y789D03*
X1034Y789D03*
X926Y789D03*
X818Y789D03*
X710Y789D03*
X602Y789D03*
X494Y789D03*
G54D13*
X2006Y733D03*
X170Y733D03*
G54D14*
X2248Y677D03*
X2248Y877D03*
X2648Y777D03*
G54D15*
X148Y339D03*
X148Y477D03*
G54D16*
X1864Y864D03*
X1576Y304D03*
X1416Y480D03*
G54D17*
X348Y78D03*
G54D18*
X2932Y900D03*
X2932Y869D03*
X2932Y963D03*
X2932Y932D03*
G54D19*
X3148Y723D03*
X2932Y723D03*
G54D18*
X2932Y837D03*
G54D20*
X2248Y877D03*
G54D21*
X148Y339D03*
G54D22*
X1848Y100D02*
X1848Y354D01*
D02*
X1249Y100D02*
X1272Y640D01*
X1272Y640D02*
X1289Y660D01*
D02*
X1394Y691D02*
X1336Y736D01*
X1336Y736D02*
X1144Y736D01*
X1144Y736D02*
X1144Y640D01*
X1144Y640D02*
X1240Y624D01*
X1240Y624D02*
X1240Y496D01*
X1240Y496D02*
X1153Y100D01*
D02*
X1000Y690D02*
X1096Y752D01*
X1096Y752D02*
X1096Y832D01*
X1096Y832D02*
X1112Y848D01*
X1112Y848D02*
X1400Y840D01*
X1400Y840D02*
X1432Y736D01*
X1432Y736D02*
X1464Y736D01*
X1464Y736D02*
X1464Y640D01*
X1464Y640D02*
X1304Y608D01*
X1304Y608D02*
X1304Y352D01*
X1304Y352D02*
X1533Y94D01*
D02*
X1458Y811D02*
X1432Y880D01*
X1432Y880D02*
X1064Y880D01*
X1064Y880D02*
X1064Y864D01*
X1064Y864D02*
X1000Y864D01*
X1000Y864D02*
X968Y736D01*
X968Y736D02*
X920Y720D01*
X920Y720D02*
X920Y656D01*
X920Y656D02*
X658Y98D01*
D02*
X872Y700D02*
X872Y832D01*
X872Y832D02*
X952Y848D01*
X952Y848D02*
X952Y880D01*
X952Y880D02*
X1032Y912D01*
X1032Y912D02*
X1480Y912D01*
X1480Y912D02*
X1528Y744D01*
X1528Y744D02*
X1576Y736D01*
X1576Y736D02*
X1576Y640D01*
X1576Y640D02*
X1368Y576D01*
X1368Y576D02*
X1410Y492D01*
D02*
X2472Y377D02*
X2680Y377D01*
D02*
X2263Y656D02*
X2436Y396D01*
D02*
X2923Y833D02*
X2856Y800D01*
X2856Y800D02*
X2744Y464D01*
X2744Y464D02*
X2745Y446D01*
D02*
X458Y98D02*
X728Y728D01*
X728Y728D02*
X760Y736D01*
X760Y736D02*
X760Y816D01*
X760Y816D02*
X1000Y944D01*
X1000Y944D02*
X1512Y944D01*
X1512Y944D02*
X1624Y848D01*
X1624Y848D02*
X1624Y752D01*
X1624Y752D02*
X1688Y720D01*
X1688Y720D02*
X1688Y656D01*
X1688Y656D02*
X1528Y304D01*
X1528Y304D02*
X1563Y304D01*
D02*
X164Y457D02*
X435Y96D01*
D02*
X334Y96D02*
X164Y319D01*
D02*
X1665Y393D02*
X1864Y576D01*
X1864Y576D02*
X1864Y851D01*
D02*
X2222Y877D02*
X1864Y880D01*
X1864Y880D02*
X1864Y877D01*
D02*
X2888Y960D02*
X2280Y912D01*
X2280Y912D02*
X2266Y897D01*
D02*
X3040Y443D02*
X3064Y864D01*
X3064Y864D02*
X3000Y960D01*
X3000Y960D02*
X2976Y961D01*
G54D23*
X2883Y1112D02*
X2980Y1112D01*
X3099Y1112D02*
X3197Y1112D01*
X2883Y1111D02*
X2980Y1111D01*
X3099Y1111D02*
X3197Y1111D01*
X2883Y1110D02*
X2980Y1110D01*
X3099Y1110D02*
X3197Y1110D01*
X2883Y1109D02*
X2980Y1109D01*
X3099Y1109D02*
X3197Y1109D01*
X2883Y1108D02*
X2980Y1108D01*
X3099Y1108D02*
X3197Y1108D01*
X2883Y1107D02*
X2980Y1107D01*
X3099Y1107D02*
X3197Y1107D01*
X2883Y1106D02*
X2980Y1106D01*
X3099Y1106D02*
X3197Y1106D01*
X2883Y1105D02*
X2980Y1105D01*
X3099Y1105D02*
X3197Y1105D01*
X2883Y1104D02*
X2980Y1104D01*
X3099Y1104D02*
X3197Y1104D01*
X2883Y1103D02*
X2980Y1103D01*
X3099Y1103D02*
X3197Y1103D01*
X2883Y1102D02*
X2980Y1102D01*
X3099Y1102D02*
X3197Y1102D01*
X2883Y1101D02*
X2980Y1101D01*
X3099Y1101D02*
X3197Y1101D01*
X2883Y1100D02*
X2980Y1100D01*
X3099Y1100D02*
X3197Y1100D01*
X2883Y1099D02*
X2980Y1099D01*
X3099Y1099D02*
X3197Y1099D01*
X2883Y1098D02*
X2980Y1098D01*
X3099Y1098D02*
X3197Y1098D01*
X2883Y1097D02*
X2980Y1097D01*
X3099Y1097D02*
X3197Y1097D01*
X2883Y1096D02*
X2980Y1096D01*
X3099Y1096D02*
X3197Y1096D01*
X2883Y1095D02*
X2980Y1095D01*
X3099Y1095D02*
X3197Y1095D01*
X2883Y1094D02*
X2980Y1094D01*
X3099Y1094D02*
X3197Y1094D01*
X2883Y1093D02*
X2980Y1093D01*
X3099Y1093D02*
X3197Y1093D01*
X2883Y1092D02*
X2980Y1092D01*
X3099Y1092D02*
X3197Y1092D01*
X2883Y1091D02*
X2980Y1091D01*
X3099Y1091D02*
X3197Y1091D01*
X2883Y1090D02*
X2980Y1090D01*
X3099Y1090D02*
X3197Y1090D01*
X2883Y1089D02*
X2980Y1089D01*
X3099Y1089D02*
X3197Y1089D01*
X2883Y1088D02*
X2980Y1088D01*
X3099Y1088D02*
X3197Y1088D01*
X2883Y1087D02*
X2980Y1087D01*
X3099Y1087D02*
X3197Y1087D01*
X2883Y1086D02*
X2980Y1086D01*
X3099Y1086D02*
X3197Y1086D01*
X2883Y1085D02*
X2980Y1085D01*
X3099Y1085D02*
X3197Y1085D01*
X2883Y1084D02*
X2980Y1084D01*
X3099Y1084D02*
X3197Y1084D01*
X2883Y1083D02*
X2980Y1083D01*
X3099Y1083D02*
X3197Y1083D01*
X2883Y1082D02*
X2980Y1082D01*
X3099Y1082D02*
X3197Y1082D01*
X2883Y1081D02*
X2980Y1081D01*
X3099Y1081D02*
X3197Y1081D01*
X2883Y1080D02*
X2980Y1080D01*
X3099Y1080D02*
X3197Y1080D01*
X2883Y1079D02*
X2980Y1079D01*
X3099Y1079D02*
X3197Y1079D01*
X2883Y1078D02*
X2980Y1078D01*
X3099Y1078D02*
X3197Y1078D01*
X2883Y1077D02*
X2980Y1077D01*
X3099Y1077D02*
X3197Y1077D01*
X2883Y1076D02*
X2980Y1076D01*
X3099Y1076D02*
X3197Y1076D01*
X2883Y1075D02*
X2980Y1075D01*
X3099Y1075D02*
X3197Y1075D01*
X2883Y1074D02*
X2980Y1074D01*
X3099Y1074D02*
X3197Y1074D01*
X2883Y1073D02*
X2980Y1073D01*
X3099Y1073D02*
X3197Y1073D01*
X2883Y1072D02*
X2980Y1072D01*
X3099Y1072D02*
X3197Y1072D01*
X2883Y1071D02*
X2980Y1071D01*
X3099Y1071D02*
X3197Y1071D01*
X2883Y1070D02*
X2980Y1070D01*
X3099Y1070D02*
X3197Y1070D01*
X2883Y1069D02*
X2980Y1069D01*
X3099Y1069D02*
X3197Y1069D01*
X2883Y1068D02*
X2980Y1068D01*
X3099Y1068D02*
X3197Y1068D01*
X2883Y1067D02*
X2980Y1067D01*
X3099Y1067D02*
X3197Y1067D01*
X2883Y1066D02*
X2980Y1066D01*
X3099Y1066D02*
X3197Y1066D01*
X2883Y1065D02*
X2980Y1065D01*
X3099Y1065D02*
X3197Y1065D01*
X2883Y1064D02*
X2980Y1064D01*
X3099Y1064D02*
X3197Y1064D01*
X2883Y1063D02*
X2980Y1063D01*
X3099Y1063D02*
X3197Y1063D01*
X2883Y1062D02*
X2980Y1062D01*
X3099Y1062D02*
X3197Y1062D01*
X2883Y1061D02*
X2980Y1061D01*
X3099Y1061D02*
X3197Y1061D01*
X2883Y1060D02*
X2980Y1060D01*
X3099Y1060D02*
X3197Y1060D01*
X2883Y1059D02*
X2980Y1059D01*
X3099Y1059D02*
X3197Y1059D01*
X2883Y1058D02*
X2980Y1058D01*
X3099Y1058D02*
X3197Y1058D01*
X2883Y1057D02*
X2980Y1057D01*
X3099Y1057D02*
X3197Y1057D01*
X2883Y1056D02*
X2980Y1056D01*
X3099Y1056D02*
X3197Y1056D01*
X2883Y1055D02*
X2980Y1055D01*
X3099Y1055D02*
X3197Y1055D01*
X2883Y1054D02*
X2980Y1054D01*
X3099Y1054D02*
X3197Y1054D01*
X2883Y1053D02*
X2980Y1053D01*
X3099Y1053D02*
X3197Y1053D01*
X2883Y1052D02*
X2980Y1052D01*
X3099Y1052D02*
X3197Y1052D01*
X2883Y1051D02*
X2980Y1051D01*
X3099Y1051D02*
X3197Y1051D01*
X2883Y1050D02*
X2980Y1050D01*
X3099Y1050D02*
X3197Y1050D01*
X2883Y1049D02*
X2980Y1049D01*
X3099Y1049D02*
X3197Y1049D01*
X2883Y1048D02*
X2980Y1048D01*
X3099Y1048D02*
X3197Y1048D01*
X2883Y1047D02*
X2980Y1047D01*
X3099Y1047D02*
X3197Y1047D01*
X2883Y1046D02*
X2980Y1046D01*
X3099Y1046D02*
X3197Y1046D01*
X2883Y1045D02*
X2980Y1045D01*
X3099Y1045D02*
X3197Y1045D01*
X2883Y1044D02*
X2980Y1044D01*
X3099Y1044D02*
X3197Y1044D01*
X2883Y1043D02*
X2980Y1043D01*
X3099Y1043D02*
X3197Y1043D01*
X2883Y1042D02*
X2980Y1042D01*
X3099Y1042D02*
X3197Y1042D01*
X2883Y1041D02*
X2980Y1041D01*
X3099Y1041D02*
X3197Y1041D01*
X2883Y1040D02*
X2980Y1040D01*
X3099Y1040D02*
X3197Y1040D01*
X2883Y1039D02*
X2980Y1039D01*
X3099Y1039D02*
X3197Y1039D01*
D02*
G04 End of Copper1*
M02*