G04 MADE WITH FRITZING*
G04 WWW.FRITZING.ORG*
G04 DOUBLE SIDED*
G04 HOLES PLATED*
G04 CONTOUR ON CENTER OF CONTOUR VECTOR*
%ASAXBY*%
%FSLAX23Y23*%
%MOIN*%
%OFA0B0*%
%SFA1.0B1.0*%
%ADD10C,0.085000*%
%ADD11C,0.172000*%
%ADD12C,0.070000*%
%ADD13C,0.260000*%
%ADD14C,0.135000*%
%ADD15C,0.109000*%
%ADD16C,0.090000*%
%ADD17C,0.049370*%
%ADD18R,0.085000X0.085000*%
%ADD19R,0.109000X0.109000*%
%ADD20R,0.090000X0.090000*%
%LNMASK0*%
G90*
G70*
G54D10*
X1648Y377D03*
X1748Y377D03*
X1848Y377D03*
X2048Y377D03*
X2448Y377D03*
X348Y77D03*
X448Y77D03*
X548Y77D03*
X648Y77D03*
X748Y77D03*
X848Y77D03*
X948Y77D03*
X1048Y77D03*
X1148Y77D03*
X1248Y77D03*
X1348Y77D03*
X1448Y77D03*
X1548Y77D03*
X1648Y77D03*
X1748Y77D03*
X1848Y77D03*
G54D11*
X2748Y377D03*
X3037Y378D03*
X2874Y525D03*
G54D12*
X1736Y677D03*
X1628Y677D03*
X1520Y677D03*
X1412Y677D03*
X1304Y677D03*
X1196Y677D03*
X1088Y677D03*
X980Y677D03*
X872Y677D03*
X764Y677D03*
X656Y677D03*
X548Y677D03*
X440Y677D03*
X1682Y789D03*
X1574Y789D03*
X1466Y789D03*
X1358Y789D03*
X1250Y789D03*
X1142Y789D03*
X1034Y789D03*
X926Y789D03*
X818Y789D03*
X710Y789D03*
X602Y789D03*
X494Y789D03*
G54D13*
X2006Y733D03*
X170Y733D03*
G54D14*
X2006Y733D03*
X170Y733D03*
G54D15*
X2248Y677D03*
X2248Y877D03*
X2648Y777D03*
G54D16*
X148Y339D03*
X148Y477D03*
G54D17*
X1416Y480D03*
X1576Y304D03*
X1864Y864D03*
G54D18*
X348Y78D03*
G54D19*
X2248Y877D03*
G54D20*
X148Y339D03*
G04 End of Mask0*
M02*