G04 MADE WITH FRITZING*
G04 WWW.FRITZING.ORG*
G04 DOUBLE SIDED*
G04 HOLES PLATED*
G04 CONTOUR ON CENTER OF CONTOUR VECTOR*
%ASAXBY*%
%FSLAX23Y23*%
%MOIN*%
%OFA0B0*%
%SFA1.0B1.0*%
%ADD10C,0.075000*%
%ADD11C,0.162000*%
%ADD12C,0.060000*%
%ADD13C,0.250000*%
%ADD14C,0.099000*%
%ADD15C,0.080000*%
%ADD16C,0.039370*%
%ADD17R,0.075000X0.075000*%
%ADD18R,0.099000X0.099000*%
%ADD19R,0.080000X0.080000*%
%ADD20C,0.016000*%
%LNCOPPER0*%
G90*
G70*
G54D10*
X1648Y377D03*
X1748Y377D03*
X1848Y377D03*
X2048Y377D03*
X2448Y377D03*
X348Y77D03*
X448Y77D03*
X548Y77D03*
X648Y77D03*
X748Y77D03*
X848Y77D03*
X948Y77D03*
X1048Y77D03*
X1148Y77D03*
X1248Y77D03*
X1348Y77D03*
X1448Y77D03*
X1548Y77D03*
X1648Y77D03*
X1748Y77D03*
X1848Y77D03*
G54D11*
X2748Y377D03*
X3037Y378D03*
X2874Y525D03*
G54D12*
X1736Y677D03*
X1628Y677D03*
X1520Y677D03*
X1412Y677D03*
X1304Y677D03*
X1196Y677D03*
X1088Y677D03*
X980Y677D03*
X872Y677D03*
X764Y677D03*
X656Y677D03*
X548Y677D03*
X440Y677D03*
X1682Y789D03*
X1574Y789D03*
X1466Y789D03*
X1358Y789D03*
X1250Y789D03*
X1142Y789D03*
X1034Y789D03*
X926Y789D03*
X818Y789D03*
X710Y789D03*
X602Y789D03*
X494Y789D03*
G54D13*
X2006Y733D03*
X170Y733D03*
G54D14*
X2248Y677D03*
X2248Y877D03*
X2648Y777D03*
G54D15*
X148Y339D03*
X148Y477D03*
G54D16*
X1416Y480D03*
X1576Y304D03*
X1864Y864D03*
G54D17*
X348Y78D03*
G54D18*
X2248Y877D03*
G54D19*
X148Y339D03*
G54D20*
X2032Y361D02*
X1765Y94D01*
D02*
X1213Y661D02*
X1320Y560D01*
X1320Y560D02*
X1320Y112D01*
X1320Y112D02*
X1334Y95D01*
D02*
X1106Y692D02*
X1160Y736D01*
X1160Y736D02*
X1352Y736D01*
X1352Y736D02*
X1352Y416D01*
X1352Y416D02*
X1442Y99D01*
D02*
X1379Y779D02*
X1464Y736D01*
X1464Y736D02*
X1464Y640D01*
X1464Y640D02*
X1732Y393D01*
D02*
X1519Y700D02*
X1512Y832D01*
X1512Y832D02*
X1496Y848D01*
X1496Y848D02*
X1096Y848D01*
X1096Y848D02*
X1096Y752D01*
X1096Y752D02*
X1032Y720D01*
X1032Y720D02*
X1032Y640D01*
X1032Y640D02*
X1048Y624D01*
X1048Y624D02*
X1176Y624D01*
X1176Y624D02*
X1288Y528D01*
X1288Y528D02*
X1288Y432D01*
X1288Y432D02*
X1061Y96D01*
D02*
X962Y96D02*
X1248Y496D01*
X1248Y496D02*
X1144Y592D01*
X1144Y592D02*
X1016Y592D01*
X1016Y592D02*
X1016Y600D01*
X1016Y600D02*
X920Y656D01*
X920Y656D02*
X920Y720D01*
X920Y720D02*
X984Y752D01*
X984Y752D02*
X984Y848D01*
X984Y848D02*
X1064Y880D01*
X1064Y880D02*
X1528Y880D01*
X1528Y880D02*
X1544Y856D01*
X1544Y856D02*
X1616Y832D01*
X1616Y832D02*
X1627Y700D01*
D02*
X1423Y468D02*
X1637Y97D01*
D02*
X865Y93D02*
X904Y128D01*
X904Y128D02*
X1176Y480D01*
X1176Y480D02*
X1112Y560D01*
X1112Y560D02*
X984Y560D01*
X984Y560D02*
X968Y592D01*
X968Y592D02*
X824Y640D01*
X824Y640D02*
X824Y736D01*
X824Y736D02*
X872Y752D01*
X872Y752D02*
X872Y848D01*
X872Y848D02*
X968Y904D01*
X968Y904D02*
X968Y912D01*
X968Y912D02*
X1560Y912D01*
X1560Y912D02*
X1560Y904D01*
X1560Y904D02*
X1704Y832D01*
X1704Y832D02*
X1736Y832D01*
X1736Y832D02*
X1736Y700D01*
D02*
X1576Y766D02*
X1584Y640D01*
X1584Y640D02*
X1592Y624D01*
X1592Y624D02*
X1784Y624D01*
X1784Y624D02*
X1768Y864D01*
X1768Y864D02*
X1592Y944D01*
X1592Y944D02*
X920Y944D01*
X920Y944D02*
X920Y912D01*
X920Y912D02*
X760Y832D01*
X760Y832D02*
X760Y752D01*
X760Y752D02*
X712Y736D01*
X712Y736D02*
X747Y100D01*
D02*
X568Y90D02*
X600Y112D01*
X600Y112D02*
X600Y704D01*
X600Y704D02*
X664Y736D01*
X664Y736D02*
X664Y832D01*
X664Y832D02*
X888Y976D01*
X888Y976D02*
X1640Y976D01*
X1640Y976D02*
X1768Y912D01*
X1768Y912D02*
X1800Y912D01*
X1800Y912D02*
X1816Y608D01*
X1816Y608D02*
X1928Y592D01*
X1928Y592D02*
X2104Y592D01*
X2104Y592D02*
X2200Y752D01*
X2200Y752D02*
X2622Y776D01*
D02*
X1589Y304D02*
X1896Y304D01*
X1896Y304D02*
X2231Y658D01*
D02*
X1859Y876D02*
X1832Y944D01*
X1832Y944D02*
X1672Y1008D01*
X1672Y1008D02*
X856Y1008D01*
X856Y1008D02*
X552Y848D01*
X552Y848D02*
X536Y736D01*
X536Y736D02*
X504Y736D01*
X504Y736D02*
X354Y100D01*
G04 End of Copper0*
M02*