G04 MADE WITH FRITZING*
G04 WWW.FRITZING.ORG*
G04 DOUBLE SIDED*
G04 HOLES PLATED*
G04 CONTOUR ON CENTER OF CONTOUR VECTOR*
%ASAXBY*%
%FSLAX23Y23*%
%MOIN*%
%OFA0B0*%
%SFA1.0B1.0*%
%ADD10C,0.085000*%
%ADD11C,0.172000*%
%ADD12C,0.045433*%
%ADD13C,0.070000*%
%ADD14C,0.260000*%
%ADD15C,0.135000*%
%ADD16C,0.109000*%
%ADD17C,0.090000*%
%ADD18C,0.049370*%
%ADD19R,0.085000X0.085000*%
%ADD20R,0.108425X0.029685*%
%ADD21R,0.108425X0.088740*%
%ADD22R,0.109000X0.109000*%
%ADD23R,0.090000X0.090000*%
%ADD24R,0.001000X0.001000*%
%LNMASK1*%
G90*
G70*
G54D10*
X1648Y377D03*
X1748Y377D03*
X1848Y377D03*
X2048Y377D03*
X2448Y377D03*
X348Y77D03*
X448Y77D03*
X548Y77D03*
X648Y77D03*
X748Y77D03*
X848Y77D03*
X948Y77D03*
X1048Y77D03*
X1148Y77D03*
X1248Y77D03*
X1348Y77D03*
X1448Y77D03*
X1548Y77D03*
X1648Y77D03*
X1748Y77D03*
X1848Y77D03*
G54D11*
X2748Y377D03*
X3037Y378D03*
X2874Y525D03*
X2748Y377D03*
X3037Y378D03*
X2874Y525D03*
G54D12*
X3030Y813D03*
X3030Y987D03*
X3030Y813D03*
X3030Y987D03*
G54D13*
X1736Y677D03*
X1628Y677D03*
X1520Y677D03*
X1412Y677D03*
X1304Y677D03*
X1196Y677D03*
X1088Y677D03*
X980Y677D03*
X872Y677D03*
X764Y677D03*
X656Y677D03*
X548Y677D03*
X440Y677D03*
X1682Y789D03*
X1574Y789D03*
X1466Y789D03*
X1358Y789D03*
X1250Y789D03*
X1142Y789D03*
X1034Y789D03*
X926Y789D03*
X818Y789D03*
X710Y789D03*
X602Y789D03*
X494Y789D03*
G54D14*
X2006Y733D03*
X170Y733D03*
G54D15*
X2006Y733D03*
X170Y733D03*
G54D16*
X2248Y677D03*
X2248Y877D03*
X2648Y777D03*
G54D17*
X148Y339D03*
X148Y477D03*
G54D18*
X1864Y864D03*
X1576Y304D03*
X1416Y480D03*
G54D19*
X348Y78D03*
G54D20*
X2932Y900D03*
X2932Y869D03*
X2932Y963D03*
X2932Y932D03*
G54D21*
X3148Y723D03*
X2932Y723D03*
G54D20*
X2932Y837D03*
G54D22*
X2248Y877D03*
G54D23*
X148Y339D03*
G54D24*
X2878Y1112D02*
X2985Y1112D01*
X3094Y1112D02*
X3202Y1112D01*
X2878Y1111D02*
X2985Y1111D01*
X3094Y1111D02*
X3202Y1111D01*
X2878Y1110D02*
X2985Y1110D01*
X3094Y1110D02*
X3202Y1110D01*
X2878Y1109D02*
X2985Y1109D01*
X3094Y1109D02*
X3202Y1109D01*
X2878Y1108D02*
X2985Y1108D01*
X3094Y1108D02*
X3202Y1108D01*
X2878Y1107D02*
X2985Y1107D01*
X3094Y1107D02*
X3202Y1107D01*
X2878Y1106D02*
X2985Y1106D01*
X3094Y1106D02*
X3202Y1106D01*
X2878Y1105D02*
X2985Y1105D01*
X3094Y1105D02*
X3202Y1105D01*
X2878Y1104D02*
X2985Y1104D01*
X3094Y1104D02*
X3202Y1104D01*
X2878Y1103D02*
X2985Y1103D01*
X3094Y1103D02*
X3202Y1103D01*
X2878Y1102D02*
X2985Y1102D01*
X3094Y1102D02*
X3202Y1102D01*
X2878Y1101D02*
X2985Y1101D01*
X3094Y1101D02*
X3202Y1101D01*
X2878Y1100D02*
X2985Y1100D01*
X3094Y1100D02*
X3202Y1100D01*
X2878Y1099D02*
X2985Y1099D01*
X3094Y1099D02*
X3202Y1099D01*
X2878Y1098D02*
X2985Y1098D01*
X3094Y1098D02*
X3202Y1098D01*
X2878Y1097D02*
X2985Y1097D01*
X3094Y1097D02*
X3202Y1097D01*
X2878Y1096D02*
X2985Y1096D01*
X3094Y1096D02*
X3202Y1096D01*
X2878Y1095D02*
X2985Y1095D01*
X3094Y1095D02*
X3202Y1095D01*
X2878Y1094D02*
X2985Y1094D01*
X3094Y1094D02*
X3202Y1094D01*
X2878Y1093D02*
X2985Y1093D01*
X3094Y1093D02*
X3202Y1093D01*
X2878Y1092D02*
X2985Y1092D01*
X3094Y1092D02*
X3202Y1092D01*
X2878Y1091D02*
X2985Y1091D01*
X3094Y1091D02*
X3202Y1091D01*
X2878Y1090D02*
X2985Y1090D01*
X3094Y1090D02*
X3202Y1090D01*
X2878Y1089D02*
X2985Y1089D01*
X3094Y1089D02*
X3202Y1089D01*
X2878Y1088D02*
X2985Y1088D01*
X3094Y1088D02*
X3202Y1088D01*
X2878Y1087D02*
X2985Y1087D01*
X3094Y1087D02*
X3202Y1087D01*
X2878Y1086D02*
X2985Y1086D01*
X3094Y1086D02*
X3202Y1086D01*
X2878Y1085D02*
X2985Y1085D01*
X3094Y1085D02*
X3202Y1085D01*
X2878Y1084D02*
X2985Y1084D01*
X3094Y1084D02*
X3202Y1084D01*
X2878Y1083D02*
X2985Y1083D01*
X3094Y1083D02*
X3202Y1083D01*
X2878Y1082D02*
X2985Y1082D01*
X3094Y1082D02*
X3202Y1082D01*
X2878Y1081D02*
X2985Y1081D01*
X3094Y1081D02*
X3202Y1081D01*
X2878Y1080D02*
X2985Y1080D01*
X3094Y1080D02*
X3202Y1080D01*
X2878Y1079D02*
X2985Y1079D01*
X3094Y1079D02*
X3202Y1079D01*
X2878Y1078D02*
X2985Y1078D01*
X3094Y1078D02*
X3202Y1078D01*
X2878Y1077D02*
X2985Y1077D01*
X3094Y1077D02*
X3202Y1077D01*
X2878Y1076D02*
X2985Y1076D01*
X3094Y1076D02*
X3202Y1076D01*
X2878Y1075D02*
X2985Y1075D01*
X3094Y1075D02*
X3202Y1075D01*
X2878Y1074D02*
X2985Y1074D01*
X3094Y1074D02*
X3202Y1074D01*
X2878Y1073D02*
X2985Y1073D01*
X3094Y1073D02*
X3202Y1073D01*
X2878Y1072D02*
X2985Y1072D01*
X3094Y1072D02*
X3202Y1072D01*
X2878Y1071D02*
X2985Y1071D01*
X3094Y1071D02*
X3202Y1071D01*
X2878Y1070D02*
X2985Y1070D01*
X3094Y1070D02*
X3202Y1070D01*
X2878Y1069D02*
X2985Y1069D01*
X3094Y1069D02*
X3202Y1069D01*
X2878Y1068D02*
X2985Y1068D01*
X3094Y1068D02*
X3202Y1068D01*
X2878Y1067D02*
X2985Y1067D01*
X3094Y1067D02*
X3202Y1067D01*
X2878Y1066D02*
X2985Y1066D01*
X3094Y1066D02*
X3202Y1066D01*
X2878Y1065D02*
X2985Y1065D01*
X3094Y1065D02*
X3202Y1065D01*
X2878Y1064D02*
X2985Y1064D01*
X3094Y1064D02*
X3202Y1064D01*
X2878Y1063D02*
X2985Y1063D01*
X3094Y1063D02*
X3202Y1063D01*
X2878Y1062D02*
X2985Y1062D01*
X3094Y1062D02*
X3202Y1062D01*
X2878Y1061D02*
X2985Y1061D01*
X3094Y1061D02*
X3202Y1061D01*
X2878Y1060D02*
X2985Y1060D01*
X3094Y1060D02*
X3202Y1060D01*
X2878Y1059D02*
X2985Y1059D01*
X3094Y1059D02*
X3202Y1059D01*
X2878Y1058D02*
X2985Y1058D01*
X3094Y1058D02*
X3202Y1058D01*
X2878Y1057D02*
X2985Y1057D01*
X3094Y1057D02*
X3202Y1057D01*
X2878Y1056D02*
X2985Y1056D01*
X3094Y1056D02*
X3202Y1056D01*
X2878Y1055D02*
X2985Y1055D01*
X3094Y1055D02*
X3202Y1055D01*
X2878Y1054D02*
X2985Y1054D01*
X3094Y1054D02*
X3202Y1054D01*
X2878Y1053D02*
X2985Y1053D01*
X3094Y1053D02*
X3202Y1053D01*
X2878Y1052D02*
X2985Y1052D01*
X3094Y1052D02*
X3202Y1052D01*
X2878Y1051D02*
X2985Y1051D01*
X3094Y1051D02*
X3202Y1051D01*
X2878Y1050D02*
X2985Y1050D01*
X3094Y1050D02*
X3202Y1050D01*
X2878Y1049D02*
X2985Y1049D01*
X3094Y1049D02*
X3202Y1049D01*
X2878Y1048D02*
X2985Y1048D01*
X3094Y1048D02*
X3202Y1048D01*
X2878Y1047D02*
X2985Y1047D01*
X3094Y1047D02*
X3202Y1047D01*
X2878Y1046D02*
X2985Y1046D01*
X3094Y1046D02*
X3202Y1046D01*
X2878Y1045D02*
X2985Y1045D01*
X3094Y1045D02*
X3202Y1045D01*
X2878Y1044D02*
X2985Y1044D01*
X3094Y1044D02*
X3202Y1044D01*
X2878Y1043D02*
X2985Y1043D01*
X3094Y1043D02*
X3202Y1043D01*
X2878Y1042D02*
X2985Y1042D01*
X3094Y1042D02*
X3202Y1042D01*
X2878Y1041D02*
X2985Y1041D01*
X3094Y1041D02*
X3202Y1041D01*
X2878Y1040D02*
X2985Y1040D01*
X3094Y1040D02*
X3202Y1040D01*
X2878Y1039D02*
X2985Y1039D01*
X3094Y1039D02*
X3202Y1039D01*
X2878Y1038D02*
X2985Y1038D01*
X3094Y1038D02*
X3202Y1038D01*
X2878Y1037D02*
X2985Y1037D01*
X3094Y1037D02*
X3202Y1037D01*
X2878Y1036D02*
X2985Y1036D01*
X3094Y1036D02*
X3202Y1036D01*
X2878Y1035D02*
X2985Y1035D01*
X3094Y1035D02*
X3202Y1035D01*
X2878Y1034D02*
X2985Y1034D01*
X3094Y1034D02*
X3202Y1034D01*
D02*
G04 End of Mask1*
M02*